G75*
%MOIN*%
%OFA0B0*%
%FSLAX24Y24*%
%IPPOS*%
%LPD*%
%AMOC8*
5,1,8,0,0,1.08239X$1,22.5*
%
%ADD10C,0.0010*%
%ADD11R,0.0394X0.0551*%
%ADD12R,0.0433X0.0394*%
%ADD13R,0.0740X0.0740*%
%ADD14C,0.0740*%
%ADD15C,0.0320*%
%ADD16C,0.0350*%
%ADD17C,0.0100*%
D10*
X000245Y000400D02*
X000245Y005150D01*
X000247Y005180D01*
X000252Y005210D01*
X000261Y005239D01*
X000274Y005266D01*
X000289Y005292D01*
X000308Y005316D01*
X000329Y005337D01*
X000353Y005356D01*
X000379Y005371D01*
X000406Y005384D01*
X000435Y005393D01*
X000465Y005398D01*
X000495Y005400D01*
X005995Y005400D01*
X006025Y005398D01*
X006055Y005393D01*
X006084Y005384D01*
X006111Y005371D01*
X006137Y005356D01*
X006161Y005337D01*
X006182Y005316D01*
X006201Y005292D01*
X006216Y005266D01*
X006229Y005239D01*
X006238Y005210D01*
X006243Y005180D01*
X006245Y005150D01*
X006245Y000400D01*
X006243Y000370D01*
X006238Y000340D01*
X006229Y000311D01*
X006216Y000284D01*
X006201Y000258D01*
X006182Y000234D01*
X006161Y000213D01*
X006137Y000194D01*
X006111Y000179D01*
X006084Y000166D01*
X006055Y000157D01*
X006025Y000152D01*
X005995Y000150D01*
X000495Y000150D01*
X000465Y000152D01*
X000435Y000157D01*
X000406Y000166D01*
X000379Y000179D01*
X000353Y000194D01*
X000329Y000213D01*
X000308Y000234D01*
X000289Y000258D01*
X000274Y000284D01*
X000261Y000311D01*
X000252Y000340D01*
X000247Y000370D01*
X000245Y000400D01*
D11*
X001241Y002337D03*
X001989Y002337D03*
X002541Y002337D03*
X003289Y002337D03*
X003841Y002337D03*
X004589Y002337D03*
X005141Y002337D03*
X005889Y002337D03*
X005515Y003203D03*
X004215Y003203D03*
X002915Y003203D03*
X001615Y003203D03*
D12*
X001919Y003770D03*
X002541Y003770D03*
X003249Y003770D03*
X003841Y003770D03*
X004549Y003770D03*
X005191Y003770D03*
X005899Y003770D03*
X005869Y001770D03*
X005161Y001770D03*
X004569Y001770D03*
X003861Y001770D03*
X003269Y001770D03*
X002561Y001770D03*
X001969Y001770D03*
X001261Y001770D03*
X001211Y003770D03*
D13*
X000745Y000650D03*
D14*
X001745Y000650D03*
X002745Y000650D03*
X003745Y000650D03*
X004745Y000650D03*
X005745Y000650D03*
X005745Y004900D03*
X004745Y004900D03*
X003745Y004900D03*
X002745Y004900D03*
X001745Y004900D03*
X000745Y004900D03*
D15*
X000745Y004286D01*
X001211Y003770D01*
X001145Y003704D01*
X001145Y003200D01*
X001615Y003203D02*
X001615Y003416D01*
X001919Y003770D01*
X001939Y004094D01*
X002745Y004900D01*
X003249Y004404D02*
X003745Y004900D01*
X003249Y004404D02*
X003249Y003770D01*
X002925Y003386D01*
X002915Y003203D01*
X002385Y003200D02*
X002385Y003614D01*
X002541Y003770D01*
X003645Y003200D02*
X003715Y003270D01*
X003715Y003644D01*
X003841Y003770D01*
X004195Y003336D02*
X004549Y003770D01*
X004549Y004704D01*
X004745Y004900D01*
X005745Y004900D02*
X005899Y004746D01*
X005899Y003770D01*
X005899Y003587D01*
X005515Y003203D01*
X005045Y003200D02*
X005045Y003624D01*
X005191Y003770D01*
X004195Y003336D02*
X004215Y003203D01*
X003841Y002337D02*
X003841Y001790D01*
X003861Y001770D01*
X003861Y001694D01*
X004235Y001200D01*
X004569Y001496D02*
X004745Y001320D01*
X004745Y000650D01*
X005235Y001200D02*
X005161Y001324D01*
X005161Y001770D01*
X005141Y001790D01*
X005141Y002337D01*
X004589Y002337D02*
X004589Y001790D01*
X004569Y001770D01*
X004569Y001496D01*
X003745Y001110D02*
X003255Y001600D01*
X003255Y001756D01*
X003269Y001770D01*
X003289Y001790D01*
X003289Y002337D01*
X002541Y002337D02*
X002541Y001790D01*
X002561Y001770D01*
X002561Y001694D01*
X002955Y001270D01*
X003045Y001200D01*
X002745Y000770D02*
X002745Y000650D01*
X002745Y000770D02*
X001945Y001570D01*
X001945Y001746D01*
X001969Y001770D01*
X001969Y002317D01*
X001989Y002337D01*
X001261Y002317D02*
X000812Y002317D01*
X000765Y002270D01*
X001241Y002337D02*
X001241Y001790D01*
X001261Y001770D01*
X001261Y002317D02*
X001241Y002337D01*
X003745Y001110D02*
X003745Y000650D01*
X005745Y000650D02*
X005869Y000774D01*
X005869Y001770D01*
X005869Y002317D01*
X005889Y002337D01*
D16*
X005045Y003200D03*
X003645Y003200D03*
X002385Y003200D03*
X001145Y003200D03*
X000505Y002980D03*
X000765Y002270D03*
X003045Y001200D03*
X004235Y001200D03*
X005235Y001200D03*
D17*
X005451Y001416D02*
X005451Y001463D01*
X005507Y001519D01*
X005507Y002021D01*
X005468Y002060D01*
X005468Y002666D01*
X005392Y002743D01*
X004890Y002743D01*
X004865Y002717D01*
X004840Y002743D01*
X004338Y002743D01*
X004262Y002666D01*
X004262Y002060D01*
X004223Y002021D01*
X004223Y001696D01*
X004207Y001717D01*
X004207Y002021D01*
X004168Y002060D01*
X004168Y002666D01*
X004092Y002743D01*
X003590Y002743D01*
X003565Y002717D01*
X003540Y002743D01*
X003038Y002743D01*
X002962Y002666D01*
X002962Y002060D01*
X002923Y002021D01*
X002923Y001731D01*
X002907Y001747D01*
X002907Y002021D01*
X002868Y002060D01*
X002868Y002666D01*
X002792Y002743D01*
X002290Y002743D01*
X002265Y002717D01*
X002240Y002743D01*
X001738Y002743D01*
X001662Y002666D01*
X001662Y002060D01*
X001623Y002021D01*
X001623Y001519D01*
X001673Y001469D01*
X001699Y001406D01*
X001781Y001324D01*
X002002Y001102D01*
X001945Y001132D01*
X001867Y001157D01*
X001795Y001169D01*
X001795Y000700D01*
X001695Y000700D01*
X001695Y001169D01*
X001623Y001157D01*
X001545Y001132D01*
X001472Y001095D01*
X001406Y001047D01*
X001348Y000989D01*
X001300Y000923D01*
X001263Y000850D01*
X001245Y000794D01*
X001245Y001074D01*
X001169Y001150D01*
X000380Y001150D01*
X000380Y004558D01*
X000455Y004483D01*
X000455Y004293D01*
X000452Y004243D01*
X000455Y004236D01*
X000455Y004228D01*
X000474Y004182D01*
X000491Y004134D01*
X000496Y004128D01*
X000499Y004121D01*
X000535Y004086D01*
X000855Y003731D01*
X000855Y003297D01*
X000840Y003261D01*
X000840Y003139D01*
X000886Y003027D01*
X000972Y002941D01*
X001084Y002895D01*
X001206Y002895D01*
X001288Y002929D01*
X001288Y002874D01*
X001364Y002797D01*
X001866Y002797D01*
X001942Y002874D01*
X001942Y003351D01*
X002021Y003443D01*
X002095Y003443D01*
X002095Y003297D01*
X002080Y003261D01*
X002080Y003139D01*
X002126Y003027D01*
X002212Y002941D01*
X002324Y002895D01*
X002446Y002895D01*
X002558Y002941D01*
X002588Y002972D01*
X002588Y002874D01*
X002664Y002797D01*
X003166Y002797D01*
X003242Y002874D01*
X003242Y003311D01*
X003353Y003443D01*
X003425Y003443D01*
X003425Y003411D01*
X003386Y003373D01*
X003340Y003261D01*
X003340Y003139D01*
X003386Y003027D01*
X003472Y002941D01*
X003584Y002895D01*
X003706Y002895D01*
X003818Y002941D01*
X003888Y003012D01*
X003888Y002874D01*
X003964Y002797D01*
X004466Y002797D01*
X004542Y002874D01*
X004542Y003302D01*
X004755Y003302D01*
X004755Y003297D02*
X004740Y003261D01*
X004740Y003139D01*
X004786Y003027D01*
X004872Y002941D01*
X004984Y002895D01*
X005106Y002895D01*
X005188Y002929D01*
X005188Y002874D01*
X005264Y002797D01*
X005766Y002797D01*
X005842Y002874D01*
X005842Y003120D01*
X006064Y003342D01*
X006110Y003388D01*
X006110Y002743D01*
X005638Y002743D01*
X005562Y002666D01*
X005562Y002060D01*
X005523Y002021D01*
X005523Y001519D01*
X005579Y001463D01*
X005579Y001123D01*
X005523Y001099D01*
X005540Y001139D01*
X005540Y001261D01*
X005494Y001373D01*
X005451Y001416D01*
X005451Y001431D02*
X005579Y001431D01*
X005579Y001332D02*
X005510Y001332D01*
X005540Y001234D02*
X005579Y001234D01*
X005579Y001135D02*
X005538Y001135D01*
X005523Y001529D02*
X005507Y001529D01*
X005507Y001628D02*
X005523Y001628D01*
X005523Y001726D02*
X005507Y001726D01*
X005507Y001825D02*
X005523Y001825D01*
X005523Y001923D02*
X005507Y001923D01*
X005506Y002022D02*
X005524Y002022D01*
X005562Y002120D02*
X005468Y002120D01*
X005468Y002219D02*
X005562Y002219D01*
X005562Y002317D02*
X005468Y002317D01*
X005468Y002416D02*
X005562Y002416D01*
X005562Y002514D02*
X005468Y002514D01*
X005468Y002613D02*
X005562Y002613D01*
X005607Y002711D02*
X005423Y002711D01*
X005252Y002810D02*
X004478Y002810D01*
X004542Y002908D02*
X004953Y002908D01*
X004807Y003007D02*
X004542Y003007D01*
X004542Y003105D02*
X004754Y003105D01*
X004740Y003204D02*
X004542Y003204D01*
X004542Y003302D02*
X004657Y003443D01*
X004755Y003443D01*
X004755Y003297D01*
X004755Y003401D02*
X004622Y003401D01*
X005137Y002908D02*
X005188Y002908D01*
X005778Y002810D02*
X006110Y002810D01*
X006110Y002908D02*
X005842Y002908D01*
X005842Y003007D02*
X006110Y003007D01*
X006110Y003105D02*
X005842Y003105D01*
X005926Y003204D02*
X006110Y003204D01*
X006110Y003302D02*
X006024Y003302D01*
X004307Y002711D02*
X004123Y002711D01*
X004168Y002613D02*
X004262Y002613D01*
X004262Y002514D02*
X004168Y002514D01*
X004168Y002416D02*
X004262Y002416D01*
X004262Y002317D02*
X004168Y002317D01*
X004168Y002219D02*
X004262Y002219D01*
X004262Y002120D02*
X004168Y002120D01*
X004206Y002022D02*
X004224Y002022D01*
X004223Y001923D02*
X004207Y001923D01*
X004207Y001825D02*
X004223Y001825D01*
X004223Y001726D02*
X004207Y001726D01*
X003952Y002810D02*
X003178Y002810D01*
X003242Y002908D02*
X003553Y002908D01*
X003737Y002908D02*
X003888Y002908D01*
X003883Y003007D02*
X003888Y003007D01*
X003407Y003007D02*
X003242Y003007D01*
X003242Y003105D02*
X003354Y003105D01*
X003340Y003204D02*
X003242Y003204D01*
X003242Y003302D02*
X003357Y003302D01*
X003317Y003401D02*
X003414Y003401D01*
X002652Y002810D02*
X001878Y002810D01*
X001942Y002908D02*
X002293Y002908D01*
X002147Y003007D02*
X001942Y003007D01*
X001942Y003105D02*
X002094Y003105D01*
X002080Y003204D02*
X001942Y003204D01*
X001942Y003302D02*
X002095Y003302D01*
X002095Y003401D02*
X001984Y003401D01*
X001557Y003793D02*
X001557Y004021D01*
X001481Y004097D01*
X001306Y004097D01*
X001035Y004397D01*
X001035Y004483D01*
X001169Y004617D01*
X001237Y004782D01*
X001238Y004778D01*
X001263Y004700D01*
X001300Y004627D01*
X001348Y004561D01*
X001406Y004503D01*
X001472Y004455D01*
X001545Y004418D01*
X001623Y004393D01*
X001695Y004381D01*
X001695Y004850D01*
X001795Y004850D01*
X001795Y004381D01*
X001820Y004385D01*
X001741Y004306D01*
X001704Y004273D01*
X001700Y004265D01*
X001693Y004259D01*
X001675Y004214D01*
X001653Y004170D01*
X001653Y004161D01*
X001649Y004152D01*
X001649Y004103D01*
X001649Y004097D01*
X001573Y004021D01*
X001573Y003812D01*
X001557Y003793D01*
X001557Y003795D02*
X001558Y003795D01*
X001557Y003893D02*
X001573Y003893D01*
X001573Y003992D02*
X001557Y003992D01*
X001488Y004090D02*
X001642Y004090D01*
X001663Y004189D02*
X001223Y004189D01*
X001135Y004287D02*
X001719Y004287D01*
X001695Y004386D02*
X001795Y004386D01*
X001795Y004484D02*
X001695Y004484D01*
X001669Y004386D02*
X001046Y004386D01*
X001036Y004484D02*
X001433Y004484D01*
X001333Y004583D02*
X001135Y004583D01*
X001195Y004681D02*
X001273Y004681D01*
X001236Y004780D02*
X001238Y004780D01*
X001695Y004780D02*
X001795Y004780D01*
X001795Y004681D02*
X001695Y004681D01*
X001695Y004583D02*
X001795Y004583D01*
X000798Y003795D02*
X000380Y003795D01*
X000380Y003893D02*
X000709Y003893D01*
X000620Y003992D02*
X000380Y003992D01*
X000380Y004090D02*
X000531Y004090D01*
X000471Y004189D02*
X000380Y004189D01*
X000380Y004287D02*
X000455Y004287D01*
X000455Y004386D02*
X000380Y004386D01*
X000380Y004484D02*
X000454Y004484D01*
X000380Y003696D02*
X000855Y003696D01*
X000855Y003598D02*
X000380Y003598D01*
X000380Y003499D02*
X000855Y003499D01*
X000855Y003401D02*
X000380Y003401D01*
X000380Y003302D02*
X000855Y003302D01*
X000840Y003204D02*
X000380Y003204D01*
X000380Y003105D02*
X000854Y003105D01*
X000907Y003007D02*
X000380Y003007D01*
X000380Y002908D02*
X001053Y002908D01*
X000990Y002743D02*
X000914Y002666D01*
X000914Y002607D01*
X000755Y002607D01*
X000648Y002563D01*
X000628Y002544D01*
X000592Y002529D01*
X000506Y002443D01*
X000460Y002331D01*
X000460Y002209D01*
X000506Y002097D01*
X000592Y002011D01*
X000704Y001965D01*
X000826Y001965D01*
X000914Y002002D01*
X000914Y001519D01*
X000990Y001443D01*
X001531Y001443D01*
X001607Y001519D01*
X001607Y002021D01*
X001568Y002060D01*
X001568Y002666D01*
X001492Y002743D01*
X000990Y002743D01*
X000959Y002711D02*
X000380Y002711D01*
X000380Y002613D02*
X000914Y002613D01*
X001237Y002908D02*
X001288Y002908D01*
X001352Y002810D02*
X000380Y002810D01*
X000380Y002514D02*
X000578Y002514D01*
X000495Y002416D02*
X000380Y002416D01*
X000380Y002317D02*
X000460Y002317D01*
X000460Y002219D02*
X000380Y002219D01*
X000380Y002120D02*
X000497Y002120D01*
X000582Y002022D02*
X000380Y002022D01*
X000380Y001923D02*
X000914Y001923D01*
X000914Y001825D02*
X000380Y001825D01*
X000380Y001726D02*
X000914Y001726D01*
X000914Y001628D02*
X000380Y001628D01*
X000380Y001529D02*
X000914Y001529D01*
X001184Y001135D02*
X001555Y001135D01*
X001695Y001135D02*
X001795Y001135D01*
X001795Y001037D02*
X001695Y001037D01*
X001695Y000938D02*
X001795Y000938D01*
X001795Y000840D02*
X001695Y000840D01*
X001695Y000741D02*
X001795Y000741D01*
X001396Y001037D02*
X001245Y001037D01*
X001245Y000938D02*
X001311Y000938D01*
X001260Y000840D02*
X001245Y000840D01*
X001773Y001332D02*
X000380Y001332D01*
X000380Y001431D02*
X001689Y001431D01*
X001623Y001529D02*
X001607Y001529D01*
X001607Y001628D02*
X001623Y001628D01*
X001623Y001726D02*
X001607Y001726D01*
X001607Y001825D02*
X001623Y001825D01*
X001623Y001923D02*
X001607Y001923D01*
X001606Y002022D02*
X001624Y002022D01*
X001662Y002120D02*
X001568Y002120D01*
X001568Y002219D02*
X001662Y002219D01*
X001662Y002317D02*
X001568Y002317D01*
X001568Y002416D02*
X001662Y002416D01*
X001662Y002514D02*
X001568Y002514D01*
X001568Y002613D02*
X001662Y002613D01*
X001707Y002711D02*
X001523Y002711D01*
X002477Y002908D02*
X002588Y002908D01*
X002823Y002711D02*
X003007Y002711D01*
X002962Y002613D02*
X002868Y002613D01*
X002868Y002514D02*
X002962Y002514D01*
X002962Y002416D02*
X002868Y002416D01*
X002868Y002317D02*
X002962Y002317D01*
X002962Y002219D02*
X002868Y002219D01*
X002868Y002120D02*
X002962Y002120D01*
X002924Y002022D02*
X002906Y002022D01*
X002907Y001923D02*
X002923Y001923D01*
X002923Y001825D02*
X002907Y001825D01*
X001970Y001135D02*
X001935Y001135D01*
X001871Y001234D02*
X000380Y001234D01*
M02*
