G75*
%MOIN*%
%OFA0B0*%
%FSLAX24Y24*%
%IPPOS*%
%LPD*%
%AMOC8*
5,1,8,0,0,1.08239X$1,22.5*
%
%ADD10C,0.0010*%
%ADD11R,0.0394X0.0551*%
%ADD12R,0.0433X0.0394*%
%ADD13R,0.0740X0.0740*%
%ADD14C,0.0740*%
%ADD15C,0.0320*%
%ADD16C,0.0240*%
%ADD17C,0.0300*%
%ADD18C,0.0120*%
%ADD19C,0.0100*%
%ADD20C,0.0350*%
D10*
X000175Y000400D02*
X000175Y005400D01*
X000177Y005430D01*
X000182Y005460D01*
X000191Y005489D01*
X000204Y005516D01*
X000219Y005542D01*
X000238Y005566D01*
X000259Y005587D01*
X000283Y005606D01*
X000309Y005621D01*
X000336Y005634D01*
X000365Y005643D01*
X000395Y005648D01*
X000425Y005650D01*
X005925Y005650D01*
X005955Y005648D01*
X005985Y005643D01*
X006014Y005634D01*
X006041Y005621D01*
X006067Y005606D01*
X006091Y005587D01*
X006112Y005566D01*
X006131Y005542D01*
X006146Y005516D01*
X006159Y005489D01*
X006168Y005460D01*
X006173Y005430D01*
X006175Y005400D01*
X006175Y000400D01*
X006173Y000370D01*
X006168Y000340D01*
X006159Y000311D01*
X006146Y000284D01*
X006131Y000258D01*
X006112Y000234D01*
X006091Y000213D01*
X006067Y000194D01*
X006041Y000179D01*
X006014Y000166D01*
X005985Y000157D01*
X005955Y000152D01*
X005925Y000150D01*
X000425Y000150D01*
X000395Y000152D01*
X000365Y000157D01*
X000336Y000166D01*
X000309Y000179D01*
X000283Y000194D01*
X000259Y000213D01*
X000238Y000234D01*
X000219Y000258D01*
X000204Y000284D01*
X000191Y000311D01*
X000182Y000340D01*
X000177Y000370D01*
X000175Y000400D01*
D11*
X001301Y002467D03*
X002049Y002467D03*
X002551Y002467D03*
X003299Y002467D03*
X003801Y002467D03*
X004549Y002467D03*
X005051Y002467D03*
X005799Y002467D03*
X005425Y003333D03*
X004175Y003333D03*
X002925Y003333D03*
X001675Y003333D03*
D12*
X001321Y003900D03*
X002029Y003900D03*
X002571Y003900D03*
X003279Y003900D03*
X003821Y003900D03*
X004529Y003900D03*
X005071Y003900D03*
X005779Y003900D03*
X005779Y001900D03*
X005071Y001900D03*
X004529Y001900D03*
X003821Y001900D03*
X003279Y001900D03*
X002571Y001900D03*
X002029Y001900D03*
X001321Y001900D03*
D13*
X000675Y000650D03*
D14*
X001675Y000650D03*
X002675Y000650D03*
X003675Y000650D03*
X004675Y000650D03*
X005675Y000650D03*
X005675Y005150D03*
X004675Y005150D03*
X003675Y005150D03*
X002675Y005150D03*
X001675Y005150D03*
X000675Y005150D03*
D15*
X000675Y004546D01*
X001321Y003900D01*
X001675Y003333D02*
X001758Y003333D01*
X002049Y002467D02*
X002049Y001900D01*
X002029Y001900D01*
X002551Y001900D02*
X002571Y001900D01*
X003279Y001900D02*
X003299Y001900D01*
X003299Y002467D01*
X003801Y002467D02*
X003801Y001900D01*
X003821Y001900D01*
X004529Y001900D02*
X004549Y001900D01*
X004549Y002467D01*
X005051Y002467D02*
X005051Y001900D01*
X005071Y001900D01*
X005779Y001900D02*
X005799Y001900D01*
X005799Y002467D01*
X005425Y003333D02*
X005425Y003450D01*
X005760Y003785D01*
X005779Y003900D01*
X004529Y003900D02*
X004425Y003815D01*
X004425Y003500D01*
X004258Y003333D01*
X004175Y003333D01*
X003625Y003400D02*
X003575Y003400D01*
X003125Y003500D02*
X002958Y003333D01*
X002925Y003333D01*
X003125Y003500D02*
X003125Y003765D01*
X003279Y003900D01*
X001301Y002467D02*
X001301Y001900D01*
X001321Y001900D01*
X000675Y001235D01*
X000675Y000650D01*
X000675Y005150D02*
X000675Y005160D01*
D16*
X002029Y004514D02*
X002029Y003900D01*
X002029Y004514D02*
X002675Y005150D01*
X003279Y004764D02*
X003675Y005150D01*
X003279Y004764D02*
X003279Y003900D01*
X004529Y003900D02*
X004529Y005014D01*
X004675Y005150D01*
X005675Y005150D02*
X005779Y005116D01*
X005779Y003900D01*
X005799Y001900D02*
X005799Y000774D01*
X005675Y000650D01*
X004675Y000650D02*
X004549Y000776D01*
X004549Y001900D01*
X003299Y001900D02*
X003299Y001026D01*
X003675Y000650D01*
X002675Y000650D02*
X002049Y001276D01*
X002049Y001900D01*
D17*
X001758Y003333D02*
X001875Y003450D01*
X001875Y003765D01*
X002029Y003900D01*
X002485Y003785D02*
X002485Y003550D01*
X002325Y003400D01*
X002485Y003785D02*
X002571Y003900D01*
X003625Y003400D02*
X003735Y003500D01*
X003735Y003785D01*
X003821Y003900D01*
X004875Y003400D02*
X004985Y003510D01*
X004985Y003795D01*
X005071Y003900D01*
D18*
X004925Y002900D02*
X005051Y002774D01*
X005051Y002524D01*
X004925Y002900D02*
X003675Y002900D01*
X003801Y002774D01*
X003801Y002467D01*
X003675Y002900D02*
X002675Y002900D01*
X002551Y002776D01*
X002551Y002467D01*
X002551Y001900D01*
X002675Y002900D02*
X001734Y002900D01*
X001301Y002467D01*
D19*
X001628Y002514D02*
X001722Y002514D01*
X001628Y002525D02*
X001722Y002619D01*
X001722Y002190D01*
X001683Y002151D01*
X001683Y001649D01*
X001759Y001573D01*
X001799Y001573D01*
X001799Y001226D01*
X001837Y001134D01*
X001855Y001117D01*
X001774Y001150D01*
X001576Y001150D01*
X001392Y001074D01*
X001251Y000933D01*
X001175Y000749D01*
X001175Y000551D01*
X001251Y000367D01*
X001333Y000285D01*
X001175Y000285D01*
X001175Y001074D01*
X001099Y001150D01*
X000997Y001150D01*
X001408Y001573D01*
X001591Y001573D01*
X001667Y001649D01*
X001667Y002151D01*
X001628Y002190D01*
X001628Y002525D01*
X001628Y002416D02*
X001722Y002416D01*
X001722Y002317D02*
X001628Y002317D01*
X001628Y002219D02*
X001722Y002219D01*
X001683Y002120D02*
X001667Y002120D01*
X001667Y002022D02*
X001683Y002022D01*
X001683Y001923D02*
X001667Y001923D01*
X001667Y001825D02*
X001683Y001825D01*
X001683Y001726D02*
X001667Y001726D01*
X001645Y001628D02*
X001705Y001628D01*
X001799Y001529D02*
X001365Y001529D01*
X001269Y001431D02*
X001799Y001431D01*
X001799Y001332D02*
X001174Y001332D01*
X001078Y001234D02*
X001799Y001234D01*
X001811Y001135D02*
X001837Y001135D01*
X001539Y001135D02*
X001114Y001135D01*
X001175Y001037D02*
X001354Y001037D01*
X001256Y000938D02*
X001175Y000938D01*
X001175Y000840D02*
X001212Y000840D01*
X001175Y000741D02*
X001175Y000741D01*
X001175Y000643D02*
X001175Y000643D01*
X001175Y000544D02*
X001178Y000544D01*
X001175Y000446D02*
X001219Y000446D01*
X001175Y000347D02*
X001271Y000347D01*
X002017Y000285D02*
X002099Y000367D01*
X002175Y000551D01*
X002175Y000749D01*
X002189Y000783D01*
X002142Y000830D01*
X002175Y000749D01*
X002175Y000551D01*
X002251Y000367D01*
X002333Y000285D01*
X002017Y000285D01*
X002079Y000347D02*
X002271Y000347D01*
X002219Y000446D02*
X002131Y000446D01*
X002172Y000544D02*
X002178Y000544D01*
X002175Y000643D02*
X002175Y000643D01*
X002175Y000741D02*
X002175Y000741D01*
X002542Y001136D02*
X002299Y001380D01*
X002299Y001573D01*
X002300Y001573D01*
X002841Y001573D01*
X002917Y001649D01*
X002917Y002151D01*
X002878Y002190D01*
X002878Y002710D01*
X002972Y002710D01*
X002972Y002190D01*
X002933Y002151D01*
X002933Y001649D01*
X003009Y001573D01*
X003049Y001573D01*
X003049Y000983D01*
X002958Y001074D01*
X002774Y001150D01*
X002576Y001150D01*
X002542Y001136D01*
X002445Y001234D02*
X003049Y001234D01*
X003049Y001332D02*
X002347Y001332D01*
X002299Y001431D02*
X003049Y001431D01*
X003049Y001529D02*
X002299Y001529D01*
X002300Y001573D02*
X002300Y001573D01*
X002300Y001573D01*
X002811Y001135D02*
X003049Y001135D01*
X003049Y001037D02*
X002996Y001037D01*
X003142Y000830D02*
X003189Y000783D01*
X003175Y000749D01*
X003142Y000830D01*
X003175Y000749D02*
X003175Y000551D01*
X003099Y000367D01*
X003017Y000285D01*
X003333Y000285D01*
X003251Y000367D01*
X003175Y000551D01*
X003175Y000749D01*
X003175Y000741D02*
X003175Y000741D01*
X003175Y000643D02*
X003175Y000643D01*
X003172Y000544D02*
X003178Y000544D01*
X003219Y000446D02*
X003131Y000446D01*
X003079Y000347D02*
X003271Y000347D01*
X004017Y000285D02*
X004099Y000367D01*
X004175Y000551D01*
X004175Y000749D01*
X004099Y000933D01*
X003958Y001074D01*
X003774Y001150D01*
X003576Y001150D01*
X003549Y001139D01*
X003549Y001573D01*
X003550Y001573D01*
X004091Y001573D01*
X004167Y001649D01*
X004167Y002151D01*
X004128Y002190D01*
X004128Y002710D01*
X004222Y002710D01*
X004222Y002190D01*
X004183Y002151D01*
X004183Y001649D01*
X004259Y001573D01*
X004299Y001573D01*
X004299Y000981D01*
X004251Y000933D01*
X004175Y000749D01*
X004175Y000551D01*
X004251Y000367D01*
X004333Y000285D01*
X004017Y000285D01*
X004079Y000347D02*
X004271Y000347D01*
X004219Y000446D02*
X004131Y000446D01*
X004172Y000544D02*
X004178Y000544D01*
X004175Y000643D02*
X004175Y000643D01*
X004175Y000741D02*
X004175Y000741D01*
X004138Y000840D02*
X004212Y000840D01*
X004256Y000938D02*
X004094Y000938D01*
X003996Y001037D02*
X004299Y001037D01*
X004299Y001135D02*
X003811Y001135D01*
X003549Y001234D02*
X004299Y001234D01*
X004299Y001332D02*
X003549Y001332D01*
X003549Y001431D02*
X004299Y001431D01*
X004299Y001529D02*
X003549Y001529D01*
X003550Y001573D02*
X003550Y001573D01*
X003550Y001573D01*
X004145Y001628D02*
X004205Y001628D01*
X004183Y001726D02*
X004167Y001726D01*
X004167Y001825D02*
X004183Y001825D01*
X004183Y001923D02*
X004167Y001923D01*
X004167Y002022D02*
X004183Y002022D01*
X004183Y002120D02*
X004167Y002120D01*
X004128Y002219D02*
X004222Y002219D01*
X004222Y002317D02*
X004128Y002317D01*
X004128Y002416D02*
X004222Y002416D01*
X004222Y002514D02*
X004128Y002514D01*
X004128Y002613D02*
X004222Y002613D01*
X004502Y003090D02*
X004502Y003167D01*
X004504Y003169D01*
X004601Y003265D01*
X004616Y003227D01*
X004702Y003141D01*
X004814Y003095D01*
X004936Y003095D01*
X005048Y003141D01*
X005098Y003192D01*
X005098Y003004D01*
X005174Y002927D01*
X005676Y002927D01*
X005752Y003004D01*
X005752Y003367D01*
X005947Y003562D01*
X005963Y003573D01*
X006040Y003573D01*
X006040Y002873D01*
X005548Y002873D01*
X005472Y002796D01*
X005472Y002190D01*
X005433Y002151D01*
X005433Y001649D01*
X005509Y001573D01*
X005549Y001573D01*
X005549Y001139D01*
X005392Y001074D01*
X005251Y000933D01*
X005175Y000749D01*
X005099Y000933D01*
X004958Y001074D01*
X004799Y001140D01*
X004799Y001573D01*
X004800Y001573D01*
X005341Y001573D01*
X005417Y001649D01*
X005417Y002151D01*
X005378Y002190D01*
X005378Y002796D01*
X005302Y002873D01*
X005221Y002873D01*
X005004Y003090D01*
X004502Y003090D01*
X004502Y003105D02*
X004790Y003105D01*
X004640Y003204D02*
X004539Y003204D01*
X004960Y003105D02*
X005098Y003105D01*
X005087Y003007D02*
X005098Y003007D01*
X005186Y002908D02*
X006040Y002908D01*
X006040Y003007D02*
X005752Y003007D01*
X005752Y003105D02*
X006040Y003105D01*
X006040Y003204D02*
X005752Y003204D01*
X005752Y003302D02*
X006040Y003302D01*
X006040Y003401D02*
X005786Y003401D01*
X005884Y003499D02*
X006040Y003499D01*
X005433Y003868D02*
X005417Y003852D01*
X005417Y004151D01*
X005341Y004227D01*
X004800Y004227D01*
X004800Y004227D01*
X004779Y004227D01*
X004779Y004652D01*
X004958Y004726D01*
X005099Y004867D01*
X005175Y005051D01*
X005251Y004867D01*
X005392Y004726D01*
X005529Y004669D01*
X005529Y004227D01*
X005509Y004227D01*
X005433Y004151D01*
X005433Y003868D01*
X005433Y003893D02*
X005417Y003893D01*
X005417Y003992D02*
X005433Y003992D01*
X005433Y004090D02*
X005417Y004090D01*
X005379Y004189D02*
X005471Y004189D01*
X005529Y004287D02*
X004779Y004287D01*
X004800Y004227D02*
X004800Y004227D01*
X004779Y004386D02*
X005529Y004386D01*
X005529Y004484D02*
X004779Y004484D01*
X004779Y004583D02*
X005529Y004583D01*
X005501Y004681D02*
X004849Y004681D01*
X005012Y004780D02*
X005338Y004780D01*
X005246Y004878D02*
X005104Y004878D01*
X005144Y004977D02*
X005206Y004977D01*
X005175Y005051D02*
X005175Y005249D01*
X005251Y005433D01*
X005333Y005515D01*
X005017Y005515D01*
X005099Y005433D01*
X005175Y005249D01*
X005175Y005051D01*
X005175Y005075D02*
X005175Y005075D01*
X005175Y005174D02*
X005175Y005174D01*
X005166Y005272D02*
X005184Y005272D01*
X005225Y005371D02*
X005125Y005371D01*
X005063Y005469D02*
X005287Y005469D01*
X006029Y004797D02*
X006040Y004808D01*
X006040Y004227D01*
X006029Y004227D01*
X006029Y004797D01*
X006029Y004780D02*
X006040Y004780D01*
X006029Y004681D02*
X006040Y004681D01*
X006029Y004583D02*
X006040Y004583D01*
X006029Y004484D02*
X006040Y004484D01*
X006029Y004386D02*
X006040Y004386D01*
X006029Y004287D02*
X006040Y004287D01*
X005485Y002810D02*
X005365Y002810D01*
X005378Y002711D02*
X005472Y002711D01*
X005472Y002613D02*
X005378Y002613D01*
X005378Y002514D02*
X005472Y002514D01*
X005472Y002416D02*
X005378Y002416D01*
X005378Y002317D02*
X005472Y002317D01*
X005472Y002219D02*
X005378Y002219D01*
X005417Y002120D02*
X005433Y002120D01*
X005433Y002022D02*
X005417Y002022D01*
X005417Y001923D02*
X005433Y001923D01*
X005433Y001825D02*
X005417Y001825D01*
X005417Y001726D02*
X005433Y001726D01*
X005455Y001628D02*
X005395Y001628D01*
X005549Y001529D02*
X004799Y001529D01*
X004800Y001573D02*
X004800Y001573D01*
X004800Y001573D01*
X004799Y001431D02*
X005549Y001431D01*
X005549Y001332D02*
X004799Y001332D01*
X004799Y001234D02*
X005549Y001234D01*
X005539Y001135D02*
X004811Y001135D01*
X004996Y001037D02*
X005354Y001037D01*
X005256Y000938D02*
X005094Y000938D01*
X005138Y000840D02*
X005212Y000840D01*
X005175Y000749D02*
X005175Y000551D01*
X005175Y000749D01*
X005175Y000741D02*
X005175Y000741D01*
X005175Y000643D02*
X005175Y000643D01*
X005175Y000551D02*
X005099Y000367D01*
X005017Y000285D01*
X005333Y000285D01*
X005251Y000367D01*
X005175Y000551D01*
X005172Y000544D02*
X005178Y000544D01*
X005219Y000446D02*
X005131Y000446D01*
X005079Y000347D02*
X005271Y000347D01*
X005051Y001900D02*
X005051Y002524D01*
X003848Y003090D02*
X003252Y003090D01*
X003252Y003217D01*
X003301Y003265D01*
X003316Y003227D01*
X003402Y003141D01*
X003514Y003095D01*
X003636Y003095D01*
X003672Y003110D01*
X003683Y003110D01*
X003789Y003154D01*
X003848Y003213D01*
X003848Y003090D01*
X003848Y003105D02*
X003660Y003105D01*
X003490Y003105D02*
X003252Y003105D01*
X003252Y003204D02*
X003340Y003204D01*
X003839Y003204D02*
X003848Y003204D01*
X004167Y003951D02*
X004167Y004151D01*
X004091Y004227D01*
X003550Y004227D01*
X003550Y004227D01*
X003529Y004227D01*
X003529Y004659D01*
X003537Y004666D01*
X003576Y004650D01*
X003774Y004650D01*
X003958Y004726D01*
X004099Y004867D01*
X004175Y005051D01*
X004251Y004867D01*
X004279Y004839D01*
X004279Y004227D01*
X004259Y004227D01*
X004183Y004151D01*
X004183Y003983D01*
X004179Y003980D01*
X004167Y003951D01*
X004167Y003992D02*
X004183Y003992D01*
X004183Y004090D02*
X004167Y004090D01*
X004129Y004189D02*
X004221Y004189D01*
X004279Y004287D02*
X003529Y004287D01*
X003550Y004227D02*
X003550Y004227D01*
X003529Y004386D02*
X004279Y004386D01*
X004279Y004484D02*
X003529Y004484D01*
X003529Y004583D02*
X004279Y004583D01*
X004279Y004681D02*
X003849Y004681D01*
X004012Y004780D02*
X004279Y004780D01*
X004246Y004878D02*
X004104Y004878D01*
X004144Y004977D02*
X004206Y004977D01*
X004175Y005051D02*
X004175Y005249D01*
X004251Y005433D01*
X004333Y005515D01*
X004017Y005515D01*
X004099Y005433D01*
X004175Y005249D01*
X004175Y005051D01*
X004175Y005075D02*
X004175Y005075D01*
X004175Y005174D02*
X004175Y005174D01*
X004166Y005272D02*
X004184Y005272D01*
X004225Y005371D02*
X004125Y005371D01*
X004063Y005469D02*
X004287Y005469D01*
X003333Y005515D02*
X003251Y005433D01*
X003175Y005249D01*
X003175Y005051D01*
X003148Y004985D01*
X003186Y005023D01*
X003175Y005051D01*
X003175Y005249D01*
X003099Y005433D01*
X003017Y005515D01*
X003333Y005515D01*
X003287Y005469D02*
X003063Y005469D01*
X003125Y005371D02*
X003225Y005371D01*
X003184Y005272D02*
X003166Y005272D01*
X003175Y005174D02*
X003175Y005174D01*
X003175Y005075D02*
X003175Y005075D01*
X003029Y004797D02*
X003029Y004766D01*
X003029Y004718D01*
X003029Y004716D01*
X003029Y004227D01*
X003009Y004227D01*
X002933Y004151D01*
X002933Y003983D01*
X002927Y003977D01*
X002917Y003969D01*
X002917Y004151D01*
X002841Y004227D01*
X002300Y004227D01*
X002300Y004227D01*
X002279Y004227D01*
X002279Y004410D01*
X002539Y004665D01*
X002576Y004650D01*
X002774Y004650D01*
X002958Y004726D01*
X003029Y004797D01*
X003029Y004780D02*
X003012Y004780D01*
X003029Y004681D02*
X002849Y004681D01*
X003029Y004583D02*
X002455Y004583D01*
X002355Y004484D02*
X003029Y004484D01*
X003029Y004386D02*
X002279Y004386D01*
X002279Y004287D02*
X003029Y004287D01*
X002971Y004189D02*
X002879Y004189D01*
X002917Y004090D02*
X002933Y004090D01*
X002933Y003992D02*
X002917Y003992D01*
X002300Y004227D02*
X002300Y004227D01*
X001779Y004227D02*
X001759Y004227D01*
X001683Y004151D01*
X001683Y003969D01*
X001667Y003956D01*
X001667Y004151D01*
X001591Y004227D01*
X001404Y004227D01*
X000965Y004666D01*
X000965Y004733D01*
X001099Y004867D01*
X001175Y005051D01*
X001251Y004867D01*
X001392Y004726D01*
X001576Y004650D01*
X001774Y004650D01*
X001837Y004676D01*
X001819Y004658D01*
X001818Y004657D01*
X001817Y004656D01*
X001799Y004611D01*
X001780Y004566D01*
X001780Y004565D01*
X001779Y004564D01*
X001779Y004515D01*
X001779Y004467D01*
X001779Y004466D01*
X001779Y004227D01*
X001779Y004287D02*
X001344Y004287D01*
X001245Y004386D02*
X001779Y004386D01*
X001779Y004484D02*
X001147Y004484D01*
X001048Y004583D02*
X001787Y004583D01*
X001501Y004681D02*
X000965Y004681D01*
X001012Y004780D02*
X001338Y004780D01*
X001246Y004878D02*
X001104Y004878D01*
X001144Y004977D02*
X001206Y004977D01*
X001175Y005051D02*
X001175Y005249D01*
X001251Y005433D01*
X001333Y005515D01*
X001017Y005515D01*
X001099Y005433D01*
X001175Y005249D01*
X001175Y005051D01*
X001175Y005075D02*
X001175Y005075D01*
X001175Y005174D02*
X001175Y005174D01*
X001166Y005272D02*
X001184Y005272D01*
X001225Y005371D02*
X001125Y005371D01*
X001063Y005469D02*
X001287Y005469D01*
X002017Y005515D02*
X002333Y005515D01*
X002251Y005433D01*
X002175Y005249D01*
X002175Y005051D01*
X002146Y004980D01*
X002187Y005021D01*
X002175Y005051D01*
X002175Y005249D01*
X002099Y005433D01*
X002017Y005515D01*
X002063Y005469D02*
X002287Y005469D01*
X002225Y005371D02*
X002125Y005371D01*
X002166Y005272D02*
X002184Y005272D01*
X002175Y005174D02*
X002175Y005174D01*
X002175Y005075D02*
X002175Y005075D01*
X001721Y004189D02*
X001629Y004189D01*
X001667Y004090D02*
X001683Y004090D01*
X001683Y003992D02*
X001667Y003992D01*
X001348Y003573D02*
X001348Y003004D01*
X001424Y002927D01*
X001493Y002927D01*
X001438Y002873D01*
X001050Y002873D01*
X000974Y002796D01*
X000974Y001959D01*
X000468Y001438D01*
X000429Y001399D01*
X000428Y001397D01*
X000427Y001395D01*
X000406Y001344D01*
X000385Y001292D01*
X000385Y001290D01*
X000384Y001288D01*
X000385Y001232D01*
X000385Y001150D01*
X000310Y001150D01*
X000310Y004808D01*
X000385Y004733D01*
X000385Y004488D01*
X000429Y004381D01*
X000974Y003836D01*
X000974Y003649D01*
X001050Y003573D01*
X001348Y003573D01*
X001348Y003499D02*
X000310Y003499D01*
X000310Y003401D02*
X001348Y003401D01*
X001348Y003302D02*
X000310Y003302D01*
X000310Y003204D02*
X001348Y003204D01*
X001348Y003105D02*
X000310Y003105D01*
X000310Y003007D02*
X001348Y003007D01*
X001473Y002908D02*
X000310Y002908D01*
X000310Y002810D02*
X000987Y002810D01*
X000974Y002711D02*
X000310Y002711D01*
X000310Y002613D02*
X000974Y002613D01*
X000974Y002514D02*
X000310Y002514D01*
X000310Y002416D02*
X000974Y002416D01*
X000974Y002317D02*
X000310Y002317D01*
X000310Y002219D02*
X000974Y002219D01*
X000974Y002120D02*
X000310Y002120D01*
X000310Y002022D02*
X000974Y002022D01*
X000939Y001923D02*
X000310Y001923D01*
X000310Y001825D02*
X000843Y001825D01*
X000748Y001726D02*
X000310Y001726D01*
X000310Y001628D02*
X000652Y001628D01*
X000557Y001529D02*
X000310Y001529D01*
X000310Y001431D02*
X000461Y001431D01*
X000401Y001332D02*
X000310Y001332D01*
X000310Y001234D02*
X000385Y001234D01*
X001715Y002613D02*
X001722Y002613D01*
X002002Y003090D02*
X002002Y003167D01*
X002004Y003169D01*
X002014Y003193D01*
X002061Y003240D01*
X002066Y003227D01*
X002152Y003141D01*
X002264Y003095D01*
X002386Y003095D01*
X002498Y003141D01*
X002584Y003227D01*
X002598Y003262D01*
X002598Y003090D01*
X002002Y003090D01*
X002002Y003105D02*
X002240Y003105D01*
X002090Y003204D02*
X002024Y003204D01*
X002410Y003105D02*
X002598Y003105D01*
X002598Y003204D02*
X002560Y003204D01*
X002878Y002613D02*
X002972Y002613D01*
X002972Y002514D02*
X002878Y002514D01*
X002878Y002416D02*
X002972Y002416D01*
X002972Y002317D02*
X002878Y002317D01*
X002878Y002219D02*
X002972Y002219D01*
X002933Y002120D02*
X002917Y002120D01*
X002917Y002022D02*
X002933Y002022D01*
X002933Y001923D02*
X002917Y001923D01*
X002917Y001825D02*
X002933Y001825D01*
X002933Y001726D02*
X002917Y001726D01*
X002895Y001628D02*
X002955Y001628D01*
X001026Y003598D02*
X000310Y003598D01*
X000310Y003696D02*
X000974Y003696D01*
X000974Y003795D02*
X000310Y003795D01*
X000310Y003893D02*
X000918Y003893D01*
X000819Y003992D02*
X000310Y003992D01*
X000310Y004090D02*
X000721Y004090D01*
X000622Y004189D02*
X000310Y004189D01*
X000310Y004287D02*
X000524Y004287D01*
X000427Y004386D02*
X000310Y004386D01*
X000310Y004484D02*
X000387Y004484D01*
X000385Y004583D02*
X000310Y004583D01*
X000310Y004681D02*
X000385Y004681D01*
X000338Y004780D02*
X000310Y004780D01*
D20*
X002325Y003400D03*
X003575Y003400D03*
X004875Y003400D03*
M02*
