G75*
%MOIN*%
%OFA0B0*%
%FSLAX24Y24*%
%IPPOS*%
%LPD*%
%AMOC8*
5,1,8,0,0,1.08239X$1,22.5*
%
%ADD10C,0.0040*%
%ADD11C,0.0020*%
%ADD12C,0.0030*%
%ADD13C,0.0060*%
%ADD14R,0.0180X0.0300*%
%ADD15C,0.0080*%
D10*
X000440Y001233D02*
X000560Y001353D01*
X000560Y001593D01*
X000688Y001473D02*
X000808Y001593D01*
X000929Y001473D01*
X000929Y001233D01*
X000929Y001413D02*
X000688Y001413D01*
X000688Y001473D02*
X000688Y001233D01*
X000440Y001233D02*
X000320Y001353D01*
X000320Y001593D01*
X001195Y001533D02*
X001195Y001293D01*
X001255Y001233D01*
X001375Y001233D01*
X001435Y001293D01*
X001435Y001413D01*
X001315Y001413D01*
X001195Y001533D02*
X001255Y001593D01*
X001375Y001593D01*
X001435Y001533D01*
X001563Y001593D02*
X001804Y001233D01*
X001804Y001593D01*
X001932Y001593D02*
X002112Y001593D01*
X002172Y001533D01*
X002172Y001293D01*
X002112Y001233D01*
X001932Y001233D01*
X001932Y001593D01*
X001563Y001593D02*
X001563Y001233D01*
X002383Y001233D02*
X002383Y001473D01*
X002503Y001593D01*
X002623Y001473D01*
X002623Y001233D01*
X002751Y001233D02*
X002991Y001233D01*
X002871Y001233D02*
X002871Y001593D01*
X002751Y001473D01*
X002623Y001413D02*
X002383Y001413D01*
X003383Y001413D02*
X003623Y001413D01*
X003623Y001473D02*
X003623Y001233D01*
X003751Y001233D02*
X003991Y001473D01*
X003991Y001533D01*
X003931Y001593D01*
X003811Y001593D01*
X003751Y001533D01*
X003623Y001473D02*
X003503Y001593D01*
X003383Y001473D01*
X003383Y001233D01*
X003751Y001233D02*
X003991Y001233D01*
X004383Y001233D02*
X004383Y001473D01*
X004503Y001593D01*
X004623Y001473D01*
X004623Y001233D01*
X004751Y001293D02*
X004811Y001233D01*
X004931Y001233D01*
X004991Y001293D01*
X004991Y001353D01*
X004931Y001413D01*
X004871Y001413D01*
X004931Y001413D02*
X004991Y001473D01*
X004991Y001533D01*
X004931Y001593D01*
X004811Y001593D01*
X004751Y001533D01*
X004623Y001413D02*
X004383Y001413D01*
X005383Y001413D02*
X005623Y001413D01*
X005623Y001473D02*
X005623Y001233D01*
X005751Y001413D02*
X005991Y001413D01*
X005931Y001233D02*
X005931Y001593D01*
X005751Y001413D01*
X005623Y001473D02*
X005503Y001593D01*
X005383Y001473D01*
X005383Y001233D01*
X005419Y004207D02*
X005599Y004387D01*
X005359Y004387D01*
X005419Y004207D02*
X005419Y004568D01*
X005727Y004507D02*
X005727Y004447D01*
X005787Y004387D01*
X005968Y004387D01*
X005968Y004207D02*
X005787Y004207D01*
X005727Y004267D01*
X005727Y004327D01*
X005787Y004387D01*
X005727Y004507D02*
X005787Y004568D01*
X005968Y004568D01*
X005968Y004207D01*
X004968Y004207D02*
X004787Y004207D01*
X004727Y004267D01*
X004727Y004327D01*
X004787Y004387D01*
X004968Y004387D01*
X004968Y004207D02*
X004968Y004568D01*
X004787Y004568D01*
X004727Y004507D01*
X004727Y004447D01*
X004787Y004387D01*
X004599Y004267D02*
X004539Y004207D01*
X004419Y004207D01*
X004359Y004267D01*
X004359Y004327D01*
X004419Y004387D01*
X004359Y004447D01*
X004359Y004507D01*
X004419Y004568D01*
X004539Y004568D01*
X004599Y004507D01*
X004479Y004387D02*
X004419Y004387D01*
X003968Y004387D02*
X003787Y004387D01*
X003727Y004447D01*
X003727Y004507D01*
X003787Y004568D01*
X003968Y004568D01*
X003968Y004207D01*
X003787Y004207D01*
X003727Y004267D01*
X003727Y004327D01*
X003787Y004387D01*
X003599Y004267D02*
X003539Y004207D01*
X003419Y004207D01*
X003359Y004267D01*
X003359Y004327D01*
X003599Y004568D01*
X003359Y004568D01*
X002968Y004568D02*
X002968Y004207D01*
X002787Y004207D01*
X002727Y004267D01*
X002727Y004327D01*
X002787Y004387D01*
X002968Y004387D01*
X002787Y004387D02*
X002727Y004447D01*
X002727Y004507D01*
X002787Y004568D01*
X002968Y004568D01*
X002599Y004568D02*
X002359Y004568D01*
X002479Y004568D02*
X002479Y004207D01*
X002599Y004327D01*
X002155Y004267D02*
X002155Y004507D01*
X002095Y004568D01*
X001975Y004568D01*
X001915Y004507D01*
X001915Y004387D01*
X002035Y004387D01*
X002155Y004267D02*
X002095Y004207D01*
X001975Y004207D01*
X001915Y004267D01*
X001787Y004207D02*
X001546Y004568D01*
X001546Y004207D01*
X001418Y004207D02*
X001238Y004207D01*
X001178Y004267D01*
X001178Y004507D01*
X001238Y004568D01*
X001418Y004568D01*
X001418Y004207D01*
X001787Y004207D02*
X001787Y004568D01*
X000968Y004447D02*
X000968Y004207D01*
X000968Y004447D02*
X000847Y004568D01*
X000727Y004447D01*
X000727Y004207D01*
X000599Y004207D02*
X000419Y004207D01*
X000359Y004267D01*
X000359Y004327D01*
X000419Y004387D01*
X000599Y004387D01*
X000599Y004207D02*
X000599Y004568D01*
X000419Y004568D01*
X000359Y004507D01*
X000359Y004447D01*
X000419Y004387D01*
D11*
X000881Y004128D02*
X000881Y004092D01*
X000954Y004018D01*
X000881Y004018D02*
X001028Y004018D01*
X000954Y003944D02*
X000954Y003797D01*
X000991Y003797D02*
X000917Y003797D01*
X000881Y003834D01*
X000881Y003907D01*
X000917Y003944D01*
X000954Y003944D01*
X001028Y003907D02*
X001028Y003834D01*
X000991Y003797D01*
X001028Y003723D02*
X000991Y003687D01*
X000844Y003687D01*
X000881Y003723D02*
X000881Y003650D01*
X000917Y003576D02*
X000917Y003503D01*
X000844Y003539D02*
X000807Y003576D01*
X000844Y003539D02*
X001028Y003539D01*
X001028Y003429D02*
X001028Y003355D01*
X001028Y003392D02*
X000881Y003392D01*
X000881Y003355D01*
X000917Y003281D02*
X001028Y003281D01*
X000917Y003281D02*
X000881Y003244D01*
X000881Y003171D01*
X000917Y003134D01*
X000954Y003060D02*
X000917Y003023D01*
X000917Y002950D01*
X000881Y002913D01*
X000844Y002913D01*
X000807Y002950D01*
X000807Y003023D01*
X000844Y003060D01*
X000807Y003134D02*
X001028Y003134D01*
X000991Y003060D02*
X001028Y003023D01*
X001028Y002950D01*
X000991Y002913D01*
X000991Y003060D02*
X000954Y003060D01*
X000807Y003392D02*
X000771Y003392D01*
X001468Y002928D02*
X001468Y002782D01*
X001505Y002745D01*
X001578Y002745D01*
X001615Y002782D01*
X001615Y002928D01*
X001578Y002965D01*
X001505Y002965D01*
X001468Y002928D01*
X001541Y002818D02*
X001615Y002745D01*
X001689Y002745D02*
X001836Y002745D01*
X001762Y002745D02*
X001762Y002965D01*
X001689Y002892D01*
X001028Y002618D02*
X001028Y002545D01*
X001028Y002582D02*
X000807Y002582D01*
X000807Y002545D01*
X000917Y002471D02*
X000881Y002434D01*
X000881Y002361D01*
X000917Y002324D01*
X000991Y002324D01*
X001028Y002361D01*
X001028Y002434D01*
X000954Y002471D02*
X000954Y002324D01*
X000881Y002250D02*
X001028Y002176D01*
X000881Y002103D01*
X000917Y002029D02*
X000881Y001992D01*
X000881Y001919D01*
X000917Y001882D01*
X000991Y001882D01*
X001028Y001919D01*
X001028Y001992D01*
X000954Y002029D02*
X000954Y001882D01*
X001028Y001808D02*
X001028Y001661D01*
X000807Y001661D01*
X000917Y002029D02*
X000954Y002029D01*
X000954Y002471D02*
X000917Y002471D01*
X002718Y002782D02*
X002755Y002745D01*
X002828Y002745D01*
X002865Y002782D01*
X002865Y002928D01*
X002828Y002965D01*
X002755Y002965D01*
X002718Y002928D01*
X002718Y002782D01*
X002791Y002818D02*
X002865Y002745D01*
X002939Y002745D02*
X003086Y002892D01*
X003086Y002928D01*
X003049Y002965D01*
X002976Y002965D01*
X002939Y002928D01*
X002939Y002745D02*
X003086Y002745D01*
X003968Y002782D02*
X004005Y002745D01*
X004078Y002745D01*
X004115Y002782D01*
X004115Y002928D01*
X004078Y002965D01*
X004005Y002965D01*
X003968Y002928D01*
X003968Y002782D01*
X004041Y002818D02*
X004115Y002745D01*
X004189Y002782D02*
X004226Y002745D01*
X004299Y002745D01*
X004336Y002782D01*
X004336Y002818D01*
X004299Y002855D01*
X004262Y002855D01*
X004299Y002855D02*
X004336Y002892D01*
X004336Y002928D01*
X004299Y002965D01*
X004226Y002965D01*
X004189Y002928D01*
X005218Y002928D02*
X005218Y002782D01*
X005255Y002745D01*
X005328Y002745D01*
X005365Y002782D01*
X005365Y002928D01*
X005328Y002965D01*
X005255Y002965D01*
X005218Y002928D01*
X005291Y002818D02*
X005365Y002745D01*
X005439Y002855D02*
X005586Y002855D01*
X005549Y002745D02*
X005549Y002965D01*
X005439Y002855D01*
D12*
X000585Y002573D02*
X000295Y002573D01*
X000295Y002379D02*
X000585Y002379D01*
X000488Y002476D01*
X000585Y002573D01*
X000537Y002278D02*
X000343Y002278D01*
X000295Y002230D01*
X000295Y002133D01*
X000343Y002085D01*
X000537Y002085D01*
X000585Y002133D01*
X000585Y002230D01*
X000537Y002278D01*
X000585Y001983D02*
X000585Y001790D01*
X000295Y001790D01*
X000295Y003678D02*
X000585Y003678D01*
X000440Y003678D02*
X000440Y003871D01*
X000295Y003871D02*
X000585Y003871D01*
X000585Y003972D02*
X000585Y004069D01*
X000585Y004021D02*
X000295Y004021D01*
X000295Y004069D02*
X000295Y003972D01*
D13*
X001115Y003160D02*
X001335Y003160D01*
X001115Y003160D02*
X001115Y002840D01*
X002015Y003160D02*
X002235Y003160D01*
X002235Y002840D01*
X002365Y002840D02*
X002365Y003160D01*
X002585Y003160D01*
X003265Y003160D02*
X003485Y003160D01*
X003485Y002840D01*
X003615Y002840D02*
X003615Y003160D01*
X003835Y003160D01*
X004515Y003160D02*
X004735Y003160D01*
X004735Y002840D01*
X004865Y002840D02*
X004865Y003160D01*
X005085Y003160D01*
X005765Y003160D02*
X005985Y003160D01*
X005985Y002840D01*
D14*
X005425Y001900D03*
X004175Y001900D03*
X002925Y001900D03*
X001675Y001900D03*
X001675Y003900D03*
X002925Y003900D03*
X004175Y003900D03*
X005425Y003900D03*
D15*
X000425Y000150D02*
X000175Y000400D01*
X000175Y000900D01*
X000425Y001150D01*
X000925Y001150D01*
X001175Y000900D01*
X001425Y001150D01*
X001925Y001150D01*
X002175Y000900D01*
X002425Y001150D01*
X002925Y001150D01*
X003175Y000900D01*
X003425Y001150D01*
X003925Y001150D01*
X004175Y000900D01*
X004425Y001150D01*
X004925Y001150D01*
X005175Y000900D01*
X005425Y001150D01*
X005925Y001150D01*
X006175Y000900D01*
X006175Y000400D01*
X005925Y000150D01*
X005425Y000150D01*
X005175Y000400D01*
X004925Y000150D01*
X004425Y000150D01*
X004175Y000400D01*
X003925Y000150D01*
X003425Y000150D01*
X003175Y000400D01*
X002925Y000150D01*
X002425Y000150D01*
X002175Y000400D01*
X001925Y000150D01*
X001425Y000150D01*
X001175Y000400D01*
X000925Y000150D01*
X000425Y000150D01*
X000425Y004650D02*
X000175Y004900D01*
X000175Y005400D01*
X000425Y005650D01*
X000925Y005650D01*
X001175Y005400D01*
X001425Y005650D01*
X001925Y005650D01*
X002175Y005400D01*
X002425Y005650D01*
X002925Y005650D01*
X003175Y005400D01*
X003425Y005650D01*
X003925Y005650D01*
X004175Y005400D01*
X004425Y005650D01*
X004925Y005650D01*
X005175Y005400D01*
X005425Y005650D01*
X005925Y005650D01*
X006175Y005400D01*
X006175Y004900D01*
X005925Y004650D01*
X005425Y004650D01*
X005175Y004900D01*
X004925Y004650D01*
X004425Y004650D01*
X004175Y004900D01*
X003925Y004650D01*
X003425Y004650D01*
X003175Y004900D01*
X002925Y004650D01*
X002425Y004650D01*
X002175Y004900D01*
X001925Y004650D01*
X001425Y004650D01*
X001175Y004900D01*
X000925Y004650D01*
X000425Y004650D01*
M02*
