G75*
%MOIN*%
%OFA0B0*%
%FSLAX24Y24*%
%IPPOS*%
%LPD*%
%AMOC8*
5,1,8,0,0,1.08239X$1,22.5*
%
%ADD10C,0.0030*%
%ADD11C,0.0020*%
%ADD12R,0.0337X0.0000*%
%ADD13R,0.0337X0.0000*%
%ADD14R,0.0344X0.0001*%
%ADD15R,0.0348X0.0000*%
%ADD16R,0.0347X0.0000*%
%ADD17R,0.0350X0.0000*%
%ADD18R,0.0350X0.0000*%
%ADD19R,0.0352X0.0001*%
%ADD20R,0.0355X0.0000*%
%ADD21R,0.0354X0.0000*%
%ADD22R,0.0356X0.0001*%
%ADD23R,0.0359X0.0000*%
%ADD24R,0.0360X0.0000*%
%ADD25R,0.0361X0.0001*%
%ADD26R,0.0363X0.0000*%
%ADD27R,0.0362X0.0000*%
%ADD28R,0.0365X0.0001*%
%ADD29R,0.0364X0.0001*%
%ADD30R,0.0365X0.0000*%
%ADD31R,0.0366X0.0000*%
%ADD32R,0.0366X0.0000*%
%ADD33R,0.0367X0.0001*%
%ADD34R,0.0369X0.0000*%
%ADD35R,0.0370X0.0001*%
%ADD36R,0.0369X0.0001*%
%ADD37R,0.0370X0.0000*%
%ADD38R,0.0371X0.0000*%
%ADD39R,0.0371X0.0000*%
%ADD40R,0.0372X0.0001*%
%ADD41R,0.0372X0.0001*%
%ADD42R,0.0373X0.0000*%
%ADD43R,0.0373X0.0000*%
%ADD44R,0.0374X0.0001*%
%ADD45R,0.0374X0.0001*%
%ADD46R,0.0375X0.0000*%
%ADD47R,0.0374X0.0000*%
%ADD48R,0.0375X0.0000*%
%ADD49R,0.0375X0.0000*%
%ADD50R,0.0375X0.0001*%
%ADD51R,0.0376X0.0001*%
%ADD52R,0.0376X0.0000*%
%ADD53R,0.0377X0.0001*%
%ADD54R,0.0376X0.0001*%
%ADD55R,0.0377X0.0000*%
%ADD56R,0.0378X0.0000*%
%ADD57R,0.0378X0.0000*%
%ADD58R,0.0379X0.0001*%
%ADD59R,0.0379X0.0000*%
%ADD60R,0.0379X0.0000*%
%ADD61R,0.0380X0.0001*%
%ADD62R,0.0379X0.0001*%
%ADD63R,0.0380X0.0000*%
%ADD64R,0.0379X0.0000*%
%ADD65R,0.0380X0.0000*%
%ADD66R,0.0380X0.0000*%
%ADD67R,0.0380X0.0001*%
%ADD68R,0.0381X0.0001*%
%ADD69R,0.0381X0.0000*%
%ADD70R,0.0381X0.0001*%
%ADD71R,0.0381X0.0001*%
%ADD72R,0.0381X0.0000*%
%ADD73R,0.0382X0.0001*%
%ADD74R,0.0381X0.0001*%
%ADD75R,0.0382X0.0000*%
%ADD76R,0.0382X0.0000*%
%ADD77R,0.0382X0.0001*%
%ADD78R,0.0382X0.0000*%
%ADD79R,0.0383X0.0000*%
%ADD80R,0.0383X0.0001*%
%ADD81R,0.0383X0.0001*%
%ADD82R,0.0383X0.0000*%
%ADD83R,0.0382X0.0001*%
%ADD84R,0.0379X0.0001*%
%ADD85R,0.0381X0.0000*%
%ADD86R,0.0378X0.0001*%
%ADD87R,0.0377X0.0000*%
%ADD88R,0.0376X0.0000*%
%ADD89R,0.0374X0.0000*%
%ADD90R,0.0377X0.0001*%
%ADD91R,0.0372X0.0000*%
%ADD92R,0.0371X0.0001*%
%ADD93R,0.0376X0.0001*%
%ADD94R,0.0371X0.0000*%
%ADD95R,0.0376X0.0000*%
%ADD96R,0.0370X0.0000*%
%ADD97R,0.0369X0.0001*%
%ADD98R,0.0374X0.0001*%
%ADD99R,0.0368X0.0000*%
%ADD100R,0.0374X0.0000*%
%ADD101R,0.0367X0.0001*%
%ADD102R,0.0373X0.0001*%
%ADD103R,0.0366X0.0000*%
%ADD104R,0.0372X0.0000*%
%ADD105R,0.0365X0.0000*%
%ADD106R,0.0371X0.0000*%
%ADD107R,0.0364X0.0001*%
%ADD108R,0.0371X0.0001*%
%ADD109R,0.0362X0.0000*%
%ADD110R,0.0369X0.0000*%
%ADD111R,0.0360X0.0001*%
%ADD112R,0.0369X0.0001*%
%ADD113R,0.0359X0.0000*%
%ADD114R,0.0367X0.0000*%
%ADD115R,0.0357X0.0000*%
%ADD116R,0.0355X0.0001*%
%ADD117R,0.0365X0.0001*%
%ADD118R,0.0354X0.0000*%
%ADD119R,0.0364X0.0000*%
%ADD120R,0.0351X0.0001*%
%ADD121R,0.0363X0.0001*%
%ADD122R,0.0348X0.0000*%
%ADD123R,0.0361X0.0000*%
%ADD124R,0.0345X0.0000*%
%ADD125R,0.0340X0.0001*%
%ADD126R,0.0359X0.0001*%
%ADD127R,0.0258X0.0000*%
%ADD128R,0.0356X0.0000*%
%ADD129R,0.0257X0.0001*%
%ADD130R,0.0354X0.0001*%
%ADD131R,0.0257X0.0000*%
%ADD132R,0.0352X0.0000*%
%ADD133R,0.0347X0.0001*%
%ADD134R,0.0257X0.0000*%
%ADD135R,0.0344X0.0000*%
%ADD136R,0.0257X0.0001*%
%ADD137R,0.0338X0.0001*%
%ADD138R,0.0239X0.0000*%
%ADD139R,0.0256X0.0000*%
%ADD140R,0.0256X0.0001*%
%ADD141R,0.0239X0.0001*%
%ADD142R,0.0239X0.0001*%
%ADD143R,0.0256X0.0000*%
%ADD144R,0.0239X0.0000*%
%ADD145R,0.0256X0.0001*%
%ADD146R,0.0255X0.0000*%
%ADD147R,0.0238X0.0000*%
%ADD148R,0.0255X0.0001*%
%ADD149R,0.0238X0.0001*%
%ADD150R,0.0255X0.0000*%
%ADD151R,0.0255X0.0001*%
%ADD152R,0.0238X0.0001*%
%ADD153R,0.0238X0.0000*%
%ADD154R,0.0255X0.0000*%
%ADD155R,0.0238X0.0000*%
%ADD156R,0.0255X0.0001*%
%ADD157R,0.0238X0.0001*%
%ADD158R,0.0254X0.0000*%
%ADD159R,0.0254X0.0001*%
%ADD160R,0.0237X0.0000*%
%ADD161R,0.0254X0.0001*%
%ADD162R,0.0237X0.0001*%
%ADD163R,0.0254X0.0000*%
%ADD164R,0.0253X0.0000*%
%ADD165R,0.0236X0.0000*%
%ADD166R,0.0253X0.0001*%
%ADD167R,0.0236X0.0001*%
%ADD168R,0.0253X0.0000*%
%ADD169R,0.0253X0.0001*%
%ADD170R,0.0236X0.0001*%
%ADD171R,0.0236X0.0000*%
%ADD172R,0.0252X0.0001*%
%ADD173R,0.0252X0.0000*%
%ADD174R,0.0235X0.0000*%
%ADD175R,0.0235X0.0001*%
%ADD176R,0.0251X0.0000*%
%ADD177R,0.0251X0.0001*%
%ADD178R,0.0235X0.0001*%
%ADD179R,0.0235X0.0000*%
%ADD180R,0.0251X0.0001*%
%ADD181R,0.0251X0.0000*%
%ADD182R,0.0234X0.0000*%
%ADD183R,0.0250X0.0001*%
%ADD184R,0.0234X0.0001*%
%ADD185R,0.0250X0.0000*%
%ADD186R,0.0250X0.0000*%
%ADD187R,0.0234X0.0000*%
%ADD188R,0.0250X0.0001*%
%ADD189R,0.0234X0.0001*%
%ADD190R,0.0250X0.0001*%
%ADD191R,0.0250X0.0000*%
%ADD192R,0.0233X0.0000*%
%ADD193R,0.0249X0.0001*%
%ADD194R,0.0233X0.0001*%
%ADD195R,0.0249X0.0000*%
%ADD196R,0.0233X0.0001*%
%ADD197R,0.0233X0.0000*%
%ADD198R,0.0249X0.0000*%
%ADD199R,0.0249X0.0001*%
%ADD200R,0.0232X0.0000*%
%ADD201R,0.0248X0.0001*%
%ADD202R,0.0232X0.0001*%
%ADD203R,0.0248X0.0000*%
%ADD204R,0.0248X0.0001*%
%ADD205R,0.0232X0.0001*%
%ADD206R,0.0248X0.0000*%
%ADD207R,0.0232X0.0000*%
%ADD208R,0.0247X0.0000*%
%ADD209R,0.0231X0.0000*%
%ADD210R,0.0247X0.0001*%
%ADD211R,0.0231X0.0001*%
%ADD212R,0.0246X0.0001*%
%ADD213R,0.0246X0.0000*%
%ADD214R,0.0231X0.0000*%
%ADD215R,0.0231X0.0001*%
%ADD216R,0.0246X0.0000*%
%ADD217R,0.0246X0.0001*%
%ADD218R,0.0230X0.0000*%
%ADD219R,0.0245X0.0000*%
%ADD220R,0.0245X0.0001*%
%ADD221R,0.0230X0.0001*%
%ADD222R,0.0245X0.0001*%
%ADD223R,0.0230X0.0001*%
%ADD224R,0.0245X0.0000*%
%ADD225R,0.0230X0.0000*%
%ADD226R,0.0245X0.0000*%
%ADD227R,0.0229X0.0000*%
%ADD228R,0.0245X0.0001*%
%ADD229R,0.0229X0.0001*%
%ADD230R,0.0244X0.0000*%
%ADD231R,0.0244X0.0001*%
%ADD232R,0.0229X0.0001*%
%ADD233R,0.0229X0.0000*%
%ADD234R,0.0244X0.0000*%
%ADD235R,0.0228X0.0000*%
%ADD236R,0.0244X0.0001*%
%ADD237R,0.0228X0.0001*%
%ADD238R,0.0243X0.0000*%
%ADD239R,0.0243X0.0001*%
%ADD240R,0.0243X0.0000*%
%ADD241R,0.0228X0.0000*%
%ADD242R,0.0243X0.0001*%
%ADD243R,0.0228X0.0001*%
%ADD244R,0.0242X0.0000*%
%ADD245R,0.0227X0.0000*%
%ADD246R,0.0242X0.0001*%
%ADD247R,0.0227X0.0001*%
%ADD248R,0.0241X0.0000*%
%ADD249R,0.0241X0.0001*%
%ADD250R,0.0227X0.0001*%
%ADD251R,0.0227X0.0000*%
%ADD252R,0.0241X0.0001*%
%ADD253R,0.0241X0.0000*%
%ADD254R,0.0226X0.0000*%
%ADD255R,0.0226X0.0001*%
%ADD256R,0.0240X0.0000*%
%ADD257R,0.0240X0.0001*%
%ADD258R,0.0226X0.0001*%
%ADD259R,0.0240X0.0000*%
%ADD260R,0.0226X0.0000*%
%ADD261R,0.0240X0.0001*%
%ADD262R,0.0225X0.0000*%
%ADD263R,0.0240X0.0001*%
%ADD264R,0.0225X0.0001*%
%ADD265R,0.0240X0.0000*%
%ADD266R,0.0225X0.0000*%
%ADD267R,0.0225X0.0001*%
%ADD268R,0.0239X0.0001*%
%ADD269R,0.0239X0.0000*%
%ADD270R,0.0224X0.0000*%
%ADD271R,0.0224X0.0001*%
%ADD272R,0.0224X0.0001*%
%ADD273R,0.0224X0.0000*%
%ADD274R,0.0223X0.0000*%
%ADD275R,0.0237X0.0001*%
%ADD276R,0.0223X0.0001*%
%ADD277R,0.0237X0.0000*%
%ADD278R,0.0223X0.0001*%
%ADD279R,0.0223X0.0000*%
%ADD280R,0.0236X0.0000*%
%ADD281R,0.0222X0.0000*%
%ADD282R,0.0236X0.0001*%
%ADD283R,0.0222X0.0001*%
%ADD284R,0.0222X0.0000*%
%ADD285R,0.0222X0.0001*%
%ADD286R,0.0221X0.0000*%
%ADD287R,0.0235X0.0000*%
%ADD288R,0.0235X0.0001*%
%ADD289R,0.0221X0.0001*%
%ADD290R,0.0221X0.0001*%
%ADD291R,0.0221X0.0000*%
%ADD292R,0.0234X0.0000*%
%ADD293R,0.0220X0.0000*%
%ADD294R,0.0234X0.0001*%
%ADD295R,0.0220X0.0001*%
%ADD296R,0.0220X0.0001*%
%ADD297R,0.0220X0.0000*%
%ADD298R,0.0219X0.0000*%
%ADD299R,0.0219X0.0001*%
%ADD300R,0.0232X0.0000*%
%ADD301R,0.0232X0.0001*%
%ADD302R,0.0219X0.0000*%
%ADD303R,0.0219X0.0001*%
%ADD304R,0.0231X0.0000*%
%ADD305R,0.0218X0.0000*%
%ADD306R,0.0231X0.0001*%
%ADD307R,0.0218X0.0001*%
%ADD308R,0.0218X0.0001*%
%ADD309R,0.0218X0.0000*%
%ADD310R,0.0217X0.0000*%
%ADD311R,0.0217X0.0001*%
%ADD312R,0.0230X0.0000*%
%ADD313R,0.0230X0.0001*%
%ADD314R,0.0217X0.0001*%
%ADD315R,0.0217X0.0000*%
%ADD316R,0.0216X0.0000*%
%ADD317R,0.0229X0.0001*%
%ADD318R,0.0216X0.0001*%
%ADD319R,0.0229X0.0000*%
%ADD320R,0.0216X0.0000*%
%ADD321R,0.0216X0.0001*%
%ADD322R,0.0215X0.0000*%
%ADD323R,0.0227X0.0001*%
%ADD324R,0.0215X0.0001*%
%ADD325R,0.0227X0.0000*%
%ADD326R,0.0215X0.0001*%
%ADD327R,0.0215X0.0000*%
%ADD328R,0.0214X0.0000*%
%ADD329R,0.0226X0.0001*%
%ADD330R,0.0214X0.0001*%
%ADD331R,0.0226X0.0000*%
%ADD332R,0.0214X0.0001*%
%ADD333R,0.0214X0.0000*%
%ADD334R,0.0213X0.0000*%
%ADD335R,0.0213X0.0001*%
%ADD336R,0.0225X0.0001*%
%ADD337R,0.0225X0.0000*%
%ADD338R,0.0213X0.0000*%
%ADD339R,0.0213X0.0001*%
%ADD340R,0.0213X0.0000*%
%ADD341R,0.0224X0.0000*%
%ADD342R,0.0224X0.0001*%
%ADD343R,0.0213X0.0001*%
%ADD344R,0.0212X0.0001*%
%ADD345R,0.0212X0.0000*%
%ADD346R,0.0211X0.0000*%
%ADD347R,0.0211X0.0001*%
%ADD348R,0.0222X0.0000*%
%ADD349R,0.0222X0.0001*%
%ADD350R,0.0211X0.0001*%
%ADD351R,0.0211X0.0000*%
%ADD352R,0.0210X0.0000*%
%ADD353R,0.0210X0.0001*%
%ADD354R,0.0221X0.0000*%
%ADD355R,0.0221X0.0001*%
%ADD356R,0.0210X0.0000*%
%ADD357R,0.0210X0.0001*%
%ADD358R,0.0209X0.0000*%
%ADD359R,0.0209X0.0001*%
%ADD360R,0.0220X0.0000*%
%ADD361R,0.0220X0.0001*%
%ADD362R,0.0209X0.0001*%
%ADD363R,0.0209X0.0000*%
%ADD364R,0.0208X0.0000*%
%ADD365R,0.0208X0.0001*%
%ADD366R,0.0219X0.0000*%
%ADD367R,0.0219X0.0001*%
%ADD368R,0.0208X0.0001*%
%ADD369R,0.0208X0.0000*%
%ADD370R,0.0208X0.0000*%
%ADD371R,0.0208X0.0001*%
%ADD372R,0.0217X0.0000*%
%ADD373R,0.0207X0.0000*%
%ADD374R,0.0217X0.0001*%
%ADD375R,0.0207X0.0001*%
%ADD376R,0.0206X0.0000*%
%ADD377R,0.0216X0.0001*%
%ADD378R,0.0206X0.0001*%
%ADD379R,0.0216X0.0000*%
%ADD380R,0.0206X0.0001*%
%ADD381R,0.0206X0.0000*%
%ADD382R,0.0205X0.0000*%
%ADD383R,0.0205X0.0001*%
%ADD384R,0.0215X0.0001*%
%ADD385R,0.0205X0.0001*%
%ADD386R,0.0215X0.0000*%
%ADD387R,0.0205X0.0000*%
%ADD388R,0.0204X0.0000*%
%ADD389R,0.0204X0.0001*%
%ADD390R,0.0214X0.0001*%
%ADD391R,0.0214X0.0000*%
%ADD392R,0.0204X0.0000*%
%ADD393R,0.0204X0.0001*%
%ADD394R,0.0203X0.0000*%
%ADD395R,0.0203X0.0001*%
%ADD396R,0.0212X0.0001*%
%ADD397R,0.0203X0.0001*%
%ADD398R,0.0212X0.0000*%
%ADD399R,0.0203X0.0000*%
%ADD400R,0.0203X0.0000*%
%ADD401R,0.0203X0.0001*%
%ADD402R,0.0211X0.0000*%
%ADD403R,0.0211X0.0001*%
%ADD404R,0.0202X0.0001*%
%ADD405R,0.0202X0.0000*%
%ADD406R,0.0201X0.0000*%
%ADD407R,0.0201X0.0001*%
%ADD408R,0.0210X0.0000*%
%ADD409R,0.0201X0.0000*%
%ADD410R,0.0210X0.0001*%
%ADD411R,0.0201X0.0001*%
%ADD412R,0.0200X0.0000*%
%ADD413R,0.0200X0.0001*%
%ADD414R,0.0209X0.0000*%
%ADD415R,0.0209X0.0001*%
%ADD416R,0.0200X0.0001*%
%ADD417R,0.0200X0.0000*%
%ADD418R,0.0199X0.0000*%
%ADD419R,0.0199X0.0001*%
%ADD420R,0.0199X0.0001*%
%ADD421R,0.0207X0.0000*%
%ADD422R,0.0199X0.0000*%
%ADD423R,0.0207X0.0001*%
%ADD424R,0.0198X0.0000*%
%ADD425R,0.0198X0.0001*%
%ADD426R,0.0206X0.0000*%
%ADD427R,0.0198X0.0000*%
%ADD428R,0.0206X0.0001*%
%ADD429R,0.0198X0.0001*%
%ADD430R,0.0198X0.0000*%
%ADD431R,0.0198X0.0001*%
%ADD432R,0.0197X0.0001*%
%ADD433R,0.0205X0.0000*%
%ADD434R,0.0197X0.0000*%
%ADD435R,0.0205X0.0001*%
%ADD436R,0.0196X0.0000*%
%ADD437R,0.0196X0.0001*%
%ADD438R,0.0204X0.0001*%
%ADD439R,0.0196X0.0001*%
%ADD440R,0.0204X0.0000*%
%ADD441R,0.0196X0.0000*%
%ADD442R,0.0195X0.0000*%
%ADD443R,0.0195X0.0001*%
%ADD444R,0.0195X0.0000*%
%ADD445R,0.0202X0.0001*%
%ADD446R,0.0195X0.0001*%
%ADD447R,0.0202X0.0000*%
%ADD448R,0.0194X0.0000*%
%ADD449R,0.0194X0.0001*%
%ADD450R,0.0201X0.0001*%
%ADD451R,0.0194X0.0001*%
%ADD452R,0.0201X0.0000*%
%ADD453R,0.0194X0.0000*%
%ADD454R,0.0193X0.0000*%
%ADD455R,0.0193X0.0001*%
%ADD456R,0.0193X0.0001*%
%ADD457R,0.0193X0.0000*%
%ADD458R,0.0200X0.0001*%
%ADD459R,0.0200X0.0000*%
%ADD460R,0.0192X0.0000*%
%ADD461R,0.0192X0.0001*%
%ADD462R,0.0199X0.0000*%
%ADD463R,0.0192X0.0000*%
%ADD464R,0.0199X0.0001*%
%ADD465R,0.0192X0.0001*%
%ADD466R,0.0191X0.0000*%
%ADD467R,0.0191X0.0001*%
%ADD468R,0.0191X0.0001*%
%ADD469R,0.0191X0.0000*%
%ADD470R,0.0197X0.0000*%
%ADD471R,0.0197X0.0001*%
%ADD472R,0.0190X0.0000*%
%ADD473R,0.0190X0.0001*%
%ADD474R,0.0190X0.0001*%
%ADD475R,0.0196X0.0000*%
%ADD476R,0.0190X0.0000*%
%ADD477R,0.0196X0.0001*%
%ADD478R,0.0189X0.0000*%
%ADD479R,0.0189X0.0001*%
%ADD480R,0.0189X0.0000*%
%ADD481R,0.0189X0.0001*%
%ADD482R,0.0195X0.0000*%
%ADD483R,0.0195X0.0001*%
%ADD484R,0.0188X0.0000*%
%ADD485R,0.0188X0.0001*%
%ADD486R,0.0188X0.0001*%
%ADD487R,0.0194X0.0000*%
%ADD488R,0.0188X0.0000*%
%ADD489R,0.0194X0.0001*%
%ADD490R,0.0187X0.0000*%
%ADD491R,0.0187X0.0001*%
%ADD492R,0.0187X0.0001*%
%ADD493R,0.0187X0.0000*%
%ADD494R,0.0192X0.0000*%
%ADD495R,0.0186X0.0000*%
%ADD496R,0.0192X0.0001*%
%ADD497R,0.0186X0.0001*%
%ADD498R,0.0186X0.0000*%
%ADD499R,0.0191X0.0001*%
%ADD500R,0.0186X0.0001*%
%ADD501R,0.0191X0.0000*%
%ADD502R,0.0185X0.0000*%
%ADD503R,0.0185X0.0001*%
%ADD504R,0.0185X0.0001*%
%ADD505R,0.0185X0.0000*%
%ADD506R,0.0190X0.0001*%
%ADD507R,0.0190X0.0000*%
%ADD508R,0.0184X0.0000*%
%ADD509R,0.0184X0.0001*%
%ADD510R,0.0184X0.0001*%
%ADD511R,0.0184X0.0000*%
%ADD512R,0.0189X0.0001*%
%ADD513R,0.0189X0.0000*%
%ADD514R,0.0183X0.0000*%
%ADD515R,0.0183X0.0001*%
%ADD516R,0.0183X0.0000*%
%ADD517R,0.0183X0.0001*%
%ADD518R,0.0187X0.0001*%
%ADD519R,0.0187X0.0000*%
%ADD520R,0.0182X0.0000*%
%ADD521R,0.0182X0.0001*%
%ADD522R,0.0182X0.0001*%
%ADD523R,0.0182X0.0000*%
%ADD524R,0.0186X0.0000*%
%ADD525R,0.0186X0.0001*%
%ADD526R,0.0181X0.0000*%
%ADD527R,0.0181X0.0001*%
%ADD528R,0.0181X0.0001*%
%ADD529R,0.0181X0.0000*%
%ADD530R,0.0185X0.0000*%
%ADD531R,0.0180X0.0000*%
%ADD532R,0.0185X0.0001*%
%ADD533R,0.0180X0.0001*%
%ADD534R,0.0180X0.0000*%
%ADD535R,0.0180X0.0001*%
%ADD536R,0.0184X0.0000*%
%ADD537R,0.0184X0.0001*%
%ADD538R,0.0179X0.0000*%
%ADD539R,0.0179X0.0001*%
%ADD540R,0.0179X0.0001*%
%ADD541R,0.0179X0.0000*%
%ADD542R,0.0182X0.0000*%
%ADD543R,0.0178X0.0000*%
%ADD544R,0.0182X0.0001*%
%ADD545R,0.0178X0.0001*%
%ADD546R,0.0178X0.0001*%
%ADD547R,0.0178X0.0000*%
%ADD548R,0.0181X0.0000*%
%ADD549R,0.0177X0.0000*%
%ADD550R,0.0181X0.0001*%
%ADD551R,0.0177X0.0001*%
%ADD552R,0.0177X0.0000*%
%ADD553R,0.0177X0.0001*%
%ADD554R,0.0180X0.0000*%
%ADD555R,0.0176X0.0000*%
%ADD556R,0.0180X0.0001*%
%ADD557R,0.0176X0.0001*%
%ADD558R,0.0176X0.0001*%
%ADD559R,0.0176X0.0000*%
%ADD560R,0.0179X0.0001*%
%ADD561R,0.0179X0.0000*%
%ADD562R,0.0175X0.0000*%
%ADD563R,0.0175X0.0001*%
%ADD564R,0.0175X0.0001*%
%ADD565R,0.0175X0.0000*%
%ADD566R,0.0174X0.0000*%
%ADD567R,0.0177X0.0001*%
%ADD568R,0.0174X0.0001*%
%ADD569R,0.0177X0.0000*%
%ADD570R,0.0174X0.0000*%
%ADD571R,0.0174X0.0001*%
%ADD572R,0.0176X0.0001*%
%ADD573R,0.0176X0.0000*%
%ADD574R,0.0173X0.0000*%
%ADD575R,0.0173X0.0001*%
%ADD576R,0.0173X0.0001*%
%ADD577R,0.0173X0.0000*%
%ADD578R,0.0173X0.0000*%
%ADD579R,0.0175X0.0001*%
%ADD580R,0.0173X0.0001*%
%ADD581R,0.0175X0.0000*%
%ADD582R,0.0172X0.0001*%
%ADD583R,0.0172X0.0000*%
%ADD584R,0.0174X0.0000*%
%ADD585R,0.0171X0.0000*%
%ADD586R,0.0174X0.0001*%
%ADD587R,0.0171X0.0001*%
%ADD588R,0.0171X0.0000*%
%ADD589R,0.0171X0.0001*%
%ADD590R,0.0170X0.0000*%
%ADD591R,0.0172X0.0000*%
%ADD592R,0.0172X0.0001*%
%ADD593R,0.0170X0.0001*%
%ADD594R,0.0170X0.0001*%
%ADD595R,0.0170X0.0000*%
%ADD596R,0.0171X0.0000*%
%ADD597R,0.0169X0.0000*%
%ADD598R,0.0171X0.0001*%
%ADD599R,0.0169X0.0001*%
%ADD600R,0.0169X0.0001*%
%ADD601R,0.0169X0.0000*%
%ADD602R,0.0168X0.0000*%
%ADD603R,0.0168X0.0001*%
%ADD604R,0.0170X0.0000*%
%ADD605R,0.0170X0.0001*%
%ADD606R,0.0168X0.0000*%
%ADD607R,0.0168X0.0001*%
%ADD608R,0.0169X0.0000*%
%ADD609R,0.0168X0.0000*%
%ADD610R,0.0169X0.0001*%
%ADD611R,0.0168X0.0001*%
%ADD612R,0.0167X0.0001*%
%ADD613R,0.0167X0.0000*%
%ADD614R,0.0166X0.0000*%
%ADD615R,0.0166X0.0001*%
%ADD616R,0.0167X0.0000*%
%ADD617R,0.0167X0.0001*%
%ADD618R,0.0166X0.0001*%
%ADD619R,0.0166X0.0000*%
%ADD620R,0.0165X0.0000*%
%ADD621R,0.0166X0.0001*%
%ADD622R,0.0165X0.0001*%
%ADD623R,0.0166X0.0000*%
%ADD624R,0.0165X0.0000*%
%ADD625R,0.0165X0.0001*%
%ADD626R,0.0164X0.0000*%
%ADD627R,0.0165X0.0001*%
%ADD628R,0.0164X0.0001*%
%ADD629R,0.0165X0.0000*%
%ADD630R,0.0164X0.0001*%
%ADD631R,0.0164X0.0000*%
%ADD632R,0.0163X0.0000*%
%ADD633R,0.0164X0.0001*%
%ADD634R,0.0163X0.0001*%
%ADD635R,0.0164X0.0000*%
%ADD636R,0.0163X0.0001*%
%ADD637R,0.0163X0.0000*%
%ADD638R,0.0163X0.0000*%
%ADD639R,0.0163X0.0001*%
%ADD640R,0.0162X0.0001*%
%ADD641R,0.0162X0.0000*%
%ADD642R,0.0162X0.0000*%
%ADD643R,0.0161X0.0001*%
%ADD644R,0.0162X0.0001*%
%ADD645R,0.0161X0.0000*%
%ADD646R,0.0161X0.0000*%
%ADD647R,0.0161X0.0001*%
%ADD648R,0.0160X0.0001*%
%ADD649R,0.0161X0.0001*%
%ADD650R,0.0160X0.0000*%
%ADD651R,0.0161X0.0000*%
%ADD652R,0.0160X0.0000*%
%ADD653R,0.0160X0.0001*%
%ADD654R,0.0160X0.0000*%
%ADD655R,0.0160X0.0001*%
%ADD656R,0.0159X0.0001*%
%ADD657R,0.0159X0.0000*%
%ADD658R,0.0159X0.0000*%
%ADD659R,0.0159X0.0001*%
%ADD660R,0.0159X0.0000*%
%ADD661R,0.0159X0.0001*%
%ADD662R,0.0158X0.0000*%
%ADD663R,0.0158X0.0001*%
%ADD664R,0.0158X0.0000*%
%ADD665R,0.0158X0.0000*%
%ADD666R,0.0158X0.0001*%
%ADD667R,0.0158X0.0001*%
%ADD668R,0.0157X0.0000*%
%ADD669R,0.0157X0.0001*%
%ADD670R,0.0156X0.0000*%
%ADD671R,0.0156X0.0001*%
%ADD672R,0.0156X0.0000*%
%ADD673R,0.0156X0.0001*%
%ADD674R,0.0157X0.0001*%
%ADD675R,0.0155X0.0000*%
%ADD676R,0.0157X0.0000*%
%ADD677R,0.0155X0.0001*%
%ADD678R,0.0155X0.0001*%
%ADD679R,0.0155X0.0000*%
%ADD680R,0.0155X0.0000*%
%ADD681R,0.0156X0.0000*%
%ADD682R,0.0155X0.0001*%
%ADD683R,0.0156X0.0001*%
%ADD684R,0.0154X0.0000*%
%ADD685R,0.0154X0.0001*%
%ADD686R,0.0154X0.0001*%
%ADD687R,0.0154X0.0000*%
%ADD688R,0.0153X0.0000*%
%ADD689R,0.0153X0.0001*%
%ADD690R,0.0154X0.0000*%
%ADD691R,0.0152X0.0001*%
%ADD692R,0.0154X0.0001*%
%ADD693R,0.0152X0.0000*%
%ADD694R,0.0152X0.0001*%
%ADD695R,0.0152X0.0000*%
%ADD696R,0.0151X0.0000*%
%ADD697R,0.0153X0.0000*%
%ADD698R,0.0151X0.0001*%
%ADD699R,0.0153X0.0001*%
%ADD700R,0.0151X0.0001*%
%ADD701R,0.0151X0.0000*%
%ADD702R,0.0150X0.0001*%
%ADD703R,0.0150X0.0000*%
%ADD704R,0.0150X0.0000*%
%ADD705R,0.0150X0.0001*%
%ADD706R,0.0150X0.0001*%
%ADD707R,0.0152X0.0001*%
%ADD708R,0.0150X0.0000*%
%ADD709R,0.0152X0.0000*%
%ADD710R,0.0149X0.0000*%
%ADD711R,0.0149X0.0001*%
%ADD712R,0.0149X0.0000*%
%ADD713R,0.0149X0.0001*%
%ADD714R,0.0151X0.0001*%
%ADD715R,0.0151X0.0000*%
%ADD716R,0.0148X0.0001*%
%ADD717R,0.0148X0.0000*%
%ADD718R,0.0260X0.0000*%
%ADD719R,0.0259X0.0000*%
%ADD720R,0.0260X0.0001*%
%ADD721R,0.0259X0.0001*%
%ADD722R,0.0868X0.0000*%
%ADD723R,0.0868X0.0001*%
%ADD724R,0.0321X0.0000*%
%ADD725R,0.0305X0.0000*%
%ADD726R,0.0321X0.0001*%
%ADD727R,0.0305X0.0001*%
%ADD728R,0.0867X0.0000*%
%ADD729R,0.0867X0.0001*%
%ADD730R,0.0867X0.0000*%
%ADD731R,0.0867X0.0001*%
%ADD732R,0.0866X0.0000*%
%ADD733R,0.0866X0.0000*%
%ADD734R,0.0866X0.0001*%
%ADD735R,0.0866X0.0000*%
%ADD736R,0.0866X0.0001*%
%ADD737R,0.0865X0.0000*%
%ADD738R,0.0865X0.0001*%
%ADD739R,0.0864X0.0001*%
%ADD740R,0.0864X0.0000*%
%ADD741R,0.0864X0.0001*%
%ADD742R,0.0864X0.0000*%
%ADD743R,0.0864X0.0001*%
%ADD744R,0.0864X0.0000*%
%ADD745R,0.0863X0.0001*%
%ADD746R,0.0863X0.0000*%
%ADD747R,0.0862X0.0001*%
%ADD748R,0.0862X0.0000*%
%ADD749R,0.0862X0.0001*%
%ADD750R,0.0862X0.0000*%
%ADD751R,0.0861X0.0001*%
%ADD752R,0.0861X0.0000*%
%ADD753R,0.0861X0.0001*%
%ADD754R,0.0860X0.0001*%
%ADD755R,0.0860X0.0000*%
%ADD756R,0.0859X0.0000*%
%ADD757R,0.0859X0.0001*%
%ADD758R,0.0858X0.0000*%
%ADD759R,0.0858X0.0001*%
%ADD760R,0.0857X0.0001*%
%ADD761R,0.0857X0.0000*%
%ADD762R,0.0856X0.0000*%
%ADD763R,0.0856X0.0001*%
%ADD764R,0.0855X0.0000*%
%ADD765R,0.0855X0.0001*%
%ADD766R,0.0855X0.0000*%
%ADD767R,0.0855X0.0001*%
%ADD768R,0.0854X0.0000*%
%ADD769R,0.0854X0.0001*%
%ADD770R,0.0853X0.0000*%
%ADD771R,0.0853X0.0001*%
%ADD772R,0.0853X0.0000*%
%ADD773R,0.0853X0.0000*%
%ADD774R,0.0852X0.0001*%
%ADD775R,0.0852X0.0000*%
%ADD776R,0.0852X0.0001*%
%ADD777R,0.0851X0.0000*%
%ADD778R,0.0850X0.0001*%
%ADD779R,0.0850X0.0000*%
%ADD780R,0.0850X0.0001*%
%ADD781R,0.0849X0.0000*%
%ADD782R,0.0848X0.0001*%
%ADD783R,0.0848X0.0000*%
%ADD784R,0.0848X0.0001*%
%ADD785R,0.0848X0.0000*%
%ADD786R,0.0847X0.0000*%
%ADD787R,0.0847X0.0001*%
%ADD788R,0.0846X0.0000*%
%ADD789R,0.0846X0.0001*%
%ADD790R,0.0845X0.0000*%
%ADD791R,0.0845X0.0000*%
%ADD792R,0.0845X0.0001*%
%ADD793R,0.0843X0.0000*%
%ADD794R,0.0843X0.0001*%
%ADD795R,0.0841X0.0000*%
%ADD796R,0.0840X0.0000*%
%ADD797R,0.0839X0.0001*%
%ADD798R,0.0838X0.0000*%
%ADD799R,0.0837X0.0001*%
%ADD800R,0.0836X0.0000*%
%ADD801R,0.0835X0.0000*%
%ADD802R,0.0834X0.0001*%
%ADD803R,0.0833X0.0000*%
%ADD804R,0.0832X0.0001*%
%ADD805R,0.0831X0.0000*%
%ADD806R,0.0830X0.0000*%
%ADD807R,0.0829X0.0001*%
%ADD808R,0.0828X0.0000*%
%ADD809R,0.0827X0.0001*%
%ADD810R,0.0826X0.0000*%
%ADD811R,0.0825X0.0000*%
%ADD812R,0.0824X0.0001*%
%ADD813R,0.0823X0.0000*%
%ADD814R,0.0822X0.0001*%
%ADD815R,0.0821X0.0000*%
%ADD816R,0.0820X0.0000*%
%ADD817R,0.0819X0.0001*%
%ADD818R,0.0818X0.0000*%
%ADD819R,0.0817X0.0001*%
%ADD820R,0.0816X0.0000*%
%ADD821R,0.0815X0.0000*%
%ADD822R,0.0814X0.0001*%
%ADD823R,0.0813X0.0000*%
%ADD824R,0.0812X0.0001*%
%ADD825R,0.0811X0.0000*%
%ADD826R,0.0810X0.0000*%
%ADD827R,0.0808X0.0001*%
%ADD828R,0.0808X0.0000*%
%ADD829R,0.0807X0.0001*%
%ADD830R,0.0805X0.0000*%
%ADD831R,0.0805X0.0000*%
%ADD832R,0.0803X0.0001*%
%ADD833R,0.0803X0.0000*%
%ADD834R,0.0802X0.0001*%
%ADD835R,0.0800X0.0000*%
%ADD836R,0.0800X0.0000*%
%ADD837R,0.0798X0.0001*%
%ADD838R,0.0798X0.0000*%
%ADD839R,0.0797X0.0001*%
%ADD840R,0.0795X0.0000*%
%ADD841R,0.0795X0.0000*%
%ADD842R,0.0793X0.0001*%
%ADD843R,0.0793X0.0000*%
%ADD844R,0.0791X0.0001*%
%ADD845R,0.0790X0.0000*%
%ADD846R,0.0789X0.0000*%
%ADD847R,0.0788X0.0001*%
%ADD848R,0.0787X0.0000*%
%ADD849R,0.0786X0.0001*%
%ADD850R,0.0785X0.0000*%
%ADD851R,0.0784X0.0000*%
%ADD852R,0.0783X0.0001*%
%ADD853R,0.0782X0.0000*%
%ADD854R,0.0781X0.0001*%
%ADD855R,0.0780X0.0000*%
%ADD856R,0.0779X0.0000*%
%ADD857R,0.0778X0.0001*%
%ADD858R,0.0777X0.0000*%
%ADD859R,0.0776X0.0001*%
%ADD860R,0.0775X0.0000*%
%ADD861R,0.0774X0.0000*%
%ADD862R,0.0773X0.0001*%
%ADD863R,0.0772X0.0000*%
%ADD864R,0.0771X0.0001*%
%ADD865R,0.0770X0.0000*%
%ADD866R,0.0769X0.0000*%
%ADD867R,0.0768X0.0001*%
%ADD868R,0.0767X0.0000*%
%ADD869R,0.0766X0.0001*%
%ADD870R,0.0765X0.0000*%
%ADD871R,0.0764X0.0000*%
%ADD872R,0.0763X0.0001*%
%ADD873R,0.0762X0.0000*%
%ADD874R,0.0761X0.0001*%
%ADD875R,0.0760X0.0000*%
%ADD876R,0.0758X0.0000*%
%ADD877R,0.0757X0.0001*%
%ADD878R,0.0757X0.0000*%
%ADD879R,0.0755X0.0001*%
%ADD880R,0.0755X0.0000*%
%ADD881R,0.0753X0.0000*%
%ADD882R,0.0752X0.0001*%
%ADD883R,0.0752X0.0000*%
%ADD884R,0.0750X0.0001*%
%ADD885R,0.0750X0.0000*%
%ADD886R,0.0748X0.0000*%
%ADD887R,0.0747X0.0001*%
%ADD888R,0.0747X0.0000*%
%ADD889R,0.0745X0.0001*%
%ADD890R,0.0745X0.0000*%
%ADD891R,0.0743X0.0000*%
%ADD892R,0.0742X0.0001*%
%ADD893R,0.0741X0.0000*%
%ADD894R,0.0740X0.0001*%
%ADD895R,0.0739X0.0000*%
%ADD896R,0.0738X0.0000*%
%ADD897R,0.0737X0.0001*%
%ADD898R,0.0736X0.0000*%
%ADD899R,0.0735X0.0001*%
%ADD900R,0.0734X0.0000*%
%ADD901R,0.0733X0.0000*%
%ADD902R,0.0732X0.0001*%
%ADD903R,0.0731X0.0000*%
%ADD904R,0.0730X0.0001*%
%ADD905R,0.0729X0.0000*%
%ADD906R,0.0728X0.0000*%
%ADD907R,0.0727X0.0001*%
%ADD908R,0.0726X0.0000*%
%ADD909R,0.0725X0.0001*%
%ADD910R,0.0724X0.0000*%
%ADD911R,0.0723X0.0000*%
%ADD912R,0.0722X0.0001*%
%ADD913R,0.0721X0.0000*%
%ADD914R,0.0720X0.0001*%
%ADD915R,0.0719X0.0000*%
%ADD916R,0.0718X0.0000*%
%ADD917R,0.0717X0.0001*%
%ADD918R,0.0716X0.0000*%
%ADD919R,0.0715X0.0001*%
%ADD920R,0.0714X0.0000*%
%ADD921R,0.0713X0.0000*%
%ADD922R,0.0712X0.0001*%
%ADD923R,0.0711X0.0000*%
%ADD924R,0.0710X0.0001*%
%ADD925R,0.0709X0.0000*%
%ADD926R,0.0707X0.0000*%
%ADD927R,0.0707X0.0001*%
%ADD928R,0.0705X0.0000*%
%ADD929R,0.0705X0.0001*%
%ADD930R,0.0703X0.0000*%
%ADD931R,0.0703X0.0000*%
%ADD932R,0.0702X0.0001*%
%ADD933R,0.0700X0.0000*%
%ADD934R,0.0700X0.0001*%
%ADD935R,0.0698X0.0000*%
%ADD936R,0.0698X0.0000*%
%ADD937R,0.0697X0.0001*%
%ADD938R,0.0695X0.0000*%
%ADD939R,0.0695X0.0001*%
%ADD940R,0.0693X0.0000*%
%ADD941R,0.0692X0.0000*%
%ADD942R,0.0691X0.0001*%
%ADD943R,0.0690X0.0000*%
%ADD944R,0.0689X0.0001*%
%ADD945R,0.0688X0.0000*%
%ADD946R,0.0687X0.0000*%
%ADD947R,0.0686X0.0001*%
%ADD948R,0.0685X0.0000*%
%ADD949R,0.0684X0.0001*%
%ADD950R,0.0683X0.0000*%
%ADD951R,0.0682X0.0000*%
%ADD952R,0.0681X0.0001*%
%ADD953R,0.0680X0.0000*%
%ADD954R,0.0679X0.0001*%
%ADD955R,0.0678X0.0000*%
%ADD956R,0.0677X0.0000*%
%ADD957R,0.0676X0.0001*%
%ADD958R,0.0675X0.0000*%
%ADD959R,0.0674X0.0001*%
%ADD960R,0.0673X0.0000*%
%ADD961R,0.0672X0.0000*%
%ADD962R,0.0671X0.0001*%
%ADD963R,0.0670X0.0000*%
%ADD964R,0.0669X0.0001*%
%ADD965R,0.0668X0.0000*%
%ADD966R,0.0667X0.0000*%
%ADD967R,0.0666X0.0001*%
%ADD968R,0.0665X0.0000*%
%ADD969R,0.0664X0.0001*%
%ADD970R,0.0663X0.0000*%
%ADD971R,0.0662X0.0000*%
%ADD972R,0.0661X0.0001*%
%ADD973R,0.0660X0.0000*%
%ADD974R,0.0659X0.0001*%
%ADD975R,0.0658X0.0000*%
%ADD976R,0.0657X0.0000*%
%ADD977R,0.0655X0.0001*%
%ADD978R,0.0655X0.0000*%
%ADD979R,0.0653X0.0001*%
%ADD980R,0.0653X0.0000*%
%ADD981R,0.0652X0.0000*%
%ADD982R,0.0650X0.0001*%
%ADD983R,0.0650X0.0000*%
%ADD984R,0.0648X0.0001*%
%ADD985R,0.0648X0.0000*%
%ADD986R,0.0647X0.0000*%
%ADD987R,0.0645X0.0001*%
%ADD988R,0.0645X0.0000*%
%ADD989R,0.0643X0.0001*%
%ADD990R,0.0642X0.0000*%
%ADD991R,0.0641X0.0000*%
%ADD992R,0.0640X0.0001*%
%ADD993R,0.0639X0.0000*%
%ADD994R,0.0638X0.0001*%
%ADD995R,0.0637X0.0000*%
%ADD996R,0.0636X0.0000*%
%ADD997R,0.0635X0.0001*%
%ADD998R,0.0634X0.0000*%
%ADD999R,0.0633X0.0001*%
%ADD1000R,0.0632X0.0000*%
%ADD1001R,0.0631X0.0000*%
%ADD1002R,0.0630X0.0001*%
%ADD1003R,0.0629X0.0000*%
%ADD1004R,0.0628X0.0001*%
%ADD1005R,0.0627X0.0000*%
%ADD1006R,0.0626X0.0000*%
%ADD1007R,0.0625X0.0001*%
%ADD1008R,0.0624X0.0000*%
%ADD1009R,0.0623X0.0001*%
%ADD1010R,0.0622X0.0000*%
%ADD1011R,0.0621X0.0000*%
%ADD1012R,0.0620X0.0001*%
%ADD1013R,0.0619X0.0000*%
%ADD1014R,0.0618X0.0001*%
%ADD1015R,0.0617X0.0000*%
%ADD1016R,0.0616X0.0000*%
%ADD1017R,0.0615X0.0001*%
%ADD1018R,0.0614X0.0000*%
%ADD1019R,0.0613X0.0001*%
%ADD1020R,0.0612X0.0000*%
%ADD1021R,0.0611X0.0000*%
%ADD1022R,0.0610X0.0001*%
%ADD1023R,0.0609X0.0000*%
%ADD1024R,0.0607X0.0001*%
%ADD1025R,0.0607X0.0000*%
%ADD1026R,0.0605X0.0000*%
%ADD1027R,0.0605X0.0001*%
%ADD1028R,0.0603X0.0000*%
%ADD1029R,0.0602X0.0001*%
%ADD1030R,0.0602X0.0000*%
%ADD1031R,0.0600X0.0000*%
%ADD1032R,0.0600X0.0001*%
%ADD1033R,0.0598X0.0000*%
%ADD1034R,0.0597X0.0001*%
%ADD1035R,0.0597X0.0000*%
%ADD1036R,0.0595X0.0000*%
%ADD1037R,0.0595X0.0001*%
%ADD1038R,0.0593X0.0000*%
%ADD1039R,0.0592X0.0001*%
%ADD1040R,0.0591X0.0000*%
%ADD1041R,0.0590X0.0000*%
%ADD1042R,0.0589X0.0001*%
%ADD1043R,0.0588X0.0000*%
%ADD1044R,0.0587X0.0001*%
%ADD1045R,0.0586X0.0000*%
%ADD1046R,0.0585X0.0000*%
%ADD1047R,0.0584X0.0001*%
%ADD1048R,0.0583X0.0000*%
%ADD1049R,0.0582X0.0001*%
%ADD1050R,0.0581X0.0000*%
%ADD1051R,0.0580X0.0000*%
%ADD1052R,0.0579X0.0001*%
%ADD1053R,0.0578X0.0000*%
%ADD1054R,0.0577X0.0001*%
%ADD1055R,0.0576X0.0000*%
%ADD1056R,0.0575X0.0000*%
%ADD1057R,0.0574X0.0001*%
%ADD1058R,0.0573X0.0000*%
%ADD1059R,0.0571X0.0001*%
%ADD1060R,0.0568X0.0000*%
%ADD1061R,0.0565X0.0000*%
%ADD1062R,0.0563X0.0001*%
%ADD1063R,0.0560X0.0000*%
%ADD1064R,0.0557X0.0001*%
%ADD1065R,0.0554X0.0000*%
%ADD1066R,0.0551X0.0000*%
%ADD1067R,0.0548X0.0001*%
%ADD1068R,0.0545X0.0000*%
%ADD1069R,0.0542X0.0001*%
%ADD1070R,0.0537X0.0000*%
%ADD1071R,0.0533X0.0000*%
%ADD1072R,0.0530X0.0001*%
%ADD1073R,0.0526X0.0000*%
%ADD1074R,0.0522X0.0001*%
%ADD1075R,0.0518X0.0000*%
%ADD1076R,0.0513X0.0000*%
%ADD1077R,0.0508X0.0001*%
%ADD1078R,0.0503X0.0000*%
%ADD1079R,0.0496X0.0001*%
%ADD1080R,0.0489X0.0000*%
%ADD1081R,0.0477X0.0000*%
%ADD1082C,0.0000*%
D10*
X001565Y001385D02*
X001565Y001578D01*
X001662Y001675D01*
X001758Y001578D01*
X001758Y001385D01*
X001860Y001433D02*
X001908Y001385D01*
X002005Y001385D01*
X002053Y001433D01*
X002053Y001627D01*
X002005Y001675D01*
X001908Y001675D01*
X001860Y001627D01*
X001758Y001530D02*
X001565Y001530D01*
X002447Y001433D02*
X002447Y001385D01*
X002496Y001385D01*
X002496Y001433D01*
X002447Y001433D01*
X002447Y001385D02*
X002544Y001288D01*
X002645Y001385D02*
X002790Y001385D01*
X002839Y001433D01*
X002790Y001482D01*
X002645Y001482D01*
X002645Y001530D02*
X002645Y001385D01*
X002645Y001530D02*
X002694Y001578D01*
X002790Y001578D01*
X002940Y001530D02*
X002940Y001385D01*
X002940Y001530D02*
X002988Y001578D01*
X003133Y001578D01*
X003133Y001385D01*
X003235Y001482D02*
X003428Y001482D01*
X003428Y001530D02*
X003428Y001433D01*
X003380Y001385D01*
X003283Y001385D01*
X003235Y001482D02*
X003235Y001530D01*
X003283Y001578D01*
X003380Y001578D01*
X003428Y001530D01*
X003529Y001578D02*
X003674Y001578D01*
X003723Y001530D01*
X003723Y001433D01*
X003674Y001385D01*
X003529Y001385D01*
X003529Y001675D01*
X003824Y001530D02*
X003824Y001385D01*
X003969Y001385D01*
X004017Y001433D01*
X003969Y001482D01*
X003824Y001482D01*
X003824Y001530D02*
X003872Y001578D01*
X003969Y001578D01*
X004119Y001578D02*
X004264Y001578D01*
X004312Y001530D01*
X004264Y001482D01*
X004167Y001482D01*
X004119Y001433D01*
X004167Y001385D01*
X004312Y001385D01*
X004413Y001385D02*
X004558Y001385D01*
X004607Y001433D01*
X004558Y001482D01*
X004413Y001482D01*
X004413Y001530D02*
X004413Y001385D01*
X004413Y001530D02*
X004462Y001578D01*
X004558Y001578D01*
X004708Y001530D02*
X004756Y001482D01*
X004901Y001482D01*
X004901Y001385D02*
X004901Y001675D01*
X004756Y001675D01*
X004708Y001627D01*
X004708Y001530D01*
X004191Y002325D02*
X004191Y002615D01*
X004095Y002518D01*
X003998Y002615D01*
X003998Y002325D01*
X003897Y002373D02*
X003848Y002325D01*
X003752Y002325D01*
X003703Y002373D01*
X003703Y002567D01*
X003752Y002615D01*
X003848Y002615D01*
X003897Y002567D01*
X003897Y002373D01*
X003602Y002373D02*
X003554Y002325D01*
X003457Y002325D01*
X003408Y002373D01*
X003408Y002422D01*
X003457Y002470D01*
X003554Y002470D01*
X003602Y002518D01*
X003602Y002567D01*
X003554Y002615D01*
X003457Y002615D01*
X003408Y002567D01*
X003307Y002615D02*
X003114Y002615D01*
X003013Y002615D02*
X003013Y002325D01*
X002819Y002325D01*
X002916Y002470D02*
X003013Y002470D01*
X003013Y002615D02*
X002819Y002615D01*
X002718Y002615D02*
X002525Y002615D01*
X002423Y002567D02*
X002423Y002518D01*
X002375Y002470D01*
X002278Y002470D01*
X002230Y002422D01*
X002230Y002373D01*
X002278Y002325D01*
X002375Y002325D01*
X002423Y002373D01*
X002621Y002325D02*
X002621Y002615D01*
X002621Y002805D02*
X002621Y003095D01*
X002669Y003095D02*
X002572Y003095D01*
X002472Y003095D02*
X002279Y003095D01*
X002178Y003095D02*
X001984Y003095D01*
X002081Y003095D02*
X002081Y002805D01*
X001883Y002805D02*
X001690Y002805D01*
X001589Y002805D02*
X001589Y003095D01*
X001443Y003095D01*
X001395Y003047D01*
X001395Y002950D01*
X001443Y002902D01*
X001589Y002902D01*
X001492Y002902D02*
X001395Y002805D01*
X001690Y003095D02*
X001883Y003095D01*
X001883Y002805D01*
X001883Y002950D02*
X001786Y002950D01*
X002230Y002567D02*
X002278Y002615D01*
X002375Y002615D01*
X002423Y002567D01*
X002472Y002805D02*
X002472Y003095D01*
X002472Y002950D02*
X002376Y002950D01*
X002572Y002805D02*
X002669Y002805D01*
X002770Y002805D02*
X002770Y003095D01*
X002770Y002950D02*
X002964Y002950D01*
X003065Y002902D02*
X003065Y002853D01*
X003113Y002805D01*
X003210Y002805D01*
X003258Y002853D01*
X003210Y002950D02*
X003113Y002950D01*
X003065Y002902D01*
X002964Y002805D02*
X002964Y003095D01*
X003065Y003047D02*
X003113Y003095D01*
X003210Y003095D01*
X003258Y003047D01*
X003258Y002998D01*
X003210Y002950D01*
X003307Y002615D02*
X003307Y002325D01*
X003307Y002470D02*
X003211Y002470D01*
X003654Y002805D02*
X003848Y002805D01*
X003848Y003095D01*
X003949Y003095D02*
X004142Y003095D01*
X004142Y002805D01*
X003949Y002805D01*
X004045Y002950D02*
X004142Y002950D01*
X004243Y002902D02*
X004243Y003095D01*
X004243Y002902D02*
X004340Y002805D01*
X004437Y002902D01*
X004437Y003095D01*
X004538Y003095D02*
X004731Y003095D01*
X004731Y002805D01*
X004538Y002805D01*
X004635Y002950D02*
X004731Y002950D01*
X004833Y002805D02*
X005026Y002805D01*
X005026Y003095D01*
D11*
X005408Y004335D02*
X005482Y004335D01*
X005518Y004372D01*
X005372Y004518D01*
X005372Y004372D01*
X005408Y004335D01*
X005518Y004372D02*
X005518Y004518D01*
X005482Y004555D01*
X005408Y004555D01*
X005372Y004518D01*
X005592Y004372D02*
X005592Y004335D01*
X005629Y004335D01*
X005629Y004372D01*
X005592Y004372D01*
X005703Y004335D02*
X005850Y004335D01*
X005777Y004335D02*
X005777Y004555D01*
X005850Y004482D01*
X005924Y004482D02*
X005998Y004335D01*
X006071Y004482D01*
D12*
X003519Y003555D03*
D13*
X002902Y003555D03*
D14*
X002902Y003555D03*
X003519Y003555D03*
D15*
X003519Y003556D03*
D16*
X002902Y003556D03*
D17*
X003519Y003556D03*
D18*
X002902Y003556D03*
X002902Y003806D03*
D19*
X002902Y003557D03*
X003519Y003557D03*
D20*
X003519Y003558D03*
D21*
X002902Y003558D03*
D22*
X002902Y003558D03*
X003519Y003558D03*
D23*
X003519Y003559D03*
X002902Y003559D03*
D24*
X002902Y003559D03*
X002902Y003804D03*
X003519Y003559D03*
D25*
X003519Y003559D03*
X002902Y003559D03*
D26*
X003519Y003560D03*
D27*
X002902Y003560D03*
D28*
X003519Y003560D03*
D29*
X002902Y003560D03*
D30*
X003519Y003561D03*
D31*
X002902Y003561D03*
D32*
X002902Y003561D03*
X002902Y003801D03*
X003519Y003561D03*
D33*
X003519Y003562D03*
X002902Y003562D03*
D34*
X002902Y003563D03*
X003519Y003563D03*
D35*
X003519Y003563D03*
D36*
X002902Y003563D03*
D37*
X003519Y003564D03*
D38*
X002902Y003564D03*
D39*
X002902Y003564D03*
X003519Y003564D03*
D40*
X003519Y003564D03*
D41*
X002902Y003564D03*
D42*
X003519Y003565D03*
D43*
X002902Y003565D03*
D44*
X003519Y003565D03*
D45*
X003519Y003794D03*
X002902Y003565D03*
D46*
X003519Y003566D03*
X003519Y003794D03*
D47*
X002902Y003566D03*
D48*
X003519Y003566D03*
D49*
X002902Y003566D03*
X002902Y003796D03*
D50*
X003519Y003793D03*
X003519Y003567D03*
D51*
X002902Y003567D03*
D52*
X002902Y003568D03*
X002902Y003795D03*
X003519Y003568D03*
D53*
X003519Y003568D03*
D54*
X003519Y003792D03*
X002902Y003568D03*
D55*
X002902Y003569D03*
X003519Y003569D03*
X003519Y003791D03*
D56*
X003519Y003569D03*
D57*
X002902Y003569D03*
X002902Y003794D03*
D58*
X002902Y003793D03*
X002902Y003569D03*
X003519Y003569D03*
D59*
X003519Y003570D03*
D60*
X003519Y003790D03*
X002902Y003794D03*
X002902Y003570D03*
D61*
X003519Y003570D03*
D62*
X002902Y003570D03*
X002902Y003792D03*
D63*
X003519Y003789D03*
X003519Y003571D03*
D64*
X002902Y003571D03*
X002902Y003793D03*
D65*
X003519Y003788D03*
X003519Y003573D03*
X003519Y003571D03*
D66*
X003519Y003789D03*
X002902Y003791D03*
X002902Y003571D03*
D67*
X003519Y003572D03*
X003519Y003788D03*
D68*
X002902Y003790D03*
X002902Y003572D03*
D69*
X002902Y003573D03*
X002902Y003791D03*
D70*
X003519Y003787D03*
X003519Y003573D03*
D71*
X002902Y003573D03*
D72*
X002902Y003574D03*
X002902Y003574D03*
X002902Y003789D03*
X002902Y003789D03*
X003519Y003786D03*
X003519Y003786D03*
X003519Y003574D03*
X003519Y003574D03*
D73*
X003519Y003574D03*
D74*
X003519Y003785D03*
X002902Y003789D03*
X002902Y003574D03*
D75*
X003519Y003575D03*
X003519Y003785D03*
D76*
X002902Y003575D03*
D77*
X002902Y003575D03*
X002902Y003577D03*
X002902Y003785D03*
X002902Y003787D03*
X003519Y003784D03*
X003519Y003783D03*
X003519Y003577D03*
X003519Y003575D03*
D78*
X003519Y003576D03*
X003519Y003576D03*
X003519Y003783D03*
X003519Y003784D03*
X003519Y003784D03*
X002902Y003786D03*
X002902Y003786D03*
X002902Y003788D03*
X002902Y003578D03*
X002902Y003576D03*
X002902Y003576D03*
D79*
X003519Y003578D03*
X003519Y003579D03*
X003519Y003579D03*
X003519Y003580D03*
X003519Y003581D03*
X003519Y003581D03*
X003519Y003583D03*
X003519Y003584D03*
X003519Y003584D03*
X003519Y003585D03*
X003519Y003586D03*
X003519Y003586D03*
X003519Y003588D03*
X003519Y003589D03*
X003519Y003589D03*
X003519Y003590D03*
X003519Y003591D03*
X003519Y003591D03*
X003519Y003593D03*
X003519Y003594D03*
X003519Y003594D03*
X003519Y003595D03*
X003519Y003596D03*
X003519Y003596D03*
X003519Y003598D03*
X003519Y003599D03*
X003519Y003599D03*
X003519Y003600D03*
X003519Y003601D03*
X003519Y003601D03*
X003519Y003603D03*
X003519Y003604D03*
X003519Y003604D03*
X003519Y003605D03*
X003519Y003606D03*
X003519Y003606D03*
X003519Y003608D03*
X003519Y003609D03*
X003519Y003609D03*
X003519Y003610D03*
X003519Y003611D03*
X003519Y003611D03*
X003519Y003613D03*
X003519Y003614D03*
X003519Y003614D03*
X003519Y003615D03*
X003519Y003616D03*
X003519Y003616D03*
X003519Y003618D03*
X003519Y003619D03*
X003519Y003619D03*
X003519Y003620D03*
X003519Y003621D03*
X003519Y003621D03*
X003519Y003623D03*
X003519Y003624D03*
X003519Y003624D03*
X003519Y003625D03*
X003519Y003626D03*
X003519Y003626D03*
X003519Y003628D03*
X003519Y003629D03*
X003519Y003629D03*
X003519Y003630D03*
X003519Y003631D03*
X003519Y003631D03*
X003519Y003633D03*
X003519Y003634D03*
X003519Y003634D03*
X003519Y003635D03*
X003519Y003636D03*
X003519Y003636D03*
X003519Y003638D03*
X003519Y003639D03*
X003519Y003639D03*
X003519Y003640D03*
X003519Y003641D03*
X003519Y003641D03*
X003519Y003643D03*
X003519Y003644D03*
X003519Y003644D03*
X003519Y003645D03*
X003519Y003646D03*
X003519Y003646D03*
X003519Y003648D03*
X003519Y003649D03*
X003519Y003649D03*
X003519Y003650D03*
X003519Y003651D03*
X003519Y003651D03*
X003519Y003653D03*
X003519Y003654D03*
X003519Y003654D03*
X003519Y003655D03*
X003519Y003656D03*
X003519Y003656D03*
X003519Y003658D03*
X003519Y003659D03*
X003519Y003659D03*
X003519Y003660D03*
X003519Y003661D03*
X003519Y003661D03*
X003519Y003663D03*
X003519Y003664D03*
X003519Y003664D03*
X003519Y003665D03*
X003519Y003666D03*
X003519Y003666D03*
X003519Y003668D03*
X003519Y003669D03*
X003519Y003669D03*
X003519Y003670D03*
X003519Y003671D03*
X003519Y003671D03*
X003519Y003673D03*
X003519Y003674D03*
X003519Y003674D03*
X003519Y003675D03*
X003519Y003676D03*
X003519Y003676D03*
X003519Y003678D03*
X003519Y003679D03*
X003519Y003679D03*
X003519Y003680D03*
X003519Y003681D03*
X003519Y003681D03*
X003519Y003683D03*
X003519Y003684D03*
X003519Y003684D03*
X003519Y003685D03*
X003519Y003686D03*
X003519Y003686D03*
X003519Y003688D03*
X003519Y003689D03*
X003519Y003689D03*
X003519Y003690D03*
X003519Y003691D03*
X003519Y003691D03*
X003519Y003693D03*
X003519Y003694D03*
X003519Y003694D03*
X003519Y003695D03*
X003519Y003696D03*
X003519Y003696D03*
X003519Y003698D03*
X003519Y003699D03*
X003519Y003699D03*
X003519Y003700D03*
X003519Y003701D03*
X003519Y003701D03*
X003519Y003703D03*
X003519Y003704D03*
X003519Y003704D03*
X003519Y003705D03*
X003519Y003706D03*
X003519Y003706D03*
X003519Y003708D03*
X003519Y003709D03*
X003519Y003709D03*
X003519Y003710D03*
X003519Y003711D03*
X003519Y003711D03*
X003519Y003713D03*
X003519Y003714D03*
X003519Y003714D03*
X003519Y003715D03*
X003519Y003716D03*
X003519Y003716D03*
X003519Y003718D03*
X003519Y003719D03*
X003519Y003719D03*
X003519Y003720D03*
X003519Y003721D03*
X003519Y003721D03*
X003519Y003723D03*
X003519Y003724D03*
X003519Y003724D03*
X003519Y003725D03*
X003519Y003726D03*
X003519Y003726D03*
X003519Y003728D03*
X003519Y003729D03*
X003519Y003729D03*
X003519Y003730D03*
X003519Y003731D03*
X003519Y003731D03*
X003519Y003733D03*
X003519Y003734D03*
X003519Y003734D03*
X003519Y003735D03*
X003519Y003736D03*
X003519Y003736D03*
X003519Y003738D03*
X003519Y003739D03*
X003519Y003739D03*
X003519Y003740D03*
X003519Y003741D03*
X003519Y003741D03*
X003519Y003743D03*
X003519Y003744D03*
X003519Y003744D03*
X003519Y003745D03*
X003519Y003746D03*
X003519Y003746D03*
X003519Y003748D03*
X003519Y003749D03*
X003519Y003749D03*
X003519Y003750D03*
X003519Y003751D03*
X003519Y003751D03*
X003519Y003753D03*
X003519Y003754D03*
X003519Y003754D03*
X003519Y003755D03*
X003519Y003756D03*
X003519Y003756D03*
X003519Y003758D03*
X003519Y003759D03*
X003519Y003759D03*
X003519Y003760D03*
X003519Y003761D03*
X003519Y003761D03*
X003519Y003763D03*
X003519Y003764D03*
X003519Y003764D03*
X003519Y003765D03*
X003519Y003766D03*
X003519Y003766D03*
X003519Y003768D03*
X003519Y003769D03*
X003519Y003769D03*
X003519Y003770D03*
X003519Y003771D03*
X003519Y003771D03*
X003519Y003773D03*
X003519Y003774D03*
X003519Y003774D03*
X003519Y003775D03*
X003519Y003776D03*
X003519Y003776D03*
X003519Y003778D03*
X003519Y003779D03*
X003519Y003779D03*
X003519Y003780D03*
X003519Y003781D03*
X003519Y003781D03*
D80*
X003519Y003780D03*
X003519Y003779D03*
X003519Y003778D03*
X003519Y003777D03*
X003519Y003775D03*
X003519Y003774D03*
X003519Y003773D03*
X003519Y003772D03*
X003519Y003770D03*
X003519Y003769D03*
X003519Y003768D03*
X003519Y003767D03*
X003519Y003765D03*
X003519Y003764D03*
X003519Y003763D03*
X003519Y003762D03*
X003519Y003760D03*
X003519Y003759D03*
X003519Y003758D03*
X003519Y003757D03*
X003519Y003755D03*
X003519Y003754D03*
X003519Y003753D03*
X003519Y003752D03*
X003519Y003750D03*
X003519Y003749D03*
X003519Y003748D03*
X003519Y003747D03*
X003519Y003745D03*
X003519Y003744D03*
X003519Y003743D03*
X003519Y003742D03*
X003519Y003740D03*
X003519Y003739D03*
X003519Y003738D03*
X003519Y003737D03*
X003519Y003735D03*
X003519Y003734D03*
X003519Y003733D03*
X003519Y003732D03*
X003519Y003730D03*
X003519Y003729D03*
X003519Y003728D03*
X003519Y003727D03*
X003519Y003725D03*
X003519Y003724D03*
X003519Y003723D03*
X003519Y003722D03*
X003519Y003720D03*
X003519Y003719D03*
X003519Y003718D03*
X003519Y003717D03*
X003519Y003715D03*
X003519Y003714D03*
X003519Y003713D03*
X003519Y003712D03*
X003519Y003710D03*
X003519Y003709D03*
X003519Y003708D03*
X003519Y003707D03*
X003519Y003705D03*
X003519Y003704D03*
X003519Y003703D03*
X003519Y003702D03*
X003519Y003700D03*
X003519Y003699D03*
X003519Y003698D03*
X003519Y003697D03*
X003519Y003695D03*
X003519Y003694D03*
X003519Y003693D03*
X003519Y003692D03*
X003519Y003690D03*
X003519Y003689D03*
X003519Y003688D03*
X003519Y003687D03*
X003519Y003685D03*
X003519Y003684D03*
X003519Y003683D03*
X003519Y003682D03*
X003519Y003680D03*
X003519Y003679D03*
X003519Y003678D03*
X003519Y003677D03*
X003519Y003675D03*
X003519Y003674D03*
X003519Y003673D03*
X003519Y003672D03*
X003519Y003670D03*
X003519Y003669D03*
X003519Y003668D03*
X003519Y003667D03*
X003519Y003665D03*
X003519Y003664D03*
X003519Y003663D03*
X003519Y003662D03*
X003519Y003660D03*
X003519Y003659D03*
X003519Y003658D03*
X003519Y003657D03*
X003519Y003655D03*
X003519Y003654D03*
X003519Y003653D03*
X003519Y003652D03*
X003519Y003650D03*
X003519Y003649D03*
X003519Y003648D03*
X003519Y003647D03*
X003519Y003645D03*
X003519Y003644D03*
X003519Y003643D03*
X003519Y003642D03*
X003519Y003640D03*
X003519Y003639D03*
X003519Y003638D03*
X003519Y003637D03*
X003519Y003635D03*
X003519Y003634D03*
X003519Y003633D03*
X003519Y003632D03*
X003519Y003630D03*
X003519Y003629D03*
X003519Y003628D03*
X003519Y003627D03*
X003519Y003625D03*
X003519Y003624D03*
X003519Y003623D03*
X003519Y003622D03*
X003519Y003620D03*
X003519Y003619D03*
X003519Y003618D03*
X003519Y003617D03*
X003519Y003615D03*
X003519Y003614D03*
X003519Y003613D03*
X003519Y003612D03*
X003519Y003610D03*
X003519Y003609D03*
X003519Y003608D03*
X003519Y003607D03*
X003519Y003605D03*
X003519Y003604D03*
X003519Y003603D03*
X003519Y003602D03*
X003519Y003600D03*
X003519Y003599D03*
X003519Y003598D03*
X003519Y003597D03*
X003519Y003595D03*
X003519Y003594D03*
X003519Y003593D03*
X003519Y003592D03*
X003519Y003590D03*
X003519Y003589D03*
X003519Y003588D03*
X003519Y003587D03*
X003519Y003585D03*
X003519Y003584D03*
X003519Y003583D03*
X003519Y003582D03*
X003519Y003580D03*
X003519Y003579D03*
X003519Y003578D03*
X003519Y003782D03*
D81*
X002902Y003783D03*
X002902Y003782D03*
X002902Y003780D03*
X002902Y003779D03*
X002902Y003778D03*
X002902Y003777D03*
X002902Y003775D03*
X002902Y003774D03*
X002902Y003773D03*
X002902Y003772D03*
X002902Y003770D03*
X002902Y003769D03*
X002902Y003768D03*
X002902Y003767D03*
X002902Y003765D03*
X002902Y003764D03*
X002902Y003763D03*
X002902Y003762D03*
X002902Y003760D03*
X002902Y003759D03*
X002902Y003758D03*
X002902Y003757D03*
X002902Y003755D03*
X002902Y003754D03*
X002902Y003753D03*
X002902Y003752D03*
X002902Y003750D03*
X002902Y003749D03*
X002902Y003748D03*
X002902Y003747D03*
X002902Y003745D03*
X002902Y003744D03*
X002902Y003743D03*
X002902Y003742D03*
X002902Y003740D03*
X002902Y003739D03*
X002902Y003738D03*
X002902Y003737D03*
X002902Y003735D03*
X002902Y003734D03*
X002902Y003733D03*
X002902Y003732D03*
X002902Y003730D03*
X002902Y003729D03*
X002902Y003728D03*
X002902Y003727D03*
X002902Y003725D03*
X002902Y003724D03*
X002902Y003723D03*
X002902Y003722D03*
X002902Y003720D03*
X002902Y003719D03*
X002902Y003718D03*
X002902Y003717D03*
X002902Y003715D03*
X002902Y003714D03*
X002902Y003713D03*
X002902Y003712D03*
X002902Y003710D03*
X002902Y003709D03*
X002902Y003708D03*
X002902Y003707D03*
X002902Y003705D03*
X002902Y003704D03*
X002902Y003703D03*
X002902Y003702D03*
X002902Y003700D03*
X002902Y003699D03*
X002902Y003698D03*
X002902Y003697D03*
X002902Y003695D03*
X002902Y003694D03*
X002902Y003693D03*
X002902Y003692D03*
X002902Y003690D03*
X002902Y003689D03*
X002902Y003688D03*
X002902Y003687D03*
X002902Y003685D03*
X002902Y003684D03*
X002902Y003683D03*
X002902Y003682D03*
X002902Y003680D03*
X002902Y003679D03*
X002902Y003678D03*
X002902Y003677D03*
X002902Y003675D03*
X002902Y003674D03*
X002902Y003673D03*
X002902Y003672D03*
X002902Y003670D03*
X002902Y003669D03*
X002902Y003668D03*
X002902Y003667D03*
X002902Y003665D03*
X002902Y003664D03*
X002902Y003663D03*
X002902Y003662D03*
X002902Y003660D03*
X002902Y003659D03*
X002902Y003658D03*
X002902Y003657D03*
X002902Y003655D03*
X002902Y003654D03*
X002902Y003653D03*
X002902Y003652D03*
X002902Y003650D03*
X002902Y003649D03*
X002902Y003648D03*
X002902Y003647D03*
X002902Y003645D03*
X002902Y003644D03*
X002902Y003643D03*
X002902Y003642D03*
X002902Y003640D03*
X002902Y003639D03*
X002902Y003638D03*
X002902Y003637D03*
X002902Y003635D03*
X002902Y003634D03*
X002902Y003633D03*
X002902Y003632D03*
X002902Y003630D03*
X002902Y003629D03*
X002902Y003628D03*
X002902Y003627D03*
X002902Y003625D03*
X002902Y003624D03*
X002902Y003623D03*
X002902Y003622D03*
X002902Y003620D03*
X002902Y003619D03*
X002902Y003618D03*
X002902Y003617D03*
X002902Y003615D03*
X002902Y003614D03*
X002902Y003613D03*
X002902Y003612D03*
X002902Y003610D03*
X002902Y003609D03*
X002902Y003608D03*
X002902Y003607D03*
X002902Y003605D03*
X002902Y003604D03*
X002902Y003603D03*
X002902Y003602D03*
X002902Y003600D03*
X002902Y003599D03*
X002902Y003598D03*
X002902Y003597D03*
X002902Y003595D03*
X002902Y003594D03*
X002902Y003593D03*
X002902Y003592D03*
X002902Y003590D03*
X002902Y003589D03*
X002902Y003588D03*
X002902Y003587D03*
X002902Y003585D03*
X002902Y003584D03*
X002902Y003583D03*
X002902Y003582D03*
X002902Y003580D03*
X002902Y003579D03*
X002902Y003578D03*
X002902Y003784D03*
D82*
X002902Y003784D03*
X002902Y003784D03*
X002902Y003785D03*
X002902Y003783D03*
X002902Y003781D03*
X002902Y003781D03*
X002902Y003780D03*
X002902Y003779D03*
X002902Y003779D03*
X002902Y003778D03*
X002902Y003776D03*
X002902Y003776D03*
X002902Y003775D03*
X002902Y003774D03*
X002902Y003774D03*
X002902Y003773D03*
X002902Y003771D03*
X002902Y003771D03*
X002902Y003770D03*
X002902Y003769D03*
X002902Y003769D03*
X002902Y003768D03*
X002902Y003766D03*
X002902Y003766D03*
X002902Y003765D03*
X002902Y003764D03*
X002902Y003764D03*
X002902Y003763D03*
X002902Y003761D03*
X002902Y003761D03*
X002902Y003760D03*
X002902Y003759D03*
X002902Y003759D03*
X002902Y003758D03*
X002902Y003756D03*
X002902Y003756D03*
X002902Y003755D03*
X002902Y003754D03*
X002902Y003754D03*
X002902Y003753D03*
X002902Y003751D03*
X002902Y003751D03*
X002902Y003750D03*
X002902Y003749D03*
X002902Y003749D03*
X002902Y003748D03*
X002902Y003746D03*
X002902Y003746D03*
X002902Y003745D03*
X002902Y003744D03*
X002902Y003744D03*
X002902Y003743D03*
X002902Y003741D03*
X002902Y003741D03*
X002902Y003740D03*
X002902Y003739D03*
X002902Y003739D03*
X002902Y003738D03*
X002902Y003736D03*
X002902Y003736D03*
X002902Y003735D03*
X002902Y003734D03*
X002902Y003734D03*
X002902Y003733D03*
X002902Y003731D03*
X002902Y003731D03*
X002902Y003730D03*
X002902Y003729D03*
X002902Y003729D03*
X002902Y003728D03*
X002902Y003726D03*
X002902Y003726D03*
X002902Y003725D03*
X002902Y003724D03*
X002902Y003724D03*
X002902Y003723D03*
X002902Y003721D03*
X002902Y003721D03*
X002902Y003720D03*
X002902Y003719D03*
X002902Y003719D03*
X002902Y003718D03*
X002902Y003716D03*
X002902Y003716D03*
X002902Y003715D03*
X002902Y003714D03*
X002902Y003714D03*
X002902Y003713D03*
X002902Y003711D03*
X002902Y003711D03*
X002902Y003710D03*
X002902Y003709D03*
X002902Y003709D03*
X002902Y003708D03*
X002902Y003706D03*
X002902Y003706D03*
X002902Y003705D03*
X002902Y003704D03*
X002902Y003704D03*
X002902Y003703D03*
X002902Y003701D03*
X002902Y003701D03*
X002902Y003700D03*
X002902Y003699D03*
X002902Y003699D03*
X002902Y003698D03*
X002902Y003696D03*
X002902Y003696D03*
X002902Y003695D03*
X002902Y003694D03*
X002902Y003694D03*
X002902Y003693D03*
X002902Y003691D03*
X002902Y003691D03*
X002902Y003690D03*
X002902Y003689D03*
X002902Y003689D03*
X002902Y003688D03*
X002902Y003686D03*
X002902Y003686D03*
X002902Y003685D03*
X002902Y003684D03*
X002902Y003684D03*
X002902Y003683D03*
X002902Y003681D03*
X002902Y003681D03*
X002902Y003680D03*
X002902Y003679D03*
X002902Y003679D03*
X002902Y003678D03*
X002902Y003676D03*
X002902Y003676D03*
X002902Y003675D03*
X002902Y003674D03*
X002902Y003674D03*
X002902Y003673D03*
X002902Y003671D03*
X002902Y003671D03*
X002902Y003670D03*
X002902Y003669D03*
X002902Y003669D03*
X002902Y003668D03*
X002902Y003666D03*
X002902Y003666D03*
X002902Y003665D03*
X002902Y003664D03*
X002902Y003664D03*
X002902Y003663D03*
X002902Y003661D03*
X002902Y003661D03*
X002902Y003660D03*
X002902Y003659D03*
X002902Y003659D03*
X002902Y003658D03*
X002902Y003656D03*
X002902Y003656D03*
X002902Y003655D03*
X002902Y003654D03*
X002902Y003654D03*
X002902Y003653D03*
X002902Y003651D03*
X002902Y003651D03*
X002902Y003650D03*
X002902Y003649D03*
X002902Y003649D03*
X002902Y003648D03*
X002902Y003646D03*
X002902Y003646D03*
X002902Y003645D03*
X002902Y003644D03*
X002902Y003644D03*
X002902Y003643D03*
X002902Y003641D03*
X002902Y003641D03*
X002902Y003640D03*
X002902Y003639D03*
X002902Y003639D03*
X002902Y003638D03*
X002902Y003636D03*
X002902Y003636D03*
X002902Y003635D03*
X002902Y003634D03*
X002902Y003634D03*
X002902Y003633D03*
X002902Y003631D03*
X002902Y003631D03*
X002902Y003630D03*
X002902Y003629D03*
X002902Y003629D03*
X002902Y003628D03*
X002902Y003626D03*
X002902Y003626D03*
X002902Y003625D03*
X002902Y003624D03*
X002902Y003624D03*
X002902Y003623D03*
X002902Y003621D03*
X002902Y003621D03*
X002902Y003620D03*
X002902Y003619D03*
X002902Y003619D03*
X002902Y003618D03*
X002902Y003616D03*
X002902Y003616D03*
X002902Y003615D03*
X002902Y003614D03*
X002902Y003614D03*
X002902Y003613D03*
X002902Y003611D03*
X002902Y003611D03*
X002902Y003610D03*
X002902Y003609D03*
X002902Y003609D03*
X002902Y003608D03*
X002902Y003606D03*
X002902Y003606D03*
X002902Y003605D03*
X002902Y003604D03*
X002902Y003604D03*
X002902Y003603D03*
X002902Y003601D03*
X002902Y003601D03*
X002902Y003600D03*
X002902Y003599D03*
X002902Y003599D03*
X002902Y003598D03*
X002902Y003596D03*
X002902Y003596D03*
X002902Y003595D03*
X002902Y003594D03*
X002902Y003594D03*
X002902Y003593D03*
X002902Y003591D03*
X002902Y003591D03*
X002902Y003590D03*
X002902Y003589D03*
X002902Y003589D03*
X002902Y003588D03*
X002902Y003586D03*
X002902Y003586D03*
X002902Y003585D03*
X002902Y003584D03*
X002902Y003584D03*
X002902Y003583D03*
X002902Y003581D03*
X002902Y003581D03*
X002902Y003580D03*
X002902Y003579D03*
X002902Y003579D03*
D83*
X002902Y003788D03*
D84*
X003519Y003789D03*
D85*
X002902Y003790D03*
D86*
X003519Y003790D03*
D87*
X003519Y003791D03*
D88*
X003519Y003793D03*
D89*
X003519Y003794D03*
D90*
X002902Y003794D03*
D91*
X003519Y003795D03*
D92*
X003519Y003795D03*
D93*
X002902Y003795D03*
D94*
X003519Y003796D03*
D95*
X002902Y003796D03*
D96*
X003519Y003796D03*
D97*
X003519Y003797D03*
D98*
X002902Y003797D03*
D99*
X003519Y003798D03*
D100*
X002902Y003798D03*
D101*
X003519Y003798D03*
D102*
X002902Y003798D03*
D103*
X003519Y003799D03*
D104*
X002902Y003799D03*
D105*
X003519Y003799D03*
D106*
X002902Y003799D03*
D107*
X003519Y003799D03*
D108*
X002902Y003799D03*
D109*
X003519Y003800D03*
D110*
X002902Y003800D03*
D111*
X003519Y003800D03*
D112*
X002902Y003800D03*
D113*
X003519Y003801D03*
D114*
X002902Y003801D03*
D115*
X003519Y003801D03*
D116*
X003519Y003802D03*
D117*
X002902Y003802D03*
D118*
X003519Y003803D03*
D119*
X002902Y003803D03*
D120*
X003519Y003803D03*
D121*
X002902Y003803D03*
D122*
X003519Y003804D03*
D123*
X002902Y003804D03*
D124*
X003519Y003804D03*
D125*
X003519Y003804D03*
D126*
X002902Y003804D03*
D127*
X003517Y003805D03*
D128*
X002902Y003805D03*
D129*
X003518Y003805D03*
X003518Y003807D03*
D130*
X002902Y003805D03*
D131*
X003518Y003806D03*
X003518Y003806D03*
D132*
X002902Y003806D03*
D133*
X002902Y003807D03*
D134*
X003518Y003808D03*
X003518Y003809D03*
D135*
X002902Y003808D03*
D136*
X003518Y003808D03*
D137*
X002902Y003808D03*
D138*
X002898Y003809D03*
X002898Y003809D03*
X002898Y003810D03*
D139*
X003518Y003810D03*
X003518Y003809D03*
D140*
X003518Y003809D03*
X003518Y003810D03*
D141*
X002898Y003809D03*
D142*
X002898Y003810D03*
X002898Y003812D03*
X003527Y003869D03*
D143*
X003518Y003811D03*
X003518Y003811D03*
D144*
X003527Y003869D03*
X003527Y003869D03*
X003527Y003870D03*
X002898Y003811D03*
X002898Y003811D03*
D145*
X003518Y003812D03*
D146*
X003519Y003813D03*
X003519Y003814D03*
D147*
X002898Y003814D03*
X002898Y003814D03*
X002898Y003813D03*
D148*
X003519Y003813D03*
D149*
X002898Y003813D03*
D150*
X003519Y003814D03*
X003519Y003815D03*
D151*
X003519Y003815D03*
X003519Y003814D03*
D152*
X003527Y003872D03*
X003527Y003873D03*
X002897Y003815D03*
X002897Y003814D03*
D153*
X002897Y003815D03*
X002897Y003816D03*
X003527Y003873D03*
D154*
X003519Y003816D03*
X003519Y003816D03*
D155*
X003528Y003874D03*
X003528Y003874D03*
X003528Y003875D03*
X002897Y003819D03*
X002897Y003818D03*
X002897Y003816D03*
D156*
X003519Y003817D03*
D157*
X003528Y003874D03*
X002897Y003818D03*
X002897Y003817D03*
D158*
X003519Y003818D03*
X003519Y003819D03*
X003519Y003819D03*
D159*
X003519Y003818D03*
D160*
X002897Y003819D03*
X002897Y003820D03*
D161*
X003520Y003820D03*
X003520Y003819D03*
D162*
X002897Y003819D03*
X002897Y003820D03*
D163*
X003520Y003820D03*
D164*
X003520Y003821D03*
X003520Y003821D03*
D165*
X003528Y003878D03*
X003528Y003879D03*
X002897Y003823D03*
X002897Y003821D03*
X002897Y003821D03*
D166*
X003520Y003822D03*
D167*
X003528Y003877D03*
X003528Y003878D03*
X002897Y003822D03*
D168*
X003520Y003823D03*
X003520Y003824D03*
X003520Y003824D03*
D169*
X003520Y003823D03*
D170*
X002896Y003823D03*
X002896Y003824D03*
D171*
X002896Y003824D03*
X002896Y003824D03*
D172*
X003520Y003824D03*
X003520Y003825D03*
D173*
X003520Y003825D03*
D174*
X003529Y003881D03*
X003529Y003881D03*
X002896Y003826D03*
X002896Y003826D03*
X002896Y003825D03*
D175*
X002896Y003825D03*
X003529Y003880D03*
D176*
X003521Y003828D03*
X003521Y003826D03*
X003521Y003826D03*
D177*
X003521Y003827D03*
D178*
X003529Y003882D03*
X003529Y003883D03*
X002896Y003828D03*
X002896Y003827D03*
D179*
X002896Y003828D03*
X002896Y003829D03*
X003529Y003883D03*
X003529Y003884D03*
D180*
X003521Y003828D03*
D181*
X003521Y003829D03*
X003521Y003829D03*
D182*
X002896Y003830D03*
X002896Y003831D03*
X002896Y003829D03*
D183*
X003521Y003829D03*
X003521Y003830D03*
D184*
X002896Y003830D03*
X002896Y003829D03*
D185*
X003521Y003830D03*
D186*
X003521Y003831D03*
X003521Y003831D03*
X003521Y003833D03*
D187*
X003529Y003886D03*
X003529Y003886D03*
X002895Y003833D03*
X002895Y003831D03*
D188*
X003521Y003832D03*
D189*
X003529Y003885D03*
X003529Y003887D03*
X002895Y003833D03*
X002895Y003832D03*
D190*
X003521Y003833D03*
D191*
X003521Y003834D03*
X003521Y003834D03*
D192*
X002895Y003835D03*
X002895Y003834D03*
X002895Y003834D03*
D193*
X003522Y003834D03*
X003522Y003835D03*
D194*
X002895Y003834D03*
D195*
X003522Y003835D03*
X003522Y003836D03*
D196*
X003530Y003889D03*
X002895Y003837D03*
X002895Y003835D03*
D197*
X002895Y003836D03*
X002895Y003836D03*
X003530Y003889D03*
X003530Y003890D03*
D198*
X003522Y003838D03*
X003522Y003836D03*
D199*
X003522Y003837D03*
D200*
X003530Y003891D03*
X003530Y003891D03*
X002895Y003839D03*
X002895Y003839D03*
X002895Y003838D03*
D201*
X003522Y003838D03*
D202*
X003530Y003890D03*
X003530Y003892D03*
X002895Y003838D03*
D203*
X003522Y003839D03*
X003522Y003839D03*
D204*
X003523Y003839D03*
X003523Y003840D03*
D205*
X002894Y003840D03*
X002894Y003839D03*
D206*
X003523Y003840D03*
X003523Y003841D03*
D207*
X002894Y003841D03*
X002894Y003840D03*
D208*
X003523Y003841D03*
X003523Y003843D03*
D209*
X003531Y003894D03*
X003531Y003895D03*
X002894Y003844D03*
X002894Y003843D03*
X002894Y003841D03*
D210*
X003523Y003842D03*
D211*
X003531Y003894D03*
X003531Y003895D03*
X002894Y003843D03*
X002894Y003842D03*
D212*
X003523Y003843D03*
X003523Y003844D03*
D213*
X003523Y003844D03*
X003523Y003844D03*
D214*
X002894Y003845D03*
X002894Y003844D03*
D215*
X002894Y003844D03*
X002894Y003845D03*
D216*
X003523Y003846D03*
X003523Y003845D03*
D217*
X003523Y003845D03*
D218*
X003531Y003898D03*
X003531Y003899D03*
X002894Y003848D03*
X002894Y003846D03*
X002894Y003846D03*
D219*
X003524Y003846D03*
X003524Y003848D03*
D220*
X003524Y003847D03*
D221*
X003531Y003898D03*
X002894Y003847D03*
D222*
X003524Y003848D03*
X003524Y003849D03*
D223*
X003531Y003899D03*
X003531Y003900D03*
X002893Y003849D03*
X002893Y003848D03*
D224*
X003524Y003849D03*
X003524Y003849D03*
D225*
X003531Y003899D03*
X003531Y003900D03*
X002893Y003849D03*
X002893Y003849D03*
D226*
X003524Y003850D03*
X003524Y003851D03*
D227*
X002893Y003851D03*
X002893Y003851D03*
X002893Y003850D03*
D228*
X003524Y003850D03*
D229*
X002893Y003850D03*
D230*
X003524Y003851D03*
X003524Y003853D03*
D231*
X003524Y003853D03*
X003524Y003852D03*
D232*
X003532Y003903D03*
X002893Y003853D03*
X002893Y003852D03*
D233*
X002893Y003853D03*
X002893Y003854D03*
X003532Y003903D03*
X003532Y003904D03*
X003532Y003904D03*
D234*
X003525Y003854D03*
X003525Y003854D03*
D235*
X002893Y003855D03*
X002893Y003856D03*
X002893Y003854D03*
D236*
X003525Y003854D03*
D237*
X002893Y003854D03*
X002893Y003855D03*
D238*
X003525Y003856D03*
X003525Y003855D03*
D239*
X003525Y003855D03*
D240*
X003525Y003856D03*
X003525Y003858D03*
D241*
X003532Y003906D03*
X003532Y003906D03*
X002892Y003858D03*
X002892Y003856D03*
D242*
X003525Y003857D03*
X003525Y003858D03*
D243*
X003532Y003907D03*
X002892Y003858D03*
X002892Y003857D03*
D244*
X003525Y003859D03*
X003525Y003859D03*
D245*
X003533Y003908D03*
X003533Y003909D03*
X003533Y003909D03*
X002892Y003860D03*
X002892Y003859D03*
X002892Y003859D03*
D246*
X003525Y003859D03*
D247*
X003533Y003908D03*
X002892Y003859D03*
D248*
X003526Y003860D03*
X003526Y003861D03*
X003526Y003861D03*
D249*
X003526Y003860D03*
D250*
X002892Y003860D03*
X002892Y003862D03*
D251*
X002892Y003861D03*
X002892Y003861D03*
D252*
X003526Y003862D03*
X003526Y003863D03*
D253*
X003526Y003863D03*
D254*
X003533Y003911D03*
X003533Y003911D03*
X003533Y003913D03*
X002892Y003864D03*
X002892Y003864D03*
X002892Y003863D03*
D255*
X002892Y003863D03*
X003533Y003912D03*
D256*
X003526Y003864D03*
X003526Y003864D03*
D257*
X003526Y003864D03*
D258*
X002891Y003864D03*
X002891Y003865D03*
D259*
X003526Y003866D03*
X003526Y003866D03*
X003526Y003865D03*
D260*
X002891Y003866D03*
X002891Y003865D03*
D261*
X003526Y003865D03*
D262*
X003534Y003915D03*
X003534Y003916D03*
X002891Y003869D03*
X002891Y003868D03*
X002891Y003866D03*
D263*
X003526Y003867D03*
X003526Y003868D03*
D264*
X003534Y003914D03*
X003534Y003915D03*
X002891Y003868D03*
X002891Y003867D03*
D265*
X003526Y003868D03*
D266*
X003534Y003916D03*
X003534Y003918D03*
X002891Y003870D03*
X002891Y003869D03*
D267*
X002891Y003869D03*
X002891Y003870D03*
X003534Y003917D03*
D268*
X003527Y003870D03*
D269*
X003527Y003871D03*
X003527Y003871D03*
D270*
X002891Y003871D03*
X002891Y003871D03*
X002891Y003873D03*
D271*
X002891Y003872D03*
D272*
X002890Y003873D03*
X002890Y003874D03*
X003534Y003919D03*
X003534Y003920D03*
D273*
X003534Y003920D03*
X003534Y003921D03*
X002890Y003874D03*
X002890Y003874D03*
D274*
X002890Y003875D03*
X002890Y003876D03*
X002890Y003876D03*
D275*
X003528Y003875D03*
D276*
X002890Y003875D03*
D277*
X003528Y003876D03*
X003528Y003876D03*
D278*
X003535Y003923D03*
X003535Y003924D03*
X002890Y003878D03*
X002890Y003877D03*
D279*
X002890Y003878D03*
X002890Y003879D03*
X003535Y003924D03*
X003535Y003924D03*
D280*
X003528Y003880D03*
X003528Y003879D03*
D281*
X003535Y003925D03*
X003535Y003926D03*
X002890Y003881D03*
X002890Y003880D03*
X002890Y003879D03*
D282*
X003528Y003879D03*
D283*
X003535Y003925D03*
X002890Y003880D03*
X002890Y003879D03*
D284*
X002889Y003881D03*
X002889Y003883D03*
D285*
X002889Y003883D03*
X002889Y003882D03*
D286*
X002889Y003884D03*
X002889Y003884D03*
X002889Y003885D03*
X003536Y003929D03*
X003536Y003929D03*
D287*
X003529Y003885D03*
X003529Y003884D03*
D288*
X003529Y003884D03*
D289*
X003536Y003928D03*
X003536Y003929D03*
X002889Y003884D03*
D290*
X002889Y003885D03*
X002889Y003887D03*
D291*
X002889Y003886D03*
X002889Y003886D03*
D292*
X003530Y003888D03*
X003530Y003889D03*
D293*
X003536Y003931D03*
X003536Y003933D03*
X002889Y003889D03*
X002889Y003889D03*
X002889Y003888D03*
D294*
X003530Y003888D03*
D295*
X003536Y003932D03*
X003536Y003933D03*
X002889Y003888D03*
D296*
X002888Y003889D03*
X002888Y003890D03*
X003536Y003934D03*
D297*
X003536Y003934D03*
X003536Y003934D03*
X002888Y003891D03*
X002888Y003890D03*
D298*
X002888Y003891D03*
X002888Y003893D03*
X002888Y003894D03*
D299*
X002888Y003893D03*
X002888Y003892D03*
D300*
X003530Y003893D03*
X003530Y003894D03*
D301*
X003530Y003893D03*
D302*
X003537Y003936D03*
X003537Y003938D03*
X002888Y003895D03*
X002888Y003894D03*
D303*
X002888Y003894D03*
X002888Y003895D03*
X003537Y003937D03*
X003537Y003938D03*
D304*
X003531Y003896D03*
X003531Y003896D03*
D305*
X002888Y003896D03*
X002888Y003896D03*
X002888Y003898D03*
D306*
X003531Y003897D03*
D307*
X002888Y003897D03*
D308*
X002887Y003898D03*
X002887Y003899D03*
X003537Y003940D03*
D309*
X003537Y003940D03*
X003537Y003941D03*
X003537Y003941D03*
X002887Y003899D03*
X002887Y003899D03*
D310*
X002887Y003900D03*
X002887Y003901D03*
X002887Y003901D03*
X003538Y003943D03*
D311*
X003538Y003943D03*
X003538Y003942D03*
X002887Y003900D03*
D312*
X003531Y003901D03*
X003531Y003901D03*
D313*
X003531Y003902D03*
D314*
X002887Y003903D03*
X002887Y003902D03*
D315*
X002887Y003903D03*
X002887Y003904D03*
D316*
X002887Y003904D03*
X002887Y003905D03*
X002887Y003906D03*
X003538Y003945D03*
X003538Y003946D03*
X003538Y003946D03*
D317*
X003532Y003905D03*
X003532Y003904D03*
D318*
X003538Y003945D03*
X002887Y003905D03*
X002887Y003904D03*
D319*
X003532Y003905D03*
D320*
X002886Y003906D03*
X002886Y003908D03*
D321*
X002886Y003908D03*
X002886Y003907D03*
D322*
X002886Y003909D03*
X002886Y003909D03*
X002886Y003910D03*
X003539Y003949D03*
X003539Y003949D03*
X003539Y003950D03*
D323*
X003533Y003910D03*
X003533Y003909D03*
D324*
X003539Y003949D03*
X002886Y003909D03*
D325*
X003533Y003910D03*
D326*
X003539Y003950D03*
X002886Y003912D03*
X002886Y003910D03*
D327*
X002886Y003911D03*
X002886Y003911D03*
X003539Y003951D03*
X003539Y003951D03*
D328*
X002886Y003914D03*
X002886Y003914D03*
X002886Y003913D03*
D329*
X003533Y003913D03*
D330*
X002886Y003913D03*
D331*
X003533Y003914D03*
X003533Y003914D03*
D332*
X003539Y003954D03*
X002885Y003915D03*
X002885Y003914D03*
D333*
X002885Y003915D03*
X002885Y003916D03*
X003539Y003954D03*
X003539Y003954D03*
X003539Y003955D03*
D334*
X002885Y003919D03*
X002885Y003918D03*
X002885Y003916D03*
D335*
X002885Y003917D03*
X002885Y003918D03*
D336*
X003534Y003918D03*
D337*
X003534Y003919D03*
X003534Y003919D03*
D338*
X003540Y003958D03*
X003540Y003959D03*
X002885Y003920D03*
X002885Y003919D03*
D339*
X002885Y003919D03*
X002885Y003920D03*
X003540Y003957D03*
X003540Y003958D03*
D340*
X003540Y003959D03*
X003540Y003960D03*
X002885Y003923D03*
X002885Y003921D03*
X002885Y003921D03*
D341*
X003535Y003921D03*
X003535Y003923D03*
D342*
X003535Y003922D03*
D343*
X003540Y003959D03*
X002885Y003922D03*
D344*
X002884Y003923D03*
X002884Y003924D03*
D345*
X002884Y003924D03*
X002884Y003924D03*
D346*
X002884Y003925D03*
X002884Y003926D03*
X002884Y003926D03*
X003541Y003963D03*
X003541Y003964D03*
D347*
X003541Y003963D03*
X003541Y003962D03*
X002884Y003925D03*
D348*
X003535Y003926D03*
X003535Y003928D03*
D349*
X003535Y003927D03*
D350*
X002884Y003928D03*
X002884Y003927D03*
D351*
X002884Y003928D03*
X002884Y003929D03*
D352*
X002884Y003929D03*
X002884Y003930D03*
X002884Y003931D03*
X003541Y003966D03*
X003541Y003966D03*
D353*
X003541Y003965D03*
X003541Y003967D03*
X002884Y003930D03*
X002884Y003929D03*
D354*
X003536Y003930D03*
X003536Y003931D03*
D355*
X003536Y003930D03*
D356*
X003541Y003968D03*
X003541Y003969D03*
X002883Y003933D03*
X002883Y003931D03*
D357*
X002883Y003932D03*
X002883Y003933D03*
X003541Y003968D03*
D358*
X002883Y003935D03*
X002883Y003934D03*
X002883Y003934D03*
D359*
X002883Y003934D03*
D360*
X003536Y003935D03*
X003536Y003936D03*
D361*
X003536Y003935D03*
D362*
X003542Y003970D03*
X003542Y003972D03*
X002883Y003937D03*
X002883Y003935D03*
D363*
X002883Y003936D03*
X002883Y003936D03*
X003542Y003971D03*
X003542Y003971D03*
D364*
X002883Y003939D03*
X002883Y003939D03*
X002883Y003938D03*
D365*
X002883Y003938D03*
D366*
X003537Y003939D03*
X003537Y003939D03*
D367*
X003537Y003939D03*
D368*
X003542Y003974D03*
X003542Y003975D03*
X002882Y003940D03*
X002882Y003939D03*
D369*
X002882Y003940D03*
X002882Y003941D03*
X003542Y003974D03*
X003542Y003975D03*
D370*
X003543Y003976D03*
X003543Y003976D03*
X002882Y003944D03*
X002882Y003943D03*
X002882Y003941D03*
D371*
X002882Y003942D03*
X002882Y003943D03*
X003543Y003977D03*
D372*
X003538Y003944D03*
X003538Y003944D03*
D373*
X002882Y003945D03*
X002882Y003944D03*
D374*
X003538Y003944D03*
D375*
X002882Y003944D03*
X002882Y003945D03*
D376*
X002882Y003946D03*
X002882Y003946D03*
X002882Y003948D03*
X003543Y003979D03*
X003543Y003980D03*
D377*
X003538Y003948D03*
X003538Y003947D03*
D378*
X003543Y003979D03*
X003543Y003980D03*
X002882Y003947D03*
D379*
X003538Y003948D03*
D380*
X002881Y003948D03*
X002881Y003949D03*
D381*
X002881Y003949D03*
X002881Y003949D03*
D382*
X002881Y003950D03*
X002881Y003951D03*
X002881Y003951D03*
X003544Y003983D03*
X003544Y003984D03*
X003544Y003984D03*
D383*
X003544Y003983D03*
X002881Y003950D03*
D384*
X003539Y003952D03*
X003539Y003953D03*
D385*
X003544Y003984D03*
X003544Y003985D03*
X002881Y003953D03*
X002881Y003952D03*
D386*
X003539Y003953D03*
D387*
X003544Y003985D03*
X002881Y003954D03*
X002881Y003953D03*
D388*
X002881Y003954D03*
X002881Y003955D03*
X002881Y003956D03*
D389*
X002881Y003955D03*
X002881Y003954D03*
D390*
X003540Y003955D03*
D391*
X003540Y003956D03*
X003540Y003956D03*
D392*
X003544Y003988D03*
X003544Y003989D03*
X003544Y003989D03*
X002880Y003958D03*
X002880Y003956D03*
D393*
X002880Y003957D03*
X002880Y003958D03*
X003544Y003988D03*
D394*
X002880Y003960D03*
X002880Y003959D03*
X002880Y003959D03*
D395*
X002880Y003959D03*
D396*
X003540Y003960D03*
D397*
X003545Y003992D03*
X002880Y003962D03*
X002880Y003960D03*
D398*
X003540Y003961D03*
X003540Y003961D03*
D399*
X003545Y003991D03*
X003545Y003991D03*
X003545Y003993D03*
X002880Y003961D03*
X002880Y003961D03*
D400*
X002880Y003963D03*
X002880Y003964D03*
X002880Y003964D03*
X003545Y003994D03*
X003545Y003994D03*
D401*
X003545Y003993D03*
X002880Y003963D03*
D402*
X003541Y003964D03*
X003541Y003965D03*
D403*
X003541Y003964D03*
D404*
X002879Y003964D03*
X002879Y003965D03*
D405*
X002879Y003965D03*
X002879Y003966D03*
D406*
X002879Y003966D03*
X002879Y003968D03*
X002879Y003969D03*
X003546Y003996D03*
X003546Y003996D03*
X003546Y003998D03*
D407*
X003546Y003997D03*
X002879Y003968D03*
X002879Y003967D03*
D408*
X003541Y003969D03*
X003541Y003970D03*
D409*
X002879Y003970D03*
X002879Y003969D03*
D410*
X003541Y003969D03*
D411*
X002879Y003969D03*
X002879Y003970D03*
D412*
X002879Y003971D03*
X002879Y003971D03*
X002879Y003973D03*
X003546Y004000D03*
X003546Y004001D03*
D413*
X003546Y004000D03*
X003546Y003999D03*
X002879Y003972D03*
D414*
X003542Y003973D03*
X003542Y003974D03*
D415*
X003542Y003973D03*
D416*
X003546Y004002D03*
X002878Y003974D03*
X002878Y003973D03*
D417*
X002878Y003974D03*
X002878Y003974D03*
X003546Y004001D03*
X003546Y004003D03*
D418*
X002878Y003976D03*
X002878Y003976D03*
X002878Y003975D03*
D419*
X002878Y003975D03*
D420*
X002878Y003977D03*
X002878Y003978D03*
X003547Y004004D03*
X003547Y004005D03*
D421*
X003543Y003979D03*
X003543Y003978D03*
D422*
X003547Y004005D03*
X003547Y004006D03*
X002878Y003979D03*
X002878Y003978D03*
D423*
X003543Y003978D03*
D424*
X002878Y003979D03*
X002878Y003980D03*
X002878Y003981D03*
D425*
X002878Y003980D03*
X002878Y003979D03*
D426*
X003543Y003981D03*
X003543Y003981D03*
D427*
X003547Y004009D03*
X003547Y004009D03*
X002877Y003983D03*
X002877Y003981D03*
D428*
X003543Y003982D03*
D429*
X003547Y004008D03*
X003547Y004009D03*
X002877Y003983D03*
X002877Y003982D03*
D430*
X002877Y003984D03*
X002877Y003984D03*
X002877Y003985D03*
X003548Y004010D03*
X003548Y004011D03*
D431*
X003548Y004010D03*
X002877Y003984D03*
D432*
X002877Y003985D03*
X002877Y003987D03*
D433*
X003544Y003986D03*
X003544Y003986D03*
D434*
X002877Y003986D03*
X002877Y003986D03*
D435*
X003544Y003987D03*
D436*
X003548Y004014D03*
X003548Y004014D03*
X002877Y003989D03*
X002877Y003989D03*
X002877Y003988D03*
D437*
X002877Y003988D03*
X003548Y004013D03*
X003548Y004014D03*
D438*
X003545Y003990D03*
X003545Y003989D03*
D439*
X002876Y003989D03*
X002876Y003990D03*
D440*
X003545Y003990D03*
D441*
X002876Y003991D03*
X002876Y003990D03*
D442*
X002876Y003991D03*
X002876Y003993D03*
X002876Y003994D03*
X003549Y004016D03*
X003549Y004018D03*
D443*
X003549Y004018D03*
X003549Y004017D03*
X002876Y003993D03*
X002876Y003992D03*
D444*
X002876Y003994D03*
X002876Y003995D03*
X003549Y004019D03*
X003549Y004019D03*
D445*
X003545Y003995D03*
X003545Y003994D03*
D446*
X003549Y004019D03*
X002876Y003995D03*
X002876Y003994D03*
D447*
X003545Y003995D03*
D448*
X002876Y003996D03*
X002876Y003996D03*
X002876Y003998D03*
D449*
X002876Y003997D03*
D450*
X003546Y003998D03*
D451*
X003549Y004022D03*
X003549Y004023D03*
X002875Y003999D03*
X002875Y003998D03*
D452*
X003546Y003999D03*
X003546Y003999D03*
D453*
X003549Y004021D03*
X003549Y004023D03*
X002875Y003999D03*
X002875Y003999D03*
D454*
X002875Y004000D03*
X002875Y004001D03*
X002875Y004001D03*
D455*
X002875Y004000D03*
D456*
X002875Y004002D03*
X002875Y004003D03*
X003550Y004025D03*
D457*
X003550Y004025D03*
X003550Y004026D03*
X003550Y004026D03*
X002875Y004004D03*
X002875Y004003D03*
D458*
X003546Y004003D03*
D459*
X003546Y004004D03*
X003546Y004004D03*
D460*
X003550Y004028D03*
X002875Y004006D03*
X002875Y004005D03*
X002875Y004004D03*
D461*
X002875Y004004D03*
X002875Y004005D03*
X003550Y004027D03*
X003550Y004028D03*
D462*
X003547Y004008D03*
X003547Y004006D03*
D463*
X002874Y004006D03*
X002874Y004008D03*
D464*
X003547Y004007D03*
D465*
X002874Y004008D03*
X002874Y004007D03*
D466*
X002874Y004009D03*
X002874Y004009D03*
X002874Y004010D03*
X003551Y004030D03*
X003551Y004031D03*
X003551Y004031D03*
D467*
X003551Y004030D03*
X002874Y004009D03*
D468*
X002874Y004010D03*
X002874Y004012D03*
D469*
X002874Y004011D03*
X002874Y004011D03*
D470*
X003548Y004011D03*
X003548Y004013D03*
D471*
X003548Y004012D03*
D472*
X003551Y004034D03*
X003551Y004034D03*
X003551Y004035D03*
X002874Y004014D03*
X002874Y004014D03*
X002874Y004013D03*
D473*
X002874Y004013D03*
X003551Y004034D03*
D474*
X003551Y004035D03*
X002873Y004015D03*
X002873Y004014D03*
D475*
X003548Y004015D03*
X003548Y004016D03*
D476*
X003551Y004036D03*
X003551Y004036D03*
X002873Y004016D03*
X002873Y004015D03*
D477*
X003548Y004015D03*
D478*
X002873Y004016D03*
X002873Y004018D03*
X002873Y004019D03*
D479*
X002873Y004018D03*
X002873Y004017D03*
D480*
X002873Y004019D03*
X002873Y004020D03*
X003552Y004039D03*
X003552Y004039D03*
X003552Y004040D03*
D481*
X003552Y004039D03*
X002873Y004020D03*
X002873Y004019D03*
D482*
X003549Y004020D03*
X003549Y004021D03*
D483*
X003549Y004020D03*
D484*
X002873Y004021D03*
X002873Y004021D03*
X002873Y004023D03*
D485*
X002873Y004022D03*
D486*
X002872Y004023D03*
X002872Y004024D03*
X003552Y004042D03*
X003552Y004043D03*
D487*
X003550Y004024D03*
X003550Y004024D03*
D488*
X003552Y004043D03*
X003552Y004044D03*
X002872Y004024D03*
X002872Y004024D03*
D489*
X003550Y004024D03*
D490*
X003553Y004044D03*
X003553Y004045D03*
X002872Y004026D03*
X002872Y004026D03*
X002872Y004025D03*
D491*
X002872Y004025D03*
X003553Y004044D03*
D492*
X002872Y004028D03*
X002872Y004027D03*
D493*
X002872Y004028D03*
X002872Y004029D03*
D494*
X003550Y004029D03*
X003550Y004029D03*
D495*
X003553Y004048D03*
X003553Y004049D03*
X002872Y004031D03*
X002872Y004030D03*
X002872Y004029D03*
D496*
X003550Y004029D03*
D497*
X003553Y004047D03*
X003553Y004048D03*
X002872Y004030D03*
X002872Y004029D03*
D498*
X002871Y004031D03*
X002871Y004033D03*
D499*
X003551Y004033D03*
X003551Y004032D03*
D500*
X002871Y004033D03*
X002871Y004032D03*
D501*
X003551Y004033D03*
D502*
X003554Y004051D03*
X003554Y004051D03*
X002871Y004035D03*
X002871Y004034D03*
X002871Y004034D03*
D503*
X002871Y004034D03*
X003554Y004050D03*
X003554Y004052D03*
D504*
X003554Y004053D03*
X002871Y004037D03*
X002871Y004035D03*
D505*
X002871Y004036D03*
X002871Y004036D03*
X003554Y004053D03*
X003554Y004054D03*
D506*
X003551Y004038D03*
X003551Y004037D03*
D507*
X003551Y004038D03*
D508*
X002871Y004039D03*
X002871Y004039D03*
X002871Y004038D03*
D509*
X002871Y004038D03*
D510*
X002870Y004039D03*
X002870Y004040D03*
X003554Y004055D03*
X003554Y004057D03*
D511*
X003554Y004056D03*
X003554Y004056D03*
X002870Y004041D03*
X002870Y004040D03*
D512*
X003552Y004040D03*
D513*
X003552Y004041D03*
X003552Y004041D03*
D514*
X002870Y004041D03*
X002870Y004043D03*
X002870Y004044D03*
D515*
X002870Y004043D03*
X002870Y004042D03*
D516*
X002870Y004044D03*
X002870Y004045D03*
X003555Y004059D03*
X003555Y004060D03*
D517*
X003555Y004060D03*
X003555Y004059D03*
X002870Y004045D03*
X002870Y004044D03*
D518*
X003553Y004045D03*
D519*
X003553Y004046D03*
X003553Y004046D03*
D520*
X003555Y004061D03*
X003555Y004061D03*
X002870Y004048D03*
X002870Y004046D03*
X002870Y004046D03*
D521*
X002870Y004047D03*
X003555Y004062D03*
D522*
X002869Y004049D03*
X002869Y004048D03*
D523*
X002869Y004049D03*
X002869Y004049D03*
D524*
X003553Y004050D03*
X003553Y004049D03*
D525*
X003553Y004049D03*
D526*
X003556Y004064D03*
X003556Y004065D03*
X002869Y004051D03*
X002869Y004051D03*
X002869Y004050D03*
D527*
X002869Y004050D03*
X003556Y004064D03*
X003556Y004065D03*
D528*
X002869Y004053D03*
X002869Y004052D03*
D529*
X002869Y004053D03*
X002869Y004054D03*
D530*
X003554Y004055D03*
X003554Y004054D03*
D531*
X003556Y004068D03*
X003556Y004069D03*
X003556Y004069D03*
X002869Y004056D03*
X002869Y004055D03*
X002869Y004054D03*
D532*
X003554Y004054D03*
D533*
X003556Y004068D03*
X002869Y004055D03*
X002869Y004054D03*
D534*
X002868Y004056D03*
X002868Y004058D03*
X003556Y004070D03*
D535*
X003556Y004070D03*
X003556Y004069D03*
X002868Y004058D03*
X002868Y004057D03*
D536*
X003555Y004058D03*
X003555Y004059D03*
D537*
X003555Y004058D03*
D538*
X002868Y004059D03*
X002868Y004059D03*
X002868Y004060D03*
D539*
X002868Y004059D03*
D540*
X002868Y004060D03*
X002868Y004062D03*
X003557Y004073D03*
D541*
X003557Y004073D03*
X003557Y004074D03*
X003557Y004074D03*
X002868Y004061D03*
X002868Y004061D03*
D542*
X003555Y004063D03*
X003555Y004064D03*
D543*
X002868Y004064D03*
X002868Y004064D03*
X002868Y004063D03*
D544*
X003555Y004063D03*
D545*
X002868Y004063D03*
D546*
X002867Y004064D03*
X002867Y004065D03*
X003557Y004077D03*
D547*
X003557Y004078D03*
X003557Y004076D03*
X003557Y004076D03*
X002867Y004066D03*
X002867Y004065D03*
D548*
X003556Y004066D03*
X003556Y004066D03*
D549*
X003558Y004079D03*
X003558Y004079D03*
X002867Y004069D03*
X002867Y004068D03*
X002867Y004066D03*
D550*
X003556Y004067D03*
D551*
X003558Y004078D03*
X002867Y004068D03*
X002867Y004067D03*
D552*
X002867Y004069D03*
X002867Y004070D03*
D553*
X002867Y004070D03*
X002867Y004069D03*
D554*
X003556Y004071D03*
X003556Y004071D03*
D555*
X003558Y004081D03*
X003558Y004081D03*
X003558Y004083D03*
X002867Y004073D03*
X002867Y004071D03*
X002867Y004071D03*
D556*
X003556Y004072D03*
D557*
X003558Y004082D03*
X002867Y004072D03*
D558*
X002866Y004073D03*
X002866Y004074D03*
D559*
X002866Y004074D03*
X002866Y004074D03*
D560*
X003557Y004074D03*
X003557Y004075D03*
D561*
X003557Y004075D03*
D562*
X003559Y004085D03*
X003559Y004086D03*
X002866Y004076D03*
X002866Y004076D03*
X002866Y004075D03*
D563*
X002866Y004075D03*
X003559Y004084D03*
X003559Y004085D03*
D564*
X003559Y004087D03*
X002866Y004078D03*
X002866Y004077D03*
D565*
X002866Y004078D03*
X002866Y004079D03*
X003559Y004086D03*
X003559Y004088D03*
D566*
X002866Y004081D03*
X002866Y004080D03*
X002866Y004079D03*
D567*
X003558Y004079D03*
X003558Y004080D03*
D568*
X002866Y004080D03*
X002866Y004079D03*
D569*
X003558Y004080D03*
D570*
X003559Y004090D03*
X003559Y004091D03*
X002865Y004083D03*
X002865Y004081D03*
D571*
X002865Y004082D03*
X002865Y004083D03*
X003559Y004089D03*
X003559Y004090D03*
D572*
X003558Y004083D03*
D573*
X003558Y004084D03*
X003558Y004084D03*
D574*
X002865Y004085D03*
X002865Y004084D03*
X002865Y004084D03*
D575*
X002865Y004084D03*
D576*
X002865Y004085D03*
X002865Y004087D03*
X003560Y004093D03*
X003560Y004094D03*
D577*
X003560Y004094D03*
X003560Y004094D03*
X002865Y004086D03*
X002865Y004086D03*
D578*
X002865Y004088D03*
X002865Y004089D03*
X002865Y004089D03*
X003560Y004095D03*
X003560Y004096D03*
D579*
X003559Y004088D03*
D580*
X003560Y004095D03*
X002865Y004088D03*
D581*
X003559Y004089D03*
X003559Y004089D03*
D582*
X002864Y004089D03*
X002864Y004090D03*
D583*
X002864Y004090D03*
X002864Y004091D03*
D584*
X003560Y004091D03*
X003560Y004093D03*
D585*
X003561Y004099D03*
X003561Y004099D03*
X002864Y004094D03*
X002864Y004093D03*
X002864Y004091D03*
D586*
X003560Y004092D03*
D587*
X003561Y004098D03*
X003561Y004099D03*
X002864Y004093D03*
X002864Y004092D03*
D588*
X002864Y004094D03*
X002864Y004095D03*
D589*
X002864Y004095D03*
X002864Y004094D03*
D590*
X002864Y004096D03*
X002864Y004096D03*
X002864Y004098D03*
X003561Y004101D03*
X003561Y004103D03*
D591*
X003560Y004098D03*
X003560Y004096D03*
D592*
X003560Y004097D03*
D593*
X003561Y004102D03*
X003561Y004103D03*
X002864Y004097D03*
D594*
X002863Y004098D03*
X002863Y004099D03*
X003561Y004104D03*
D595*
X003561Y004104D03*
X003561Y004104D03*
X002863Y004099D03*
X002863Y004099D03*
D596*
X003561Y004100D03*
X003561Y004101D03*
D597*
X002863Y004101D03*
X002863Y004101D03*
X002863Y004100D03*
D598*
X003561Y004100D03*
D599*
X002863Y004100D03*
D600*
X002863Y004102D03*
X002863Y004103D03*
X003562Y004107D03*
X003562Y004108D03*
D601*
X003562Y004108D03*
X003562Y004106D03*
X002863Y004104D03*
X002863Y004103D03*
D602*
X002863Y004104D03*
X002863Y004105D03*
X002863Y004106D03*
D603*
X002863Y004105D03*
X002863Y004104D03*
D604*
X003561Y004105D03*
X003561Y004106D03*
D605*
X003561Y004105D03*
D606*
X003562Y004110D03*
X003562Y004111D03*
X003562Y004111D03*
X002862Y004108D03*
X002862Y004106D03*
D607*
X002862Y004107D03*
X002862Y004108D03*
X003562Y004110D03*
D608*
X003562Y004109D03*
X003562Y004109D03*
D609*
X003563Y004113D03*
X002862Y004110D03*
X002862Y004109D03*
X002862Y004109D03*
D610*
X003562Y004109D03*
D611*
X003563Y004112D03*
X003563Y004113D03*
X002862Y004109D03*
D612*
X002862Y004110D03*
X002862Y004112D03*
D613*
X002862Y004111D03*
X002862Y004111D03*
D614*
X002862Y004113D03*
X002862Y004114D03*
X002862Y004114D03*
X003563Y004115D03*
X003563Y004116D03*
X003563Y004116D03*
D615*
X003563Y004115D03*
X002862Y004113D03*
D616*
X003563Y004114D03*
X003563Y004114D03*
D617*
X003563Y004114D03*
D618*
X002861Y004114D03*
X002861Y004115D03*
D619*
X002861Y004115D03*
X002861Y004116D03*
D620*
X002861Y004116D03*
X002861Y004118D03*
X002861Y004119D03*
X003564Y004120D03*
X003564Y004119D03*
X003564Y004119D03*
D621*
X003563Y004118D03*
X003563Y004117D03*
D622*
X003564Y004119D03*
X002861Y004118D03*
X002861Y004117D03*
D623*
X003563Y004118D03*
D624*
X003564Y004121D03*
X003564Y004121D03*
X002861Y004120D03*
X002861Y004119D03*
D625*
X002861Y004119D03*
X002861Y004120D03*
X003564Y004120D03*
D626*
X002861Y004121D03*
X002861Y004121D03*
X002861Y004123D03*
D627*
X003564Y004123D03*
X003564Y004122D03*
D628*
X002861Y004122D03*
D629*
X003564Y004123D03*
D630*
X003564Y004124D03*
X002860Y004124D03*
X002860Y004123D03*
D631*
X002860Y004124D03*
X002860Y004124D03*
X003564Y004125D03*
X003564Y004124D03*
X003564Y004124D03*
D632*
X002860Y004125D03*
X002860Y004126D03*
X002860Y004126D03*
D633*
X003565Y004125D03*
D634*
X002860Y004125D03*
D635*
X003565Y004126D03*
X003565Y004126D03*
D636*
X003565Y004127D03*
X003565Y004128D03*
X002860Y004128D03*
X002860Y004127D03*
D637*
X002860Y004128D03*
X002860Y004129D03*
X003565Y004129D03*
X003565Y004128D03*
D638*
X003565Y004129D03*
X003565Y004130D03*
X002860Y004131D03*
X002860Y004130D03*
X002860Y004129D03*
D639*
X002860Y004129D03*
X002860Y004130D03*
X003565Y004129D03*
D640*
X003565Y004130D03*
D641*
X003565Y004131D03*
X003565Y004131D03*
D642*
X002859Y004131D03*
X002859Y004133D03*
D643*
X002859Y004134D03*
X003566Y004133D03*
X003566Y004132D03*
D644*
X002859Y004133D03*
X002859Y004132D03*
D645*
X002859Y004134D03*
X002859Y004134D03*
X002859Y004135D03*
X003566Y004134D03*
X003566Y004133D03*
D646*
X003566Y004134D03*
X003566Y004135D03*
D647*
X003566Y004134D03*
D648*
X003566Y004135D03*
X003566Y004137D03*
X002859Y004138D03*
D649*
X002859Y004137D03*
X002859Y004135D03*
D650*
X002859Y004138D03*
X002859Y004139D03*
X002859Y004139D03*
X003566Y004136D03*
X003566Y004136D03*
D651*
X002859Y004136D03*
X002859Y004136D03*
D652*
X002858Y004140D03*
X002858Y004141D03*
X003566Y004139D03*
X003566Y004138D03*
D653*
X003566Y004138D03*
X002858Y004139D03*
X002858Y004140D03*
D654*
X003566Y004140D03*
X003566Y004139D03*
D655*
X003566Y004139D03*
D656*
X003567Y004140D03*
X003567Y004142D03*
X002858Y004144D03*
X002858Y004145D03*
D657*
X002858Y004145D03*
X002858Y004144D03*
X003567Y004141D03*
X003567Y004141D03*
D658*
X002858Y004141D03*
X002858Y004143D03*
X002858Y004144D03*
D659*
X002858Y004143D03*
X002858Y004142D03*
D660*
X003567Y004143D03*
X003567Y004144D03*
D661*
X003567Y004143D03*
D662*
X003567Y004144D03*
X003567Y004145D03*
X002857Y004149D03*
X002857Y004149D03*
D663*
X002857Y004149D03*
X002857Y004148D03*
X003567Y004145D03*
X003567Y004144D03*
D664*
X003568Y004146D03*
X003568Y004146D03*
X002857Y004150D03*
X002857Y004151D03*
X002857Y004151D03*
D665*
X002858Y004148D03*
X002858Y004146D03*
X002858Y004146D03*
D666*
X002857Y004150D03*
X003568Y004147D03*
D667*
X002858Y004147D03*
D668*
X003568Y004148D03*
X003568Y004149D03*
D669*
X003568Y004148D03*
D670*
X003568Y004149D03*
X003568Y004150D03*
X002857Y004154D03*
X002857Y004155D03*
X002857Y004156D03*
D671*
X002857Y004155D03*
X002857Y004154D03*
X003568Y004150D03*
X003568Y004149D03*
D672*
X003568Y004151D03*
X003568Y004151D03*
D673*
X003568Y004152D03*
D674*
X002857Y004153D03*
X002857Y004152D03*
D675*
X002856Y004159D03*
X002856Y004159D03*
X002856Y004160D03*
X003569Y004154D03*
X003569Y004154D03*
X003569Y004153D03*
D676*
X002857Y004154D03*
X002857Y004153D03*
D677*
X002856Y004159D03*
X003569Y004153D03*
D678*
X003569Y004154D03*
X003569Y004155D03*
X002856Y004160D03*
X002856Y004162D03*
D679*
X002856Y004161D03*
X002856Y004161D03*
X003569Y004155D03*
D680*
X003569Y004156D03*
X003569Y004156D03*
D681*
X002856Y004156D03*
X002856Y004158D03*
D682*
X003569Y004157D03*
D683*
X002856Y004158D03*
X002856Y004157D03*
D684*
X002855Y004165D03*
X002855Y004166D03*
X003569Y004159D03*
X003569Y004159D03*
X003569Y004158D03*
D685*
X003569Y004158D03*
X002855Y004164D03*
X002855Y004165D03*
D686*
X003570Y004160D03*
X003570Y004159D03*
D687*
X003570Y004160D03*
D688*
X003570Y004161D03*
X003570Y004161D03*
X003570Y004163D03*
X002855Y004169D03*
X002855Y004170D03*
D689*
X002855Y004170D03*
X002855Y004169D03*
X003570Y004162D03*
D690*
X002856Y004163D03*
X002856Y004164D03*
X002856Y004164D03*
D691*
X002855Y004172D03*
X003570Y004163D03*
D692*
X002856Y004163D03*
D693*
X002855Y004171D03*
X002855Y004171D03*
X002855Y004173D03*
X003570Y004164D03*
X003570Y004164D03*
D694*
X003570Y004164D03*
X003570Y004165D03*
D695*
X003570Y004165D03*
D696*
X003571Y004166D03*
X003571Y004166D03*
X003571Y004168D03*
X002854Y004175D03*
X002854Y004176D03*
X002854Y004176D03*
D697*
X002855Y004169D03*
X002855Y004168D03*
X002855Y004166D03*
D698*
X002854Y004175D03*
X003571Y004167D03*
D699*
X002855Y004168D03*
X002855Y004167D03*
D700*
X003571Y004168D03*
D701*
X003571Y004169D03*
X003571Y004169D03*
D702*
X003571Y004169D03*
X003571Y004170D03*
X002854Y004179D03*
D703*
X002854Y004179D03*
X003571Y004171D03*
X003571Y004170D03*
D704*
X003571Y004171D03*
X003571Y004173D03*
D705*
X003571Y004172D03*
D706*
X003571Y004173D03*
X003571Y004174D03*
D707*
X002854Y004174D03*
X002854Y004173D03*
D708*
X003571Y004174D03*
X003571Y004174D03*
D709*
X002854Y004174D03*
X002854Y004174D03*
D710*
X003572Y004175D03*
X003572Y004176D03*
D711*
X003572Y004175D03*
D712*
X003572Y004176D03*
X003572Y004178D03*
D713*
X003572Y004177D03*
D714*
X002854Y004178D03*
X002854Y004177D03*
D715*
X002854Y004178D03*
X002854Y004179D03*
D716*
X003572Y004179D03*
X003572Y004178D03*
D717*
X003572Y004179D03*
X003572Y004179D03*
D718*
X003516Y004180D03*
X003516Y004181D03*
X003516Y004181D03*
X003516Y004183D03*
X003516Y004184D03*
X003516Y004184D03*
X003516Y004185D03*
X003516Y004186D03*
X003516Y004186D03*
X003516Y004188D03*
X003516Y004189D03*
X003516Y004189D03*
X003516Y004190D03*
X003516Y004191D03*
X003516Y004191D03*
X003516Y004193D03*
X003516Y004194D03*
X003516Y004194D03*
X003516Y004195D03*
X003516Y004196D03*
X003516Y004196D03*
X003516Y004198D03*
X003516Y004199D03*
X003516Y004199D03*
X003516Y004200D03*
X003516Y004201D03*
X003516Y004201D03*
X003516Y004203D03*
X003516Y004204D03*
X003516Y004204D03*
X003516Y004205D03*
D719*
X002908Y004205D03*
X002908Y004204D03*
X002908Y004204D03*
X002908Y004203D03*
X002908Y004201D03*
X002908Y004201D03*
X002908Y004200D03*
X002908Y004199D03*
X002908Y004199D03*
X002908Y004198D03*
X002908Y004196D03*
X002908Y004196D03*
X002908Y004195D03*
X002908Y004194D03*
X002908Y004194D03*
X002908Y004193D03*
X002908Y004191D03*
X002908Y004191D03*
X002908Y004190D03*
X002908Y004189D03*
X002908Y004189D03*
X002908Y004188D03*
X002908Y004186D03*
X002908Y004186D03*
X002908Y004185D03*
X002908Y004184D03*
X002908Y004184D03*
X002908Y004183D03*
X002908Y004181D03*
X002908Y004181D03*
X002908Y004180D03*
D720*
X003516Y004180D03*
X003516Y004182D03*
X003516Y004183D03*
X003516Y004184D03*
X003516Y004185D03*
X003516Y004187D03*
X003516Y004188D03*
X003516Y004189D03*
X003516Y004190D03*
X003516Y004192D03*
X003516Y004193D03*
X003516Y004194D03*
X003516Y004195D03*
X003516Y004197D03*
X003516Y004198D03*
X003516Y004199D03*
X003516Y004200D03*
X003516Y004202D03*
X003516Y004203D03*
X003516Y004204D03*
X003516Y004205D03*
D721*
X002908Y004205D03*
X002908Y004204D03*
X002908Y004203D03*
X002908Y004202D03*
X002908Y004200D03*
X002908Y004199D03*
X002908Y004198D03*
X002908Y004197D03*
X002908Y004195D03*
X002908Y004194D03*
X002908Y004193D03*
X002908Y004192D03*
X002908Y004190D03*
X002908Y004189D03*
X002908Y004188D03*
X002908Y004187D03*
X002908Y004185D03*
X002908Y004184D03*
X002908Y004183D03*
X002908Y004182D03*
X002908Y004180D03*
D722*
X003212Y004206D03*
X003212Y004206D03*
X003212Y004208D03*
X003212Y004209D03*
X003212Y004209D03*
X003212Y004210D03*
X003212Y004211D03*
X003212Y004211D03*
X003212Y004213D03*
X003212Y004214D03*
X003212Y004214D03*
X003212Y004215D03*
X003212Y004216D03*
X003212Y004216D03*
X003212Y004218D03*
X003212Y004219D03*
X003212Y004219D03*
X003212Y004220D03*
X003212Y004221D03*
X003212Y004221D03*
X003212Y004223D03*
X003212Y004224D03*
X003212Y004224D03*
X003212Y004225D03*
X003212Y004226D03*
X003212Y004355D03*
X003212Y004356D03*
X003212Y004356D03*
X003212Y004358D03*
X003212Y004359D03*
X003212Y004359D03*
X003212Y004360D03*
X003212Y004361D03*
X003212Y004361D03*
X003212Y004363D03*
X003212Y004364D03*
X003212Y004364D03*
X003212Y004365D03*
X003212Y004366D03*
X003212Y004366D03*
X003212Y004368D03*
X003212Y004369D03*
X003212Y004369D03*
X003212Y004370D03*
X003212Y004371D03*
X003212Y004371D03*
X003212Y004373D03*
X003212Y004374D03*
X003212Y004374D03*
X003212Y004375D03*
X003212Y004376D03*
X003212Y004376D03*
X003212Y004378D03*
X003212Y004379D03*
X003212Y004379D03*
X003212Y004380D03*
X003212Y004381D03*
X003212Y004381D03*
X003212Y004383D03*
X003212Y004384D03*
X003212Y004384D03*
X003212Y004385D03*
X003212Y004386D03*
X003212Y004386D03*
X003212Y004388D03*
X003212Y004389D03*
X003212Y004389D03*
X003212Y004390D03*
X003212Y004391D03*
D723*
X003212Y004390D03*
X003212Y004389D03*
X003212Y004388D03*
X003212Y004387D03*
X003212Y004385D03*
X003212Y004384D03*
X003212Y004383D03*
X003212Y004382D03*
X003212Y004380D03*
X003212Y004379D03*
X003212Y004378D03*
X003212Y004377D03*
X003212Y004375D03*
X003212Y004374D03*
X003212Y004373D03*
X003212Y004372D03*
X003212Y004370D03*
X003212Y004369D03*
X003212Y004368D03*
X003212Y004367D03*
X003212Y004365D03*
X003212Y004364D03*
X003212Y004363D03*
X003212Y004362D03*
X003212Y004360D03*
X003212Y004359D03*
X003212Y004358D03*
X003212Y004357D03*
X003212Y004355D03*
X003212Y004225D03*
X003212Y004224D03*
X003212Y004223D03*
X003212Y004222D03*
X003212Y004220D03*
X003212Y004219D03*
X003212Y004218D03*
X003212Y004217D03*
X003212Y004215D03*
X003212Y004214D03*
X003212Y004213D03*
X003212Y004212D03*
X003212Y004210D03*
X003212Y004209D03*
X003212Y004208D03*
X003212Y004207D03*
D724*
X003486Y004226D03*
X003486Y004228D03*
X003486Y004229D03*
X003486Y004229D03*
X003486Y004230D03*
X003486Y004231D03*
X003486Y004231D03*
X003486Y004233D03*
X003486Y004234D03*
X003486Y004234D03*
X003486Y004235D03*
X003486Y004236D03*
X003486Y004236D03*
X003486Y004238D03*
X003486Y004239D03*
X003486Y004239D03*
X003486Y004240D03*
X003486Y004241D03*
X003486Y004241D03*
X003486Y004243D03*
X003486Y004244D03*
X003486Y004244D03*
X003486Y004245D03*
X003486Y004246D03*
X003486Y004246D03*
X003486Y004248D03*
X003486Y004249D03*
X003486Y004249D03*
X003486Y004250D03*
X003486Y004251D03*
X003486Y004251D03*
X003486Y004253D03*
X003486Y004254D03*
X003486Y004254D03*
X003486Y004255D03*
X003486Y004256D03*
X003486Y004256D03*
X003486Y004258D03*
X003486Y004259D03*
X003486Y004259D03*
X003486Y004260D03*
X003486Y004261D03*
X003486Y004261D03*
X003486Y004263D03*
X003486Y004264D03*
X003486Y004264D03*
X003486Y004265D03*
X003486Y004266D03*
X003486Y004266D03*
X003486Y004268D03*
X003486Y004269D03*
X003486Y004269D03*
X003486Y004270D03*
X003486Y004271D03*
X003486Y004271D03*
X003486Y004273D03*
X003486Y004274D03*
X003486Y004274D03*
X003486Y004275D03*
X003486Y004276D03*
X003486Y004276D03*
X003486Y004278D03*
X003486Y004279D03*
X003486Y004279D03*
X003486Y004280D03*
X003486Y004281D03*
X003486Y004281D03*
X003486Y004283D03*
X003486Y004284D03*
X003486Y004284D03*
X003486Y004285D03*
X003486Y004286D03*
X003486Y004286D03*
X003486Y004288D03*
X003486Y004289D03*
X003486Y004289D03*
X003486Y004290D03*
X003486Y004291D03*
X003486Y004291D03*
X003486Y004293D03*
X003486Y004294D03*
X003486Y004294D03*
X003486Y004295D03*
X003486Y004296D03*
X003486Y004296D03*
X003486Y004298D03*
X003486Y004299D03*
X003486Y004299D03*
X003486Y004300D03*
X003486Y004301D03*
X003486Y004301D03*
X003486Y004303D03*
X003486Y004304D03*
X003486Y004304D03*
X003486Y004305D03*
X003486Y004306D03*
X003486Y004306D03*
X003486Y004308D03*
X003486Y004309D03*
X003486Y004309D03*
X003486Y004310D03*
X003486Y004311D03*
X003486Y004311D03*
X003486Y004313D03*
X003486Y004314D03*
X003486Y004314D03*
X003486Y004315D03*
X003486Y004316D03*
X003486Y004316D03*
X003486Y004318D03*
X003486Y004319D03*
X003486Y004319D03*
X003486Y004320D03*
X003486Y004321D03*
X003486Y004321D03*
X003486Y004323D03*
X003486Y004324D03*
X003486Y004324D03*
X003486Y004325D03*
X003486Y004326D03*
X003486Y004326D03*
X003486Y004328D03*
X003486Y004329D03*
X003486Y004329D03*
X003486Y004330D03*
X003486Y004331D03*
X003486Y004331D03*
X003486Y004333D03*
X003486Y004334D03*
X003486Y004334D03*
X003486Y004335D03*
X003486Y004336D03*
X003486Y004336D03*
X003486Y004338D03*
X003486Y004339D03*
X003486Y004339D03*
X003486Y004340D03*
X003486Y004341D03*
X003486Y004341D03*
X003486Y004343D03*
X003486Y004344D03*
X003486Y004344D03*
X003486Y004345D03*
X003486Y004346D03*
X003486Y004346D03*
X003486Y004348D03*
X003486Y004349D03*
X003486Y004349D03*
X003486Y004350D03*
X003486Y004351D03*
X003486Y004351D03*
X003486Y004353D03*
X003486Y004354D03*
X003486Y004354D03*
D725*
X002931Y004354D03*
X002931Y004354D03*
X002931Y004353D03*
X002931Y004351D03*
X002931Y004351D03*
X002931Y004350D03*
X002931Y004349D03*
X002931Y004349D03*
X002931Y004348D03*
X002931Y004346D03*
X002931Y004346D03*
X002931Y004345D03*
X002931Y004344D03*
X002931Y004344D03*
X002931Y004343D03*
X002931Y004341D03*
X002931Y004341D03*
X002931Y004340D03*
X002931Y004339D03*
X002931Y004339D03*
X002931Y004338D03*
X002931Y004336D03*
X002931Y004336D03*
X002931Y004335D03*
X002931Y004334D03*
X002931Y004334D03*
X002931Y004333D03*
X002931Y004331D03*
X002931Y004331D03*
X002931Y004330D03*
X002931Y004329D03*
X002931Y004329D03*
X002931Y004328D03*
X002931Y004326D03*
X002931Y004326D03*
X002931Y004325D03*
X002931Y004324D03*
X002931Y004324D03*
X002931Y004323D03*
X002931Y004321D03*
X002931Y004321D03*
X002931Y004320D03*
X002931Y004319D03*
X002931Y004319D03*
X002931Y004318D03*
X002931Y004316D03*
X002931Y004316D03*
X002931Y004315D03*
X002931Y004314D03*
X002931Y004314D03*
X002931Y004313D03*
X002931Y004311D03*
X002931Y004311D03*
X002931Y004310D03*
X002931Y004309D03*
X002931Y004309D03*
X002931Y004308D03*
X002931Y004306D03*
X002931Y004306D03*
X002931Y004305D03*
X002931Y004304D03*
X002931Y004304D03*
X002931Y004303D03*
X002931Y004301D03*
X002931Y004301D03*
X002931Y004300D03*
X002931Y004299D03*
X002931Y004299D03*
X002931Y004298D03*
X002931Y004296D03*
X002931Y004296D03*
X002931Y004295D03*
X002931Y004294D03*
X002931Y004294D03*
X002931Y004293D03*
X002931Y004291D03*
X002931Y004291D03*
X002931Y004290D03*
X002931Y004289D03*
X002931Y004289D03*
X002931Y004288D03*
X002931Y004286D03*
X002931Y004286D03*
X002931Y004285D03*
X002931Y004284D03*
X002931Y004284D03*
X002931Y004283D03*
X002931Y004281D03*
X002931Y004281D03*
X002931Y004280D03*
X002931Y004279D03*
X002931Y004279D03*
X002931Y004278D03*
X002931Y004276D03*
X002931Y004276D03*
X002931Y004275D03*
X002931Y004274D03*
X002931Y004274D03*
X002931Y004273D03*
X002931Y004271D03*
X002931Y004271D03*
X002931Y004270D03*
X002931Y004269D03*
X002931Y004269D03*
X002931Y004268D03*
X002931Y004266D03*
X002931Y004266D03*
X002931Y004265D03*
X002931Y004264D03*
X002931Y004264D03*
X002931Y004263D03*
X002931Y004261D03*
X002931Y004261D03*
X002931Y004260D03*
X002931Y004259D03*
X002931Y004259D03*
X002931Y004258D03*
X002931Y004256D03*
X002931Y004256D03*
X002931Y004255D03*
X002931Y004254D03*
X002931Y004254D03*
X002931Y004253D03*
X002931Y004251D03*
X002931Y004251D03*
X002931Y004250D03*
X002931Y004249D03*
X002931Y004249D03*
X002931Y004248D03*
X002931Y004246D03*
X002931Y004246D03*
X002931Y004245D03*
X002931Y004244D03*
X002931Y004244D03*
X002931Y004243D03*
X002931Y004241D03*
X002931Y004241D03*
X002931Y004240D03*
X002931Y004239D03*
X002931Y004239D03*
X002931Y004238D03*
X002931Y004236D03*
X002931Y004236D03*
X002931Y004235D03*
X002931Y004234D03*
X002931Y004234D03*
X002931Y004233D03*
X002931Y004231D03*
X002931Y004231D03*
X002931Y004230D03*
X002931Y004229D03*
X002931Y004229D03*
X002931Y004228D03*
X002931Y004226D03*
D726*
X003486Y004227D03*
X003486Y004228D03*
X003486Y004229D03*
X003486Y004230D03*
X003486Y004232D03*
X003486Y004233D03*
X003486Y004234D03*
X003486Y004235D03*
X003486Y004237D03*
X003486Y004238D03*
X003486Y004239D03*
X003486Y004240D03*
X003486Y004242D03*
X003486Y004243D03*
X003486Y004244D03*
X003486Y004245D03*
X003486Y004247D03*
X003486Y004248D03*
X003486Y004249D03*
X003486Y004250D03*
X003486Y004252D03*
X003486Y004253D03*
X003486Y004254D03*
X003486Y004255D03*
X003486Y004257D03*
X003486Y004258D03*
X003486Y004259D03*
X003486Y004260D03*
X003486Y004262D03*
X003486Y004263D03*
X003486Y004264D03*
X003486Y004265D03*
X003486Y004267D03*
X003486Y004268D03*
X003486Y004269D03*
X003486Y004270D03*
X003486Y004272D03*
X003486Y004273D03*
X003486Y004274D03*
X003486Y004275D03*
X003486Y004277D03*
X003486Y004278D03*
X003486Y004279D03*
X003486Y004280D03*
X003486Y004282D03*
X003486Y004283D03*
X003486Y004284D03*
X003486Y004285D03*
X003486Y004287D03*
X003486Y004288D03*
X003486Y004289D03*
X003486Y004290D03*
X003486Y004292D03*
X003486Y004293D03*
X003486Y004294D03*
X003486Y004295D03*
X003486Y004297D03*
X003486Y004298D03*
X003486Y004299D03*
X003486Y004300D03*
X003486Y004302D03*
X003486Y004303D03*
X003486Y004304D03*
X003486Y004305D03*
X003486Y004307D03*
X003486Y004308D03*
X003486Y004309D03*
X003486Y004310D03*
X003486Y004312D03*
X003486Y004313D03*
X003486Y004314D03*
X003486Y004315D03*
X003486Y004317D03*
X003486Y004318D03*
X003486Y004319D03*
X003486Y004320D03*
X003486Y004322D03*
X003486Y004323D03*
X003486Y004324D03*
X003486Y004325D03*
X003486Y004327D03*
X003486Y004328D03*
X003486Y004329D03*
X003486Y004330D03*
X003486Y004332D03*
X003486Y004333D03*
X003486Y004334D03*
X003486Y004335D03*
X003486Y004337D03*
X003486Y004338D03*
X003486Y004339D03*
X003486Y004340D03*
X003486Y004342D03*
X003486Y004343D03*
X003486Y004344D03*
X003486Y004345D03*
X003486Y004347D03*
X003486Y004348D03*
X003486Y004349D03*
X003486Y004350D03*
X003486Y004352D03*
X003486Y004353D03*
X003486Y004354D03*
D727*
X002931Y004354D03*
X002931Y004353D03*
X002931Y004352D03*
X002931Y004350D03*
X002931Y004349D03*
X002931Y004348D03*
X002931Y004347D03*
X002931Y004345D03*
X002931Y004344D03*
X002931Y004343D03*
X002931Y004342D03*
X002931Y004340D03*
X002931Y004339D03*
X002931Y004338D03*
X002931Y004337D03*
X002931Y004335D03*
X002931Y004334D03*
X002931Y004333D03*
X002931Y004332D03*
X002931Y004330D03*
X002931Y004329D03*
X002931Y004328D03*
X002931Y004327D03*
X002931Y004325D03*
X002931Y004324D03*
X002931Y004323D03*
X002931Y004322D03*
X002931Y004320D03*
X002931Y004319D03*
X002931Y004318D03*
X002931Y004317D03*
X002931Y004315D03*
X002931Y004314D03*
X002931Y004313D03*
X002931Y004312D03*
X002931Y004310D03*
X002931Y004309D03*
X002931Y004308D03*
X002931Y004307D03*
X002931Y004305D03*
X002931Y004304D03*
X002931Y004303D03*
X002931Y004302D03*
X002931Y004300D03*
X002931Y004299D03*
X002931Y004298D03*
X002931Y004297D03*
X002931Y004295D03*
X002931Y004294D03*
X002931Y004293D03*
X002931Y004292D03*
X002931Y004290D03*
X002931Y004289D03*
X002931Y004288D03*
X002931Y004287D03*
X002931Y004285D03*
X002931Y004284D03*
X002931Y004283D03*
X002931Y004282D03*
X002931Y004280D03*
X002931Y004279D03*
X002931Y004278D03*
X002931Y004277D03*
X002931Y004275D03*
X002931Y004274D03*
X002931Y004273D03*
X002931Y004272D03*
X002931Y004270D03*
X002931Y004269D03*
X002931Y004268D03*
X002931Y004267D03*
X002931Y004265D03*
X002931Y004264D03*
X002931Y004263D03*
X002931Y004262D03*
X002931Y004260D03*
X002931Y004259D03*
X002931Y004258D03*
X002931Y004257D03*
X002931Y004255D03*
X002931Y004254D03*
X002931Y004253D03*
X002931Y004252D03*
X002931Y004250D03*
X002931Y004249D03*
X002931Y004248D03*
X002931Y004247D03*
X002931Y004245D03*
X002931Y004244D03*
X002931Y004243D03*
X002931Y004242D03*
X002931Y004240D03*
X002931Y004239D03*
X002931Y004238D03*
X002931Y004237D03*
X002931Y004235D03*
X002931Y004234D03*
X002931Y004233D03*
X002931Y004232D03*
X002931Y004230D03*
X002931Y004229D03*
X002931Y004228D03*
X002931Y004227D03*
D728*
X003213Y004391D03*
D729*
X003213Y004392D03*
D730*
X003212Y004393D03*
X003212Y004394D03*
X003212Y004394D03*
X003212Y004395D03*
D731*
X003212Y004395D03*
X003212Y004394D03*
X003212Y004393D03*
D732*
X003212Y004396D03*
D733*
X003212Y004396D03*
X003212Y004398D03*
X003212Y004399D03*
D734*
X003212Y004398D03*
X003212Y004397D03*
D735*
X003212Y004399D03*
D736*
X003212Y004399D03*
D737*
X003212Y004400D03*
X003212Y004401D03*
X003212Y004401D03*
D738*
X003212Y004400D03*
D739*
X003212Y004402D03*
D740*
X003212Y004403D03*
D741*
X003212Y004403D03*
D742*
X003212Y004404D03*
X003212Y004404D03*
D743*
X003212Y004404D03*
D744*
X003212Y004405D03*
D745*
X003212Y004405D03*
D746*
X003212Y004406D03*
X003212Y004406D03*
D747*
X003212Y004407D03*
D748*
X003212Y004408D03*
D749*
X003212Y004408D03*
D750*
X003212Y004409D03*
X003212Y004409D03*
D751*
X003212Y004409D03*
D752*
X003212Y004410D03*
X003212Y004411D03*
X003212Y004411D03*
D753*
X003212Y004410D03*
D754*
X003212Y004412D03*
X003212Y004413D03*
D755*
X003212Y004413D03*
X003212Y004414D03*
D756*
X003212Y004414D03*
X003212Y004415D03*
D757*
X003212Y004415D03*
X003212Y004414D03*
D758*
X003212Y004416D03*
X003212Y004416D03*
X003212Y004418D03*
D759*
X003212Y004417D03*
D760*
X003212Y004418D03*
X003212Y004419D03*
D761*
X003212Y004419D03*
X003212Y004419D03*
D762*
X003212Y004420D03*
X003212Y004421D03*
D763*
X003212Y004420D03*
D764*
X003213Y004421D03*
D765*
X003212Y004422D03*
D766*
X003212Y004423D03*
D767*
X003213Y004423D03*
D768*
X003212Y004424D03*
X003212Y004424D03*
D769*
X003212Y004424D03*
D770*
X003213Y004425D03*
D771*
X003212Y004425D03*
D772*
X003212Y004426D03*
D773*
X003213Y004426D03*
D774*
X003212Y004427D03*
D775*
X003212Y004428D03*
D776*
X003213Y004428D03*
D777*
X003212Y004429D03*
X003212Y004429D03*
D778*
X003213Y004429D03*
D779*
X003212Y004430D03*
D780*
X003213Y004430D03*
D781*
X003212Y004431D03*
X003212Y004431D03*
D782*
X003213Y004432D03*
D783*
X003212Y004433D03*
D784*
X003212Y004433D03*
D785*
X003213Y004434D03*
D786*
X003212Y004434D03*
D787*
X003213Y004434D03*
D788*
X003212Y004435D03*
D789*
X003212Y004435D03*
D790*
X003213Y004436D03*
D791*
X003212Y004436D03*
D792*
X003213Y004437D03*
D793*
X003213Y004438D03*
D794*
X003213Y004438D03*
D795*
X003212Y004439D03*
D796*
X003212Y004439D03*
D797*
X003212Y004439D03*
D798*
X003212Y004440D03*
D799*
X003212Y004440D03*
D800*
X003212Y004441D03*
D801*
X003212Y004441D03*
D802*
X003212Y004442D03*
D803*
X003212Y004443D03*
D804*
X003212Y004443D03*
D805*
X003212Y004444D03*
D806*
X003212Y004444D03*
D807*
X003212Y004444D03*
D808*
X003212Y004445D03*
D809*
X003212Y004445D03*
D810*
X003212Y004446D03*
D811*
X003212Y004446D03*
D812*
X003212Y004447D03*
D813*
X003212Y004448D03*
D814*
X003212Y004448D03*
D815*
X003212Y004449D03*
D816*
X003212Y004449D03*
D817*
X003212Y004449D03*
D818*
X003212Y004450D03*
D819*
X003212Y004450D03*
D820*
X003212Y004451D03*
D821*
X003212Y004451D03*
D822*
X003212Y004452D03*
D823*
X003212Y004453D03*
D824*
X003212Y004453D03*
D825*
X003212Y004454D03*
D826*
X003212Y004454D03*
D827*
X003213Y004454D03*
D828*
X003213Y004455D03*
D829*
X003213Y004455D03*
D830*
X003213Y004456D03*
D831*
X003213Y004456D03*
D832*
X003213Y004457D03*
D833*
X003213Y004458D03*
D834*
X003213Y004458D03*
D835*
X003213Y004459D03*
D836*
X003213Y004459D03*
D837*
X003213Y004459D03*
D838*
X003213Y004460D03*
D839*
X003213Y004460D03*
D840*
X003213Y004461D03*
D841*
X003213Y004461D03*
D842*
X003213Y004462D03*
D843*
X003213Y004463D03*
D844*
X003212Y004463D03*
D845*
X003212Y004464D03*
D846*
X003212Y004464D03*
D847*
X003212Y004464D03*
D848*
X003212Y004465D03*
D849*
X003212Y004465D03*
D850*
X003212Y004466D03*
D851*
X003212Y004466D03*
D852*
X003212Y004467D03*
D853*
X003212Y004468D03*
D854*
X003212Y004468D03*
D855*
X003212Y004469D03*
D856*
X003212Y004469D03*
D857*
X003212Y004469D03*
D858*
X003212Y004470D03*
D859*
X003212Y004470D03*
D860*
X003212Y004471D03*
D861*
X003212Y004471D03*
D862*
X003212Y004472D03*
D863*
X003212Y004473D03*
D864*
X003212Y004473D03*
D865*
X003212Y004474D03*
D866*
X003212Y004474D03*
D867*
X003212Y004474D03*
D868*
X003212Y004475D03*
D869*
X003212Y004475D03*
D870*
X003212Y004476D03*
D871*
X003212Y004476D03*
D872*
X003212Y004477D03*
D873*
X003212Y004478D03*
D874*
X003212Y004478D03*
D875*
X003212Y004479D03*
D876*
X003213Y004479D03*
D877*
X003213Y004479D03*
D878*
X003213Y004480D03*
D879*
X003213Y004480D03*
D880*
X003213Y004481D03*
D881*
X003213Y004481D03*
D882*
X003213Y004482D03*
D883*
X003213Y004483D03*
D884*
X003213Y004483D03*
D885*
X003213Y004484D03*
D886*
X003213Y004484D03*
D887*
X003213Y004484D03*
D888*
X003213Y004485D03*
D889*
X003213Y004485D03*
D890*
X003213Y004486D03*
D891*
X003213Y004486D03*
D892*
X003213Y004487D03*
D893*
X003212Y004488D03*
D894*
X003212Y004488D03*
D895*
X003212Y004489D03*
D896*
X003212Y004489D03*
D897*
X003212Y004489D03*
D898*
X003212Y004490D03*
D899*
X003212Y004490D03*
D900*
X003212Y004491D03*
D901*
X003212Y004491D03*
D902*
X003212Y004492D03*
D903*
X003212Y004493D03*
D904*
X003212Y004493D03*
D905*
X003212Y004494D03*
D906*
X003212Y004494D03*
D907*
X003212Y004494D03*
D908*
X003212Y004495D03*
D909*
X003212Y004495D03*
D910*
X003212Y004496D03*
D911*
X003212Y004496D03*
D912*
X003212Y004497D03*
D913*
X003212Y004498D03*
D914*
X003212Y004498D03*
D915*
X003212Y004499D03*
D916*
X003212Y004499D03*
D917*
X003212Y004499D03*
D918*
X003212Y004500D03*
D919*
X003212Y004500D03*
D920*
X003212Y004501D03*
D921*
X003212Y004501D03*
D922*
X003212Y004502D03*
D923*
X003212Y004503D03*
D924*
X003212Y004503D03*
D925*
X003212Y004504D03*
D926*
X003213Y004504D03*
D927*
X003213Y004504D03*
D928*
X003213Y004505D03*
D929*
X003213Y004505D03*
D930*
X003213Y004506D03*
D931*
X003213Y004506D03*
D932*
X003213Y004507D03*
D933*
X003213Y004508D03*
D934*
X003213Y004508D03*
D935*
X003213Y004509D03*
D936*
X003213Y004509D03*
D937*
X003213Y004509D03*
D938*
X003213Y004510D03*
D939*
X003213Y004510D03*
D940*
X003213Y004511D03*
D941*
X003212Y004511D03*
D942*
X003212Y004512D03*
D943*
X003212Y004513D03*
D944*
X003212Y004513D03*
D945*
X003212Y004514D03*
D946*
X003212Y004514D03*
D947*
X003212Y004514D03*
D948*
X003212Y004515D03*
D949*
X003212Y004515D03*
D950*
X003212Y004516D03*
D951*
X003212Y004516D03*
D952*
X003212Y004517D03*
D953*
X003212Y004518D03*
D954*
X003212Y004518D03*
D955*
X003212Y004519D03*
D956*
X003212Y004519D03*
D957*
X003212Y004519D03*
D958*
X003212Y004520D03*
D959*
X003212Y004520D03*
D960*
X003212Y004521D03*
D961*
X003212Y004521D03*
D962*
X003212Y004522D03*
D963*
X003212Y004523D03*
D964*
X003212Y004523D03*
D965*
X003212Y004524D03*
D966*
X003212Y004524D03*
D967*
X003212Y004524D03*
D968*
X003212Y004525D03*
D969*
X003212Y004525D03*
D970*
X003212Y004526D03*
D971*
X003212Y004526D03*
D972*
X003212Y004527D03*
D973*
X003212Y004528D03*
D974*
X003212Y004528D03*
D975*
X003213Y004529D03*
D976*
X003213Y004529D03*
D977*
X003213Y004529D03*
D978*
X003213Y004530D03*
D979*
X003213Y004530D03*
D980*
X003213Y004531D03*
D981*
X003213Y004531D03*
D982*
X003213Y004532D03*
D983*
X003213Y004533D03*
D984*
X003213Y004533D03*
D985*
X003213Y004534D03*
D986*
X003213Y004534D03*
D987*
X003213Y004534D03*
D988*
X003213Y004535D03*
D989*
X003213Y004535D03*
D990*
X003212Y004536D03*
D991*
X003212Y004536D03*
D992*
X003212Y004537D03*
D993*
X003212Y004538D03*
D994*
X003212Y004538D03*
D995*
X003212Y004539D03*
D996*
X003212Y004539D03*
D997*
X003212Y004539D03*
D998*
X003212Y004540D03*
D999*
X003212Y004540D03*
D1000*
X003212Y004541D03*
D1001*
X003212Y004541D03*
D1002*
X003212Y004542D03*
D1003*
X003212Y004543D03*
D1004*
X003212Y004543D03*
D1005*
X003212Y004544D03*
D1006*
X003212Y004544D03*
D1007*
X003212Y004544D03*
D1008*
X003212Y004545D03*
D1009*
X003212Y004545D03*
D1010*
X003212Y004546D03*
D1011*
X003212Y004546D03*
D1012*
X003212Y004547D03*
D1013*
X003212Y004548D03*
D1014*
X003212Y004548D03*
D1015*
X003212Y004549D03*
D1016*
X003212Y004549D03*
D1017*
X003212Y004549D03*
D1018*
X003212Y004550D03*
D1019*
X003212Y004550D03*
D1020*
X003212Y004551D03*
D1021*
X003212Y004551D03*
D1022*
X003212Y004552D03*
D1023*
X003212Y004553D03*
D1024*
X003213Y004553D03*
D1025*
X003213Y004554D03*
D1026*
X003213Y004554D03*
D1027*
X003213Y004554D03*
D1028*
X003213Y004555D03*
D1029*
X003213Y004555D03*
D1030*
X003213Y004556D03*
D1031*
X003213Y004556D03*
D1032*
X003213Y004557D03*
D1033*
X003213Y004558D03*
D1034*
X003213Y004558D03*
D1035*
X003213Y004559D03*
D1036*
X003213Y004559D03*
D1037*
X003213Y004559D03*
D1038*
X003213Y004560D03*
D1039*
X003212Y004560D03*
D1040*
X003212Y004561D03*
D1041*
X003212Y004561D03*
D1042*
X003212Y004562D03*
D1043*
X003212Y004563D03*
D1044*
X003212Y004563D03*
D1045*
X003212Y004564D03*
D1046*
X003212Y004564D03*
D1047*
X003212Y004564D03*
D1048*
X003212Y004565D03*
D1049*
X003212Y004565D03*
D1050*
X003212Y004566D03*
D1051*
X003212Y004566D03*
D1052*
X003212Y004567D03*
D1053*
X003212Y004568D03*
D1054*
X003212Y004568D03*
D1055*
X003212Y004569D03*
D1056*
X003212Y004569D03*
D1057*
X003212Y004569D03*
D1058*
X003212Y004570D03*
D1059*
X003212Y004570D03*
D1060*
X003212Y004571D03*
D1061*
X003213Y004571D03*
D1062*
X003212Y004572D03*
D1063*
X003212Y004573D03*
D1064*
X003212Y004573D03*
D1065*
X003212Y004574D03*
D1066*
X003212Y004574D03*
D1067*
X003213Y004574D03*
D1068*
X003213Y004575D03*
D1069*
X003213Y004575D03*
D1070*
X003213Y004576D03*
D1071*
X003213Y004576D03*
D1072*
X003213Y004577D03*
D1073*
X003213Y004578D03*
D1074*
X003213Y004578D03*
D1075*
X003213Y004579D03*
D1076*
X003213Y004579D03*
D1077*
X003213Y004579D03*
D1078*
X003213Y004580D03*
D1079*
X003213Y004580D03*
D1080*
X003213Y004581D03*
D1081*
X003213Y004581D03*
D1082*
X003716Y003528D02*
X003715Y003528D01*
X003715Y003528D01*
X003716Y003528D01*
X003716Y003528D01*
X003716Y003527D01*
X003716Y003528D02*
X003716Y003528D01*
X003716Y003528D01*
X003717Y003528D01*
X003717Y003528D01*
X003717Y003528D01*
X003717Y003528D01*
X003717Y003528D01*
X003717Y003528D01*
X003717Y003528D01*
X003717Y003528D01*
X003717Y003528D01*
X003718Y003528D01*
X003718Y003528D01*
X003718Y003528D01*
X003717Y003528D01*
X003718Y003529D02*
X003718Y003528D01*
X003718Y003528D01*
X003718Y003528D01*
X003719Y003528D02*
X003719Y003528D01*
X003719Y003528D01*
X003719Y003528D01*
X003719Y003528D01*
X003719Y003528D01*
X003719Y003528D01*
X003719Y003528D01*
X003719Y003528D01*
X003720Y003528D02*
X003720Y003528D01*
X003720Y003528D01*
X003720Y003528D01*
X003720Y003527D01*
X003720Y003527D01*
X003720Y003527D01*
X003720Y003528D02*
X003720Y003528D01*
X003720Y003528D01*
X003721Y003528D02*
X003721Y003528D01*
X003721Y003528D01*
X003721Y003528D01*
X003721Y003528D01*
X003721Y003528D01*
X003721Y003528D01*
X003721Y003528D01*
X003721Y003528D01*
X003722Y003528D01*
X003722Y003529D02*
X003722Y003529D01*
X003722Y003528D01*
X003723Y003527D02*
X003722Y003527D01*
X003723Y003528D02*
X003723Y003528D01*
X003723Y003528D01*
X003723Y003528D01*
X003723Y003529D02*
X003723Y003529D01*
X003724Y003528D02*
X003724Y003528D01*
X003724Y003528D01*
X003724Y003528D01*
X003724Y003528D01*
X003724Y003528D01*
X003724Y003528D01*
X003724Y003528D01*
X003725Y003528D02*
X003725Y003529D01*
X003726Y003528D02*
X003726Y003528D01*
X003726Y003528D01*
X003726Y003528D01*
X003726Y003528D01*
X003727Y003528D01*
X003727Y003528D01*
X003727Y003528D01*
X003728Y003528D01*
X003728Y003528D01*
X003728Y003528D01*
X003727Y003528D01*
X003727Y003528D01*
X003727Y003528D01*
X003727Y003528D01*
X003726Y003528D01*
X003725Y003528D01*
X003725Y003528D01*
X003726Y003528D01*
X003726Y003528D01*
X003727Y003528D02*
X003728Y003528D01*
X003728Y003528D01*
X003729Y003528D01*
X003729Y003528D01*
X003729Y003528D01*
X003728Y003528D01*
X003728Y003529D02*
X003728Y003529D01*
X003730Y003528D02*
X003730Y003529D01*
X003731Y003528D02*
X003731Y003528D01*
X003731Y003528D01*
X003731Y003528D01*
X003731Y003528D01*
X003731Y003528D01*
X003731Y003528D01*
X003731Y003528D01*
X003731Y003528D01*
X003732Y003528D02*
X003732Y003528D01*
X003732Y003528D01*
X003732Y003528D01*
X003732Y003528D01*
X003732Y003528D01*
X003732Y003528D01*
X003732Y003528D01*
X003733Y003528D01*
X003733Y003528D01*
X003733Y003528D01*
X003733Y003528D01*
X003733Y003528D01*
X003733Y003528D01*
X003734Y003528D01*
X003734Y003528D01*
X003734Y003528D01*
X003734Y003529D01*
X003735Y003528D01*
X003733Y003528D02*
X003733Y003528D01*
X003732Y003528D02*
X003732Y003528D01*
X003733Y003528D01*
M02*
