G75*
%MOIN*%
%OFA0B0*%
%FSLAX24Y24*%
%IPPOS*%
%LPD*%
%AMOC8*
5,1,8,0,0,1.08239X$1,22.5*
%
%ADD10C,0.0010*%
%ADD11R,0.0394X0.0551*%
%ADD12R,0.0433X0.0394*%
%ADD13R,0.0740X0.0740*%
%ADD14C,0.0740*%
%ADD15C,0.0320*%
%ADD16C,0.0350*%
%ADD17C,0.0100*%
D10*
X000245Y000400D02*
X000245Y005900D01*
X000247Y005930D01*
X000252Y005960D01*
X000261Y005989D01*
X000274Y006016D01*
X000289Y006042D01*
X000308Y006066D01*
X000329Y006087D01*
X000353Y006106D01*
X000379Y006121D01*
X000406Y006134D01*
X000435Y006143D01*
X000465Y006148D01*
X000495Y006150D01*
X005995Y006150D01*
X006025Y006148D01*
X006055Y006143D01*
X006084Y006134D01*
X006111Y006121D01*
X006137Y006106D01*
X006161Y006087D01*
X006182Y006066D01*
X006201Y006042D01*
X006216Y006016D01*
X006229Y005989D01*
X006238Y005960D01*
X006243Y005930D01*
X006245Y005900D01*
X006245Y000400D01*
X006243Y000370D01*
X006238Y000340D01*
X006229Y000311D01*
X006216Y000284D01*
X006201Y000258D01*
X006182Y000234D01*
X006161Y000213D01*
X006137Y000194D01*
X006111Y000179D01*
X006084Y000166D01*
X006055Y000157D01*
X006025Y000152D01*
X005995Y000150D01*
X000495Y000150D01*
X000465Y000152D01*
X000435Y000157D01*
X000406Y000166D01*
X000379Y000179D01*
X000353Y000194D01*
X000329Y000213D01*
X000308Y000234D01*
X000289Y000258D01*
X000274Y000284D01*
X000261Y000311D01*
X000252Y000340D01*
X000247Y000370D01*
X000245Y000400D01*
D11*
X001241Y002837D03*
X001989Y002837D03*
X002541Y002837D03*
X003289Y002837D03*
X003841Y002837D03*
X004589Y002837D03*
X005141Y002837D03*
X005889Y002837D03*
X005515Y003703D03*
X004215Y003703D03*
X002915Y003703D03*
X001615Y003703D03*
D12*
X001919Y004270D03*
X002541Y004270D03*
X003249Y004270D03*
X003841Y004270D03*
X004549Y004270D03*
X005191Y004270D03*
X005899Y004270D03*
X005869Y002020D03*
X005161Y002020D03*
X004569Y002020D03*
X003861Y002020D03*
X003269Y002020D03*
X002561Y002020D03*
X001969Y002020D03*
X001261Y002020D03*
X001211Y004270D03*
D13*
X000745Y000650D03*
D14*
X001745Y000650D03*
X002745Y000650D03*
X003745Y000650D03*
X004745Y000650D03*
X005745Y000650D03*
X005745Y005650D03*
X004745Y005650D03*
X003745Y005650D03*
X002745Y005650D03*
X001745Y005650D03*
X000745Y005650D03*
D15*
X000745Y004886D01*
X001145Y004486D01*
X001145Y004204D01*
X001145Y003700D01*
X001615Y003703D02*
X001615Y003916D01*
X001919Y004270D01*
X001919Y004824D01*
X002745Y005650D01*
X003249Y004754D02*
X003745Y005250D01*
X003745Y005650D01*
X004549Y005454D02*
X004745Y005650D01*
X004549Y005454D02*
X004549Y004270D01*
X004195Y003836D01*
X004215Y003703D01*
X003745Y003700D02*
X003745Y004174D01*
X003841Y004270D01*
X003249Y004270D02*
X003249Y004754D01*
X003249Y004270D02*
X002925Y003886D01*
X002915Y003703D01*
X002385Y003700D02*
X002385Y004114D01*
X002541Y004270D01*
X001211Y004270D02*
X001145Y004204D01*
X000745Y003000D02*
X000882Y002837D01*
X001241Y002837D01*
X001261Y002817D01*
X001261Y002020D01*
X001241Y002040D01*
X001945Y001996D02*
X001945Y001570D01*
X002745Y000770D01*
X002745Y000650D01*
X003045Y001200D02*
X002955Y001270D01*
X002561Y001694D01*
X002561Y002020D01*
X002541Y002040D01*
X002541Y002837D01*
X001989Y002837D02*
X001969Y002567D01*
X001969Y002020D01*
X001945Y001996D01*
X003255Y002006D02*
X003255Y001600D01*
X003745Y001110D01*
X003745Y000650D01*
X004235Y001200D02*
X003861Y001694D01*
X003861Y002020D01*
X003841Y002040D01*
X003841Y002837D01*
X003289Y002837D02*
X003289Y002040D01*
X003269Y002020D01*
X003255Y002006D01*
X004569Y002020D02*
X004569Y001496D01*
X004745Y001320D01*
X004745Y000650D01*
X005235Y001200D02*
X005161Y001324D01*
X005161Y002020D01*
X005141Y002040D01*
X005141Y002837D01*
X004589Y002837D02*
X004589Y002040D01*
X004569Y002020D01*
X005869Y002020D02*
X005869Y000774D01*
X005745Y000650D01*
X005869Y002020D02*
X005869Y002567D01*
X005889Y002837D01*
X005515Y003703D02*
X005899Y004087D01*
X005899Y004270D01*
X005899Y005496D01*
X005745Y005650D01*
X005191Y004270D02*
X005045Y004124D01*
X005045Y003700D01*
D16*
X005045Y003700D03*
X003745Y003700D03*
X002385Y003700D03*
X001145Y003700D03*
X000505Y003480D03*
X000745Y003000D03*
X003045Y001200D03*
X004235Y001200D03*
X005235Y001200D03*
D17*
X005451Y001416D02*
X005451Y001713D01*
X005507Y001769D01*
X005507Y002271D01*
X005431Y002347D01*
X005431Y002471D01*
X005468Y002507D01*
X005468Y003166D01*
X005392Y003243D01*
X004890Y003243D01*
X004865Y003217D01*
X004840Y003243D01*
X004338Y003243D01*
X004262Y003166D01*
X004262Y002507D01*
X004299Y002471D01*
X004299Y002347D01*
X004299Y002347D01*
X004223Y002271D01*
X004223Y001769D01*
X004279Y001713D01*
X004279Y001622D01*
X004185Y001747D01*
X004207Y001769D01*
X004207Y002271D01*
X004131Y002347D01*
X004131Y002471D01*
X004168Y002507D01*
X004168Y003166D01*
X004092Y003243D01*
X003590Y003243D01*
X003565Y003217D01*
X003540Y003243D01*
X003038Y003243D01*
X002962Y003166D01*
X002962Y002507D01*
X002999Y002471D01*
X002999Y002347D01*
X002999Y002347D01*
X002923Y002271D01*
X002923Y001769D01*
X002965Y001727D01*
X002965Y001685D01*
X002897Y001759D01*
X002907Y001769D01*
X002907Y002271D01*
X002831Y002347D01*
X002831Y002471D01*
X002868Y002507D01*
X002868Y003166D01*
X002792Y003243D01*
X002290Y003243D01*
X002265Y003217D01*
X002240Y003243D01*
X001738Y003243D01*
X001662Y003166D01*
X001662Y002507D01*
X001679Y002490D01*
X001679Y002327D01*
X001623Y002271D01*
X001623Y001769D01*
X001655Y001737D01*
X001655Y001512D01*
X001699Y001406D01*
X001781Y001324D01*
X002002Y001102D01*
X001945Y001132D01*
X001867Y001157D01*
X001795Y001169D01*
X001795Y000700D01*
X001695Y000700D01*
X001695Y001169D01*
X001623Y001157D01*
X001545Y001132D01*
X001472Y001095D01*
X001406Y001047D01*
X001348Y000989D01*
X001300Y000923D01*
X001263Y000850D01*
X001245Y000794D01*
X001245Y001074D01*
X001169Y001150D01*
X000380Y001150D01*
X000380Y005308D01*
X000455Y005233D01*
X000455Y004828D01*
X000499Y004721D01*
X000855Y004366D01*
X000855Y003797D01*
X000840Y003761D01*
X000840Y003639D01*
X000886Y003527D01*
X000972Y003441D01*
X001084Y003395D01*
X001206Y003395D01*
X001288Y003429D01*
X001288Y003374D01*
X001364Y003297D01*
X001866Y003297D01*
X001942Y003374D01*
X001942Y003851D01*
X002021Y003943D01*
X002095Y003943D01*
X002095Y003797D01*
X002080Y003761D01*
X002080Y003639D01*
X002126Y003527D01*
X002212Y003441D01*
X002324Y003395D01*
X002446Y003395D01*
X002558Y003441D01*
X002588Y003472D01*
X002588Y003374D01*
X002664Y003297D01*
X003166Y003297D01*
X003242Y003374D01*
X003242Y003811D01*
X003353Y003943D01*
X003455Y003943D01*
X003455Y003797D01*
X003440Y003761D01*
X003440Y003639D01*
X003486Y003527D01*
X003572Y003441D01*
X003684Y003395D01*
X003806Y003395D01*
X003888Y003429D01*
X003888Y003374D01*
X003964Y003297D01*
X004466Y003297D01*
X004542Y003374D01*
X004542Y003802D01*
X004657Y003943D01*
X004755Y003943D01*
X004755Y003797D01*
X004740Y003761D01*
X004740Y003639D01*
X004786Y003527D01*
X004872Y003441D01*
X004984Y003395D01*
X005106Y003395D01*
X005188Y003429D01*
X005188Y003374D01*
X005264Y003297D01*
X005766Y003297D01*
X005842Y003374D01*
X005842Y003620D01*
X006064Y003842D01*
X006110Y003888D01*
X006110Y003243D01*
X005638Y003243D01*
X005562Y003166D01*
X005562Y002507D01*
X005579Y002490D01*
X005579Y002327D01*
X005523Y002271D01*
X005523Y001769D01*
X005579Y001713D01*
X005579Y001123D01*
X005523Y001099D01*
X005540Y001139D01*
X005540Y001261D01*
X005494Y001373D01*
X005451Y001416D01*
X005451Y001431D02*
X005579Y001431D01*
X005579Y001332D02*
X005510Y001332D01*
X005540Y001234D02*
X005579Y001234D01*
X005579Y001135D02*
X005538Y001135D01*
X005579Y001529D02*
X005451Y001529D01*
X005451Y001628D02*
X005579Y001628D01*
X005566Y001726D02*
X005464Y001726D01*
X005507Y001825D02*
X005523Y001825D01*
X005523Y001923D02*
X005507Y001923D01*
X005507Y002022D02*
X005523Y002022D01*
X005523Y002120D02*
X005507Y002120D01*
X005507Y002219D02*
X005523Y002219D01*
X005569Y002317D02*
X005461Y002317D01*
X005431Y002347D02*
X005431Y002347D01*
X005431Y002416D02*
X005579Y002416D01*
X005562Y002514D02*
X005468Y002514D01*
X005468Y002613D02*
X005562Y002613D01*
X005562Y002711D02*
X005468Y002711D01*
X005468Y002810D02*
X005562Y002810D01*
X005562Y002908D02*
X005468Y002908D01*
X005468Y003007D02*
X005562Y003007D01*
X005562Y003105D02*
X005468Y003105D01*
X005431Y003204D02*
X005599Y003204D01*
X005770Y003302D02*
X006110Y003302D01*
X006110Y003401D02*
X005842Y003401D01*
X005842Y003499D02*
X006110Y003499D01*
X006110Y003598D02*
X005842Y003598D01*
X005918Y003696D02*
X006110Y003696D01*
X006110Y003795D02*
X006017Y003795D01*
X005260Y003302D02*
X004470Y003302D01*
X004542Y003401D02*
X004971Y003401D01*
X005119Y003401D02*
X005188Y003401D01*
X004815Y003499D02*
X004542Y003499D01*
X004542Y003598D02*
X004757Y003598D01*
X004740Y003696D02*
X004542Y003696D01*
X004542Y003795D02*
X004754Y003795D01*
X004755Y003893D02*
X004616Y003893D01*
X003960Y003302D02*
X003170Y003302D01*
X003242Y003401D02*
X003671Y003401D01*
X003515Y003499D02*
X003242Y003499D01*
X003242Y003598D02*
X003457Y003598D01*
X003440Y003696D02*
X003242Y003696D01*
X003242Y003795D02*
X003454Y003795D01*
X003455Y003893D02*
X003311Y003893D01*
X003819Y003401D02*
X003888Y003401D01*
X004131Y003204D02*
X004299Y003204D01*
X004262Y003105D02*
X004168Y003105D01*
X004168Y003007D02*
X004262Y003007D01*
X004262Y002908D02*
X004168Y002908D01*
X004168Y002810D02*
X004262Y002810D01*
X004262Y002711D02*
X004168Y002711D01*
X004168Y002613D02*
X004262Y002613D01*
X004262Y002514D02*
X004168Y002514D01*
X004131Y002416D02*
X004299Y002416D01*
X004269Y002317D02*
X004161Y002317D01*
X004131Y002347D02*
X004131Y002347D01*
X004207Y002219D02*
X004223Y002219D01*
X004223Y002120D02*
X004207Y002120D01*
X004207Y002022D02*
X004223Y002022D01*
X004223Y001923D02*
X004207Y001923D01*
X004207Y001825D02*
X004223Y001825D01*
X004200Y001726D02*
X004266Y001726D01*
X004275Y001628D02*
X004279Y001628D01*
X002965Y001726D02*
X002927Y001726D01*
X002923Y001825D02*
X002907Y001825D01*
X002907Y001923D02*
X002923Y001923D01*
X002923Y002022D02*
X002907Y002022D01*
X002907Y002120D02*
X002923Y002120D01*
X002923Y002219D02*
X002907Y002219D01*
X002861Y002317D02*
X002969Y002317D01*
X002999Y002416D02*
X002831Y002416D01*
X002831Y002347D02*
X002831Y002347D01*
X002868Y002514D02*
X002962Y002514D01*
X002962Y002613D02*
X002868Y002613D01*
X002868Y002711D02*
X002962Y002711D01*
X002962Y002810D02*
X002868Y002810D01*
X002868Y002908D02*
X002962Y002908D01*
X002962Y003007D02*
X002868Y003007D01*
X002868Y003105D02*
X002962Y003105D01*
X002999Y003204D02*
X002831Y003204D01*
X002660Y003302D02*
X001870Y003302D01*
X001942Y003401D02*
X002311Y003401D01*
X002155Y003499D02*
X001942Y003499D01*
X001942Y003598D02*
X002097Y003598D01*
X002080Y003696D02*
X001942Y003696D01*
X001942Y003795D02*
X002094Y003795D01*
X002095Y003893D02*
X001978Y003893D01*
X001557Y004293D02*
X001557Y004521D01*
X001481Y004597D01*
X001413Y004597D01*
X001391Y004650D01*
X001309Y004732D01*
X001035Y005006D01*
X001035Y005233D01*
X001169Y005367D01*
X001237Y005532D01*
X001238Y005528D01*
X001263Y005450D01*
X001300Y005377D01*
X001348Y005311D01*
X001406Y005253D01*
X001472Y005205D01*
X001545Y005168D01*
X001623Y005143D01*
X001695Y005131D01*
X001695Y005600D01*
X001795Y005600D01*
X001795Y005131D01*
X001820Y005135D01*
X001755Y005070D01*
X001673Y004989D01*
X001629Y004882D01*
X001629Y004577D01*
X001573Y004521D01*
X001573Y004312D01*
X001557Y004293D01*
X001557Y004386D02*
X001573Y004386D01*
X001573Y004484D02*
X001557Y004484D01*
X001495Y004583D02*
X001629Y004583D01*
X001629Y004681D02*
X001360Y004681D01*
X001261Y004780D02*
X001629Y004780D01*
X001629Y004878D02*
X001163Y004878D01*
X001064Y004977D02*
X001668Y004977D01*
X001760Y005075D02*
X001035Y005075D01*
X001035Y005174D02*
X001535Y005174D01*
X001388Y005272D02*
X001074Y005272D01*
X001170Y005371D02*
X001305Y005371D01*
X001257Y005469D02*
X001211Y005469D01*
X001695Y005469D02*
X001795Y005469D01*
X001795Y005371D02*
X001695Y005371D01*
X001695Y005272D02*
X001795Y005272D01*
X001795Y005174D02*
X001695Y005174D01*
X001695Y005568D02*
X001795Y005568D01*
X000737Y004484D02*
X000380Y004484D01*
X000380Y004583D02*
X000638Y004583D01*
X000540Y004681D02*
X000380Y004681D01*
X000380Y004780D02*
X000475Y004780D01*
X000455Y004878D02*
X000380Y004878D01*
X000380Y004977D02*
X000455Y004977D01*
X000455Y005075D02*
X000380Y005075D01*
X000380Y005174D02*
X000455Y005174D01*
X000416Y005272D02*
X000380Y005272D01*
X000380Y004386D02*
X000835Y004386D01*
X000855Y004287D02*
X000380Y004287D01*
X000380Y004189D02*
X000855Y004189D01*
X000855Y004090D02*
X000380Y004090D01*
X000380Y003992D02*
X000855Y003992D01*
X000855Y003893D02*
X000380Y003893D01*
X000380Y003795D02*
X000854Y003795D01*
X000840Y003696D02*
X000380Y003696D01*
X000380Y003598D02*
X000857Y003598D01*
X000915Y003499D02*
X000380Y003499D01*
X000380Y003401D02*
X001071Y003401D01*
X001219Y003401D02*
X001288Y003401D01*
X001360Y003302D02*
X000813Y003302D01*
X000806Y003305D02*
X000684Y003305D01*
X000572Y003259D01*
X000486Y003173D01*
X000440Y003061D01*
X000440Y002939D01*
X000486Y002827D01*
X000572Y002741D01*
X000589Y002734D01*
X000631Y002685D01*
X000636Y002673D01*
X000668Y002641D01*
X000697Y002606D01*
X000708Y002600D01*
X000718Y002591D01*
X000759Y002574D01*
X000799Y002553D01*
X000812Y002552D01*
X000824Y002547D01*
X000869Y002547D01*
X000914Y002543D01*
X000914Y002507D01*
X000971Y002451D01*
X000971Y002327D01*
X000914Y002271D01*
X000914Y001769D01*
X000990Y001693D01*
X001531Y001693D01*
X001607Y001769D01*
X001607Y002271D01*
X001551Y002327D01*
X001551Y002490D01*
X001568Y002507D01*
X001568Y003166D01*
X001492Y003243D01*
X000990Y003243D01*
X000962Y003214D01*
X000918Y003259D01*
X000806Y003305D01*
X000677Y003302D02*
X000380Y003302D01*
X000380Y003204D02*
X000517Y003204D01*
X000458Y003105D02*
X000380Y003105D01*
X000380Y003007D02*
X000440Y003007D01*
X000453Y002908D02*
X000380Y002908D01*
X000380Y002810D02*
X000504Y002810D01*
X000609Y002711D02*
X000380Y002711D01*
X000380Y002613D02*
X000692Y002613D01*
X000914Y002514D02*
X000380Y002514D01*
X000380Y002416D02*
X000971Y002416D01*
X000960Y002317D02*
X000380Y002317D01*
X000380Y002219D02*
X000914Y002219D01*
X000914Y002120D02*
X000380Y002120D01*
X000380Y002022D02*
X000914Y002022D01*
X000914Y001923D02*
X000380Y001923D01*
X000380Y001825D02*
X000914Y001825D01*
X000957Y001726D02*
X000380Y001726D01*
X000380Y001628D02*
X001655Y001628D01*
X001655Y001529D02*
X000380Y001529D01*
X000380Y001431D02*
X001689Y001431D01*
X001773Y001332D02*
X000380Y001332D01*
X000380Y001234D02*
X001871Y001234D01*
X001935Y001135D02*
X001970Y001135D01*
X001795Y001135D02*
X001695Y001135D01*
X001695Y001037D02*
X001795Y001037D01*
X001795Y000938D02*
X001695Y000938D01*
X001695Y000840D02*
X001795Y000840D01*
X001795Y000741D02*
X001695Y000741D01*
X001396Y001037D02*
X001245Y001037D01*
X001245Y000938D02*
X001311Y000938D01*
X001260Y000840D02*
X001245Y000840D01*
X001184Y001135D02*
X001555Y001135D01*
X001564Y001726D02*
X001655Y001726D01*
X001623Y001825D02*
X001607Y001825D01*
X001607Y001923D02*
X001623Y001923D01*
X001623Y002022D02*
X001607Y002022D01*
X001607Y002120D02*
X001623Y002120D01*
X001623Y002219D02*
X001607Y002219D01*
X001561Y002317D02*
X001669Y002317D01*
X001679Y002416D02*
X001551Y002416D01*
X001568Y002514D02*
X001662Y002514D01*
X001662Y002613D02*
X001568Y002613D01*
X001568Y002711D02*
X001662Y002711D01*
X001662Y002810D02*
X001568Y002810D01*
X001568Y002908D02*
X001662Y002908D01*
X001662Y003007D02*
X001568Y003007D01*
X001568Y003105D02*
X001662Y003105D01*
X001699Y003204D02*
X001531Y003204D01*
X002459Y003401D02*
X002588Y003401D01*
M02*
